<?xml version="1.0" encoding="UTF-8"?>
<svg width="1920px" height="24px" viewBox="0 0 1920 24" version="1.1" xmlns="http://www.w3.org/2000/svg" xmlns:xlink="http://www.w3.org/1999/xlink">
    <!-- Generator: Sketch 49.2 (51160) - http://www.bohemiancoding.com/sketch -->
    <title>singlegrunge</title>
    <desc>Created with Sketch.</desc>
    <defs></defs>
    <g id="singlegrunge" stroke="none" stroke-width="1" fill="none" fill-rule="evenodd">
        <g id="Page-1" transform="translate(-0.500000, 0.500000)" fill="#27221D">
            <path d="M319.264225,21.6459692 L319.291268,21.5961231 L318.903662,21.6127385 L319.264225,21.6459692 Z M408.683944,21.5112 L408.729014,21.4318154 L408.260282,21.4632 L408.683944,21.5112 Z M520.954366,19.7998154 L520.530704,19.8312 L520.945352,19.8570462 L520.954366,19.7998154 Z M1042.75268,11.9241231 L1042.71662,11.9813538 L1043.1493,11.9610462 L1042.75268,11.9241231 Z M764.992676,9.04227692 L764.641127,8.99981538 L764.569014,9.0552 L764.992676,9.04227692 Z M955.793803,6.76596923 L955.829859,6.71796923 L955.460282,6.73458462 L955.793803,6.76596923 Z M45.0377465,13.0299692 C44.9566197,13.0521231 44.8664789,13.0705846 44.7853521,13.0908923 C44.9566197,13.1038154 45.1369014,13.1259692 45.308169,13.1241231 C45.9121127,13.1167385 46.0292958,13.0779692 45.5966197,13.0355077 C45.4433803,13.0188923 45.2270423,13.0318154 45.0377465,13.0299692 Z M275.933521,5.8872 C275.771268,5.89827692 275.482817,5.90012308 275.455775,5.91858462 C275.329577,5.99243077 275.581972,6.02566154 276.077746,5.99612308 C276.221972,5.98873846 276.312113,5.95366154 276.420282,5.93335385 C276.267042,5.91673846 276.095775,5.90381538 275.933521,5.8872 Z M851.320563,8.32043077 C851.140282,8.33150769 850.842817,8.3352 850.815775,8.35550769 C850.671549,8.44412308 850.941972,8.48104615 851.473803,8.45150769 C851.6,8.44412308 851.699155,8.40350769 851.807324,8.37766154 C851.64507,8.3592 851.482817,8.33889231 851.320563,8.32043077 Z M1047.69239,11.9481231 C1046.45746,11.9148923 1046.0969,11.9462769 1046.72789,11.9942769 C1046.96225,12.0127385 1047.33183,11.9684308 1047.69239,11.9481231 Z M326.457465,21.6053538 C327.079437,21.7235077 327.755493,21.6939692 328.458592,21.6404308 C327.818592,21.5278154 327.151549,21.5573538 326.457465,21.6053538 Z M46.9577465,9.1512 C45.9752113,8.97766154 44.9746479,9.03673846 43.9560563,9.14196923 C44.9566197,9.26381538 45.948169,9.28412308 46.9577465,9.1512 Z M1151.92225,5.88904615 C1152.85972,5.96843077 1153.8062,6.06627692 1154.90592,5.89089231 C1153.79718,5.88904615 1152.85972,5.88904615 1151.92225,5.88904615 Z M122.468732,14.8521231 C123.47831,14.9832 124.487887,15.0238154 125.542535,14.8724308 C124.523944,14.7579692 123.52338,14.7099692 122.468732,14.8521231 Z M640.79662,17.7635077 C637.650704,17.6564308 637.650704,17.6564308 636.51493,17.7598154 C637.569577,17.7616615 638.705352,17.7635077 640.79662,17.7635077 Z M989.632676,6.70689231 C991.309296,6.81212308 992.976901,6.91366154 995.419718,6.71058462 C993.012958,6.70873846 991.327324,6.70689231 989.632676,6.70689231 Z M733.028732,10.1850462 C735.832113,10.4065846 737.355493,10.3419692 740.267042,10.1905846 C737.292394,10.1887385 735.750986,10.1868923 733.028732,10.1850462 Z M346.739155,21.5518154 C349.172958,21.6496615 349.172958,21.6496615 349.957183,21.4004308 C349.019718,21.3192 348.11831,21.3044308 346.739155,21.5518154 Z M892.695211,12.6552 C889.305915,12.4816615 889.305915,12.4816615 886.736901,12.7715077 C888.999437,12.6533538 890.784225,12.9948923 892.695211,12.6552 Z M525.064789,19.7850462 C527.525634,19.8939692 529.815211,19.9493538 532.059718,19.7905846 C529.734085,19.7887385 527.399437,19.7868923 525.064789,19.7850462 Z M872.936338,8.10258462 C870.105915,7.72043077 867.780282,7.82381538 865.445634,7.93827692 C867.708169,7.95489231 869.817465,8.27243077 872.936338,8.10258462 Z M362.88338,21.3782769 C362.856338,21.4115077 362.829296,21.4428923 362.802254,21.4779692 C366.326761,21.4798154 369.851268,21.4835077 373.375775,21.4872 L373.375775,21.3875077 C369.87831,21.3838154 366.389859,21.3819692 362.88338,21.3782769 Z M502.304225,19.8238154 C505.891831,19.9936615 509.434366,20.0065846 512.904789,19.7278154 C509.308169,19.4970462 505.80169,19.6668923 502.304225,19.8238154 Z M1831.93577,4.02996923 C1834.80225,4.5432 1837.61465,4.35858462 1841.11211,4.29212308 C1836.96563,3.90627692 1836.96563,3.90627692 1831.93577,4.02996923 Z M1583.15606,14.9628923 C1578.72113,14.6287385 1575.90873,14.6878154 1571.83437,15.0847385 C1576.08,15.1752 1578.97352,15.4576615 1583.15606,14.9628923 Z M805.051268,9.78812308 C814.714366,10.1019692 819.825352,10.0465846 823.890704,9.53150769 C817.355493,9.62012308 811.52338,9.69766154 805.051268,9.78812308 Z M381.650704,21.3967385 C381.650704,21.4299692 381.64169,21.4595077 381.64169,21.4908923 C387.969577,21.5204308 394.297465,21.5518154 400.607324,21.5758154 C401.571831,21.5795077 402.599437,21.6164308 403.789296,21.4152 C396.181408,21.4096615 388.92507,21.4041231 381.650704,21.3967385 Z M1006.03831,12.3690462 C1013.30366,12.3210462 1020.56901,12.2693538 1027.83437,12.2213538 C1020.48789,12.2047385 1013.09634,11.9148923 1006.03831,12.3690462 Z M1738.99155,2.84104615 C1742.97577,3.14750769 1749.79042,3.16412308 1753.36,2.86135385 C1752.79211,2.79489231 1752.34141,2.69889231 1751.84563,2.68781538 C1748.33014,2.60658462 1744.82366,2.53827692 1741.30817,2.47550769 C1740.03718,2.45150769 1738.98254,2.50689231 1738.99155,2.84104615 Z M809.747606,8.4552 C798.813521,8.58258462 787.816338,8.25027692 776.12507,8.84104615 C779.775775,8.94443077 782.543099,8.97396923 785.23831,8.84289231 C789.934648,8.61581538 794.730141,8.63243077 799.372394,8.75243077 C803.032113,8.84658462 806.40338,8.76904615 809.747606,8.4552 Z M1160.54873,5.98689231 C1171.00507,5.99243077 1181.46141,6.00535385 1191.92676,6.0072 C1192.69296,6.0072 1193.50423,5.96473846 1194.22535,5.90381538 C1194.91944,5.84289231 1196.05521,5.92227692 1196.27155,5.62504615 C1191.48507,5.77458462 1186.79775,5.72104615 1182.10141,5.60658462 C1180.7493,5.57335385 1179.3431,5.61950769 1177.96394,5.63981538 C1174.24113,5.68966154 1170.49127,5.81889231 1166.80451,5.76904615 C1164.59606,5.74135385 1162.59493,5.80966154 1160.54873,5.98689231 Z M668.60507,10.3770462 C668.614085,10.4287385 668.614085,10.4804308 668.614085,10.5321231 C675.230423,10.5376615 681.855775,10.5561231 688.472113,10.5432 C691.230423,10.5376615 694.006761,10.5432 696.710986,10.3641231 C702.687324,9.96535385 708.762817,9.93950769 714.88338,10.2238154 C717.758873,10.3567385 720.616338,10.4028923 723.6,10.2090462 C720.066479,10.2773538 716.974648,10.0668923 714.748169,9.73643077 C698.919437,9.95612308 683.766761,10.1665846 668.60507,10.3770462 Z M985.972958,12.3764308 C956.11831,12.1216615 926.254648,12.3007385 895.922254,12.5204308 C896.688451,12.6127385 896.99493,12.6810462 897.292394,12.6792 C903.412958,12.6588923 909.461408,12.8767385 915.663099,12.7512 C922.757183,12.6053538 929.959437,12.6718154 937.107606,12.6792 C946.455211,12.6865846 955.730704,12.4281231 965.087324,12.5038154 C972.037183,12.5610462 978.987042,12.5555077 985.972958,12.3764308 Z M805.384789,17.1173538 C802.040563,17.7690462 802.040563,17.7672 797.686761,17.7930462 C795.694648,17.8059692 793.702535,17.8115077 791.746479,17.8668923 C787.00507,17.9998154 782.218592,18.0884308 777.477183,18.0016615 C772.48338,17.9112 767.660845,17.9979692 762.694085,18.1087385 C758.178028,18.2102769 753.716056,18.3764308 749.209014,18.4908923 C740.744789,18.7050462 732.36169,19.0705846 723.762254,18.9893538 C722.923944,18.9819692 721.761127,19.0133538 721.752113,19.2995077 C723.311549,19.5468923 724.988169,19.5672 726.827042,19.4730462 C734.407887,19.0908923 742.214085,19.3124308 749.876056,19.1167385 C750.452958,19.1038154 751.092958,19.0982769 751.642817,19.1315077 C756.88,19.4287385 762.306479,19.2108923 767.597746,19.3715077 C773.736338,19.5579692 779.910986,19.2902769 786.067606,19.4287385 C786.617465,19.4416615 786.842817,19.4028923 786.797746,19.3530462 C786.157746,19.2552 785.707042,19.1832 785.157183,19.1001231 C788.312113,18.6884308 788.83493,18.6699692 790.610704,18.9690462 C791.331831,19.0927385 791.44,19.3493538 792.656901,19.3862769 C799.201127,19.3770462 805.709296,19.2588923 812.208451,19.0890462 C813.389296,19.0576615 814.651268,18.9690462 815.732958,19.0225846 C818.536338,19.1573538 821.231549,19.0502769 823.998873,19.0022769 C829.921127,18.8952 835.915493,18.9616615 841.819718,18.7493538 C842.775211,18.7142769 843.820845,18.7401231 844.794366,18.7715077 C847.570704,18.8656615 850.310986,18.8379692 853.087324,18.7475077 C855.818592,18.6570462 858.59493,18.5647385 861.362254,18.5518154 C864.886761,18.5370462 867.942535,18.3561231 869.997746,17.7524308 C872.692958,17.7542769 875.072676,17.7579692 877.461408,17.7598154 C894.750423,17.7708923 912.048451,17.7856615 929.337465,17.7912 C933.700282,17.7930462 938.081127,17.8595077 942.425915,17.6822769 C943.36338,17.6453538 944.436056,17.6601231 945.373521,17.7062769 C947.933521,17.8373538 950.511549,17.8041231 953.089577,17.8115077 C964.609577,17.8428923 976.102535,17.6453538 987.613521,17.6268923 C996.735775,17.6102769 1005.87606,17.6933538 1015.00732,17.7468923 C1016.17014,17.7542769 1017.84676,17.7856615 1018.36056,17.9370462 C1020.19042,18.4687385 1022.74141,18.4188923 1025.27437,18.4152 C1028.85296,18.4115077 1032.43155,18.4078154 1036.00113,18.3635077 C1039.32732,18.3228923 1042.74366,18.4188923 1045.93465,18.1087385 C1047.05239,17.9998154 1048.26028,18.0718154 1049.45014,18.0902769 C1050.82028,18.1142769 1052.22648,18.1050462 1053.59662,18.0681231 C1061.27662,17.8502769 1068.95662,17.6748923 1076.74479,17.7376615 C1080.9093,17.7690462 1085.08282,17.7524308 1089.25634,17.7450462 C1094.2231,17.7376615 1099.2169,17.7819692 1104.13859,17.6822769 C1109.86254,17.5641231 1115.58648,17.5604308 1121.30141,17.5548923 C1129.4231,17.5456615 1137.53577,17.5715077 1145.68451,17.6785846 C1156.33014,17.8133538 1167.10197,17.8742769 1177.77465,17.5567385 C1182.09239,17.4256615 1186.45521,17.3130462 1190.80901,17.2927385 C1197.74085,17.2595077 1204.57352,16.9068923 1211.55042,17.0268923 C1212.30761,17.0398154 1213.14592,16.9899692 1213.87606,16.9345846 C1217.67099,16.6392 1221.65521,16.6465846 1225.63042,16.6188923 C1237.93465,16.5284308 1250.23887,16.7167385 1262.5431,16.4010462 C1268.40225,16.2515077 1274.4507,16.3788923 1280.40901,16.3955077 C1282.78873,16.4010462 1285.25859,16.3752 1287.53915,16.4859692 C1293.25408,16.7628923 1298.98704,16.6890462 1304.72901,16.6502769 C1312.8507,16.5948923 1320.97239,16.4527385 1329.06704,16.5099692 C1340.37972,16.5893538 1351.66535,16.4508923 1362.96901,16.5007385 C1367.94479,16.5247385 1372.96563,16.5155077 1377.86028,16.3955077 C1387.58648,16.1573538 1397.32169,16.2367385 1407.02986,16.2976615 C1416.57577,16.3567385 1426.02254,16.0115077 1435.55944,16.0262769 C1435.94704,16.0281231 1436.34366,16.0078154 1436.73127,15.9893538 C1441.2293,15.8028923 1445.78141,15.8028923 1450.36056,15.8305846 C1456.71549,15.8693538 1463.09746,15.9819692 1469.3893,15.6736615 C1470.69634,15.6072 1472.16563,15.6312 1473.5538,15.6293538 C1488.47211,15.6201231 1503.37239,15.6312 1518.30873,15.5979692 C1527.01634,15.5758154 1535.73296,15.5019692 1544.44056,15.4170462 C1546.80225,15.3948923 1549.11887,15.2564308 1551.45352,15.1567385 C1552.15662,15.1272 1553.04901,15.0939692 1552.51718,14.7635077 C1540.18592,14.7542769 1527.71042,14.7450462 1515.23493,14.7339692 C1513.44113,14.7321231 1511.77352,14.8558154 1509.92563,14.8225846 C1499.01859,14.6195077 1488.06648,14.6841231 1477.14141,14.6896615 C1469.01972,14.6952 1460.88,14.8022769 1452.74028,14.8484308 C1445.3938,14.8872 1438.00225,14.8225846 1430.70085,14.9518154 C1423.14704,15.0865846 1415.60225,14.9905846 1408.07549,15.1087385 C1406.90366,15.1272 1405.64169,15.1032 1404.54197,15.0238154 C1401.98197,14.8355077 1399.53014,14.8798154 1396.9431,15.0127385 C1394.66254,15.1327385 1392.24676,15.3173538 1389.92113,15.1973538 C1384.99042,14.9425846 1379.99662,14.9979692 1375.06592,15.0478154 C1362.7707,15.1696615 1350.43944,15.0256615 1338.13521,15.2102769 C1325.47944,15.3985846 1312.74254,15.3524308 1300.0507,15.4041231 C1291.49634,15.4410462 1282.95099,15.4816615 1274.39662,15.4964308 C1267.65408,15.5112 1260.92056,15.5241231 1254.17803,15.6256615 C1247.25521,15.7308923 1240.30535,15.7235077 1233.35549,15.6847385 C1220.43831,15.6145846 1207.53915,15.8896615 1194.62197,15.8582769 C1187.45577,15.8398154 1180.29859,15.8287385 1173.14141,15.8490462 C1156.84394,15.8933538 1140.56451,16.1315077 1124.26704,16.0465846 C1118.10141,16.0170462 1111.93577,16.0835077 1105.77014,16.0872 C1101.2,16.0890462 1096.62085,16.1352 1092.06873,15.9967385 C1091.09521,15.9672 1090.06761,15.9376615 1089.11211,15.9672 C1080.04394,16.2404308 1070.88563,16.0650462 1061.76338,16.1813538 C1050.92845,16.3198154 1040.00338,16.5228923 1029.09634,16.3013538 C1028.33014,16.2865846 1027.54592,16.3641231 1026.76169,16.3862769 C1025.40056,16.4305846 1024.03042,16.5062769 1022.66028,16.5007385 C1017.53127,16.4878154 1012.41127,16.7167385 1007.26423,16.5099692 C1005.73183,16.4508923 1004.06423,16.4712 1002.50479,16.5210462 C991.868169,16.8644308 981.105352,16.7093538 970.405634,16.8773538 C961.310423,17.0213538 952.12507,16.9142769 942.984789,16.9567385 C938.054085,16.9807385 933.060282,16.8072 928.210704,17.1395077 C927.498592,17.1893538 926.633239,17.1487385 925.84,17.1432 C913.526761,17.0472 901.213521,17.0564308 888.91831,17.2835077 C887.755493,17.3056615 886.55662,17.2484308 885.375775,17.2225846 C883.987606,17.1948923 882.554366,17.0970462 881.247324,17.1450462 C876.073239,17.3388923 870.971268,17.0804308 865.842254,17.0970462 C861.479437,17.1099692 857.125634,17.1284308 852.753803,17.2041231 C847.264225,17.2982769 841.657465,17.3056615 836.185915,17.1838154 C832.787606,17.1081231 829.425352,17.1118154 826.108169,17.1524308 C823.521127,17.1838154 821.033239,17.1875077 818.446197,17.1468923 C814.119437,17.0767385 809.75662,17.1210462 805.384789,17.1173538 Z M108.442817,13.8908923 C111.129014,14.0552 114.32,13.9148923 117.447887,14.0958154 C123.126761,14.4170462 128.877746,14.1918154 134.592676,14.1992 C135.935775,14.2010462 137.31493,14.0976615 138.297465,13.8761231 C139.802817,13.5161231 137.720563,13.0933538 138.621972,12.7241231 C140.632113,12.5487385 143.07493,12.8902769 144.985915,12.3992 C139.207887,12.3936615 133.844507,12.3475077 128.490141,12.3955077 C123.162817,12.4416615 117.925634,12.2219692 112.589296,12.2108923 C106.288451,12.1961231 99.9335211,12.1093538 93.6056338,12.0742769 C89.6574648,12.0558154 85.6912676,12.1001231 81.7340845,12.1185846 C80.8957746,12.1222769 80.2107042,12.1795077 80.1476056,12.4545846 C82.8428169,12.8662769 86.3402817,12.8828923 89.044507,12.6521231 C93.308169,12.2939692 97.0309859,12.4435077 101.132394,12.6632 C105.864789,12.9161231 110.633239,13.2982769 115.987606,12.9364308 C114.112676,12.7592 111.940282,12.9770462 110.164507,12.6170462 C113.166197,12.4712 115.879437,12.5432 118.673803,12.5948923 C120.936338,13.1247385 123.910986,13.2816615 127.219155,13.2964308 C128.706479,13.3019692 130.356056,13.2761231 131.753239,13.7616615 C127.570704,13.9056615 123.929014,13.8225846 120.269296,13.8059692 C116.330141,13.7912 112.381972,13.8595077 108.938592,13.9499692 C101.808451,13.7727385 95.5707042,13.8465846 88.2602817,13.7635077 C95.9492958,14.3044308 103.656338,14.3819692 108.442817,13.8908923 Z M485.042254,21.1530462 C484.663662,21.0478154 484.276056,21.0404308 483.879437,21.1512 C483.590986,21.2028923 482.770704,21.0718154 482.923944,21.2712 C483.221408,21.2250462 483.527887,21.1825846 483.825352,21.1382769 C484.258028,21.1364308 484.68169,21.1382769 485.096338,21.1382769 L485.312676,21.1955077 L485.042254,21.1530462 Z M71.3557712,11.5696615 C66.5874075,11.5530462 61.8009819,11.5475077 57.0326182,11.5567385 C51.8668909,11.5678154 46.7463185,11.3684308 41.5625292,11.4625846 C37.8507916,11.5308923 36.9518432,11.9659692 33.2581676,11.9733538 C33.926461,11.2699692 34.5725416,10.5690462 36.0355622,10.3881231 C34.7892854,10.1961231 33.6694424,11.9801231 33.1907998,11.7548923 C32.6308783,11.6921231 32.4502585,11.6533538 32.2786696,11.6552 C27.2755002,11.7530462 30.1663989,11.8078154 24.8110207,12.1419692 C26.761715,12.3081231 22.5522914,12.0718154 23.3018638,12.6662769 C23.039965,12.9173538 21.1729898,13.0225846 20.1344257,13.0244308 C17.1903224,13.0299692 9.12881617,12.8601231 6.54595251,13.3105846 C3.45735331,13.3585846 1.4420358,12.8110974 0.5,11.6681231 L0.5,10.0822769 C9.79497386,9.78812308 15.3154567,9.73950769 17.0614484,9.93643077 C19.8610559,10.2484308 22.7419423,10.2465846 25.7312006,10.2816615 C31.4839424,10.3481231 37.2276531,8.45889231 42.9803949,8.54566154 C45.147833,8.57704615 47.297209,8.5512 49.482709,8.45704615 C55.3076988,8.21150769 61.1959054,8.03058462 67.174422,8.0472 C70.3623621,8.05643077 73.5412712,8.13396923 76.7111494,8.09704615 C81.9310626,8.03796923 87.015511,8.28535385 92.1812384,8.29643077 C94.1680566,8.30012308 96.2632467,8.37396923 98.132662,8.27981538 C102.75653,8.04904615 107.253964,8.24104615 111.715274,8.37766154 C122.028666,8.69889231 132.396245,8.5272 142.7277,8.56596923 C144.073317,8.57150769 145.536338,8.49581538 146.764553,8.3832 C150.5666,8.02504615 154.558299,8.05273846 158.450656,8.18381538 C162.406231,8.31673846 166.352774,8.36289231 170.335442,8.36289231 C175.112836,8.36289231 179.890231,8.37581538 184.667626,8.37027692 C186.25708,8.36843077 187.927814,8.39243077 189.408896,8.30381538 C191.775016,8.16535385 194.195322,8.25212308 196.480163,8.17273846 C202.82895,7.94750769 209.11452,8.12104615 215.409122,8.23550769 C216.03226,8.08227692 216.510903,7.96412308 217.12501,7.81089231 C220.963182,7.85704615 224.638795,8.27612308 228.666618,8.21704615 C232.568006,8.15981538 236.442302,8.06381538 240.145008,7.82750769 C239.955357,7.31612308 238.022725,7.12412308 237.589238,6.76781538 C240.018574,6.66443077 242.294384,6.8232 244.615349,6.93581538 C246.547982,7.02996923 248.471583,7.22381538 251.198942,7.14258462 C246.502827,6.49458462 242.312446,6.12904615 237.507959,6.74935385 C233.624632,6.50935385 229.614872,6.5832 225.641235,6.55366154 C223.95244,6.53889231 222.046901,6.66627692 220.692252,6.34689231 C220.601942,6.11796923 221.324421,6.01827692 222.092056,6.01089231 C224.882632,5.98135385 227.673209,5.95735385 230.454754,5.97396923 C233.615601,5.98873846 236.758386,5.98689231 239.910203,5.86873846 C239.928265,5.5752 238.681988,5.55858462 237.88726,5.5752 C232.459634,5.68596923 228.178944,5.27981538 225.415461,4.54135385 C223.257054,4.17766154 220.800624,4.48043077 219.202138,4.05581538 C220.908996,3.69581538 223.13062,3.86935385 224.900694,3.66996923 C227.77255,4.10566154 230.843087,4.34935385 234.392267,4.17396923 C241.996362,4.46196923 249.410806,4.00596923 256.91556,3.92843077 C259.715168,3.89889231 262.406403,3.84166154 265.19698,3.96904615 C269.441546,4.16843077 273.857701,4.13335385 278.057112,4.46750769 C280.152302,4.63366154 282.870631,4.6152 285.146441,4.52104615 C289.083953,4.36043077 293.057589,4.3752 297.004133,4.30135385 C298.394906,4.2792 299.731492,4.23858462 301.040986,4.1112 C303.53354,3.86935385 305.98997,3.92843077 308.446399,4.19243077 C310.73124,4.43796923 313.250887,4.56166154 315.264798,4.60966154 C317.567701,4.53396923 316.357548,4.12781538 316.818129,4.09273846 C319.247466,3.78073846 321.10785,3.6552 323.166916,3.66812308 C333.426123,3.72535385 343.757577,3.43550769 353.863257,3.81212308 C354.116125,4.14258462 353.303336,4.17027692 352.535701,4.19243077 C347.613811,4.35304615 342.700951,4.45827692 337.688751,4.46935385 C332.342404,4.47858462 327.005088,4.61889231 321.685833,4.70196923 C320.593083,4.83858462 321.487152,5.09704615 320.349247,5.31489231 C316.10468,5.18935385 311.399534,5.10627692 306.549891,5.1672 C307.669734,5.45335385 309.773955,5.24104615 310.722209,5.54012308 C310.839612,5.74135385 310.27066,5.84473846 309.403685,5.85581538 C306.035125,5.90381538 302.62141,6.02012308 299.948236,5.40350769 C299.16254,5.22073846 297.871108,5.16904615 296.642893,5.16350769 C291.675848,5.13950769 286.681709,5.03243077 281.804974,5.33704615 C281.326331,5.81704615 279.294358,5.84658462 277.361726,5.90750769 C277.668779,6.13089231 277.957771,6.3432 278.255794,6.55366154 C278.030019,6.62012308 277.235292,6.51304615 277.343664,6.6792 C277.632655,6.63304615 277.921647,6.58873846 278.201608,6.54443077 C279.845248,6.71981538 281.633385,6.75673846 283.430552,6.74381538 C285.905044,6.72166154 288.027327,6.93950769 290.248951,7.06504615 C290.050269,7.38996923 288.957519,7.41766154 288.090544,7.45458462 C286.934577,7.49889231 285.724424,7.51181538 284.532333,7.51366154 C277.163044,7.53027692 269.875033,7.34012308 262.587023,7.13889231 C259.859663,7.06504615 257.18649,7.08535385 253.167699,7.31796923 C256.743971,7.44535385 259.001719,7.50443077 261.19625,7.60966154 C263.372719,7.71489231 265.558219,7.70566154 267.734688,7.70566154 C277.903585,7.72043077 288.081513,7.65766154 298.223317,7.75181538 C312.36585,7.88104615 326.517414,7.89950769 340.614792,7.73704615 C354.134187,7.58012308 367.662613,7.62996923 381.172977,7.43427692 C388.686762,7.32350769 396.281826,7.39366154 403.831735,7.42873846 C406.008204,7.43796923 408.175642,7.43981538 410.361142,7.42135385 C414.343809,7.39181538 418.326477,7.40473846 422.309144,7.40104615 C437.625706,7.38812308 452.96033,7.43796923 468.285924,7.25704615 C475.041105,7.17766154 481.832411,7.20535385 488.596624,7.20535385 C510.514841,7.20166154 532.424028,7.23858462 554.333214,7.19612308 C560.682001,7.18504615 567.030788,7.02073846 573.397637,7.0392 C576.79329,7.05027692 580.16185,7.03550769 583.512348,7.18135385 C585.44498,7.26258462 587.476954,7.27735385 589.454741,7.26258462 C595.189421,7.22196923 600.915069,7.14258462 606.65878,7.09089231 C609.232613,7.06689231 611.797415,7.0392 614.371247,7.17766154 C617.685621,7.35304615 621.153522,7.31981538 624.494989,7.24966154 C628.179634,7.17396923 631.891371,7.09643077 635.603109,6.95612308 C644.191582,6.63304615 652.942613,6.47981538 661.729768,6.72166154 C665.080266,6.81396923 668.466888,6.87673846 671.844479,6.88596923 C681.995314,6.91366154 692.146149,6.90996923 702.296984,6.91550769 C714.931341,6.44104615 724.142953,6.71427692 733.264255,6.62381538 C741.202496,6.54443077 749.122676,6.41335385 757.042856,6.29889231 C758.433629,6.27858462 759.81537,6.17889231 761.188081,6.18812308 C767.193691,6.23612308 773.099959,5.99796923 779.051383,5.95366154 C790.981323,5.86504615 802.911263,5.83550769 814.850235,5.7912 C822.219524,5.76166154 829.588813,5.76350769 836.958103,5.73581538 C838.944921,5.72843077 840.904646,5.64904615 842.891464,5.61950769 C844.869251,5.59181538 846.982504,5.48658462 848.815795,5.58627692 C852.608811,5.78750769 856.32958,5.63058462 860.077442,5.65643077 C867.789909,5.70812308 875.547531,5.38689231 883.241936,5.72843077 C884.587553,5.7912 886.023481,5.77089231 887.414254,5.77827692 C895.749859,5.8152 904.085465,5.71366154 912.42107,5.79489231 C920.783769,5.87427692 929.146467,5.88350769 937.518196,5.88535385 C954.640957,5.89089231 971.772748,5.93335385 988.895509,5.83550769 C995.858404,5.79489231 1002.75808,5.94996923 1009.70291,5.89458462 C1012.15934,5.87612308 1014.51643,5.95366154 1015.78077,6.50196923 C1018.39976,6.44473846 1021.00972,6.47612308 1023.28553,6.15673846 C1024.49568,5.98873846 1025.89548,5.97581538 1027.30432,5.96843077 C1031.0883,5.94812308 1034.86326,5.92043077 1038.65627,5.90935385 C1041.23914,5.90012308 1043.822,5.91489231 1046.37777,5.78750769 C1054.2528,5.94258462 1058.60573,5.7672 1062.94964,5.83735385 C1066.76072,5.90012308 1070.8066,5.69150769 1074.78024,5.6712 C1080.56008,5.64350769 1086.25863,5.65827692 1091.97525,5.93335385 C1095.84051,6.11981538 1099.87737,6.11796923 1103.67941,5.75427692 C1105.14244,5.61396923 1106.69577,5.50689231 1108.31231,5.60104615 C1111.28351,5.77273846 1114.19149,5.6952 1117.17172,5.59550769 C1119.70943,5.51243077 1122.34648,5.50135385 1124.92031,5.51981538 C1129.70673,5.55858462 1134.45704,5.51243077 1138.73773,5.39981538 C1140.86904,5.43858462 1140.79679,5.86135385 1141.89857,5.94996923 C1144.13826,5.99243077 1143.03648,5.5512 1144.58981,5.40350769 C1149.00596,5.03243077 1154.262,5.24658462 1159.33742,5.10443077 C1173.37158,4.70750769 1187.57733,4.97889231 1201.62955,4.66689231 C1205.37741,4.58196923 1209.20655,4.62996923 1212.98151,4.62627692 C1225.33591,4.61150769 1237.64515,4.37889231 1249.98148,4.32350769 C1262.92289,4.26443077 1275.8914,4.28843077 1288.78765,4.12596923 C1301.13302,3.97273846 1313.44226,4.03366154 1325.7786,3.99304615 C1337.90722,3.95243077 1350.03584,4.02996923 1362.12834,3.76966154 C1364.70217,3.71427692 1367.31213,3.76596923 1369.89499,3.72166154 C1386.5662,3.42812308 1403.30063,3.71796923 1419.9899,3.52412308 C1430.32136,3.40412308 1440.64378,3.30812308 1450.97524,3.34135385 C1459.76239,3.37273846 1468.43214,3.06443077 1477.21027,3.11243077 C1483.78483,3.14935385 1490.3323,3.17335385 1496.89783,3.25089231 C1501.84681,3.30996923 1506.80483,3.18627692 1511.77187,3.17150769 C1518.75283,3.14935385 1525.71572,3.14935385 1532.68765,3.14196923 C1534.80993,3.14012308 1536.7245,3.20843077 1537.06768,3.80658462 C1535.92978,4.36227692 1533.47335,4.60596923 1530.61955,4.69458462 C1522.95224,4.93458462 1515.30299,5.19673846 1507.47312,5.12289231 C1501.31398,5.06381538 1495.12776,5.08227692 1489.0228,5.33704615 C1475.7924,5.11550769 1466.09312,5.29089231 1456.43899,5.24104615 C1449.90055,5.20781538 1443.34405,5.46812308 1436.81464,5.20043077 C1425.11951,5.49581538 1413.36116,5.21889231 1401.63893,5.47181538 C1394.54057,5.62504615 1387.29771,5.55673846 1380.12711,5.56043077 C1369.38023,5.56596923 1358.57916,5.4552 1347.85937,5.56227692 C1337.70854,5.66566154 1327.57576,5.67489231 1317.4159,5.70996923 C1314.22796,5.72289231 1311.04002,5.70812308 1307.84305,5.73212308 C1302.30705,5.78196923 1296.73493,5.87612308 1291.17184,5.90935385 C1282.43887,5.96289231 1273.66977,5.94443077 1264.95487,6.01273846 C1256.58314,6.0792 1248.24753,6.09581538 1239.89386,6.11243077 C1232.30783,6.1272 1224.73083,6.11427692 1217.17189,6.1752 C1211.2024,6.2232 1205.25098,6.33027692 1199.32665,6.47058462 C1192.39988,6.63489231 1185.45505,6.61273846 1178.51021,6.64966154 C1172.73941,6.68104615 1166.98667,6.7752 1161.22489,6.7992 C1140.34524,6.88043077 1119.53784,7.32904615 1098.62206,7.22750769 C1091.86688,7.19427692 1085.0846,7.29396923 1078.32039,7.25704615 C1070.72533,7.21827692 1063.21154,7.41950769 1055.66163,7.44535385 C1049.11416,7.46750769 1042.58476,7.57089231 1036.01922,7.56350769 C1031.4947,7.55796923 1026.92502,7.74812308 1022.38243,7.59673846 C1017.82178,7.44904615 1013.25209,7.44904615 1008.67338,7.46381538 C1005.90087,7.47489231 1003.11932,7.55981538 1000.35584,7.5672 C988.81423,7.58935385 977.272622,7.59304615 965.731015,7.60966154 C959.562848,7.61704615 953.421773,7.60781538 947.271668,7.43243077 C942.566521,7.29950769 937.771064,7.3032 933.047856,7.55243077 C931.340998,7.64104615 929.489645,7.61889231 927.710539,7.62073846 C921.135977,7.62627692 914.552384,7.55243077 908.004915,7.63181538 C900.455006,7.72596923 892.923159,7.85704615 885.346157,7.87735385 C884.289531,7.8792 882.907789,7.79981538 881.959535,8.10443077 C886.420845,8.59735385 891.20727,8.53827692 895.858231,8.43304615 C907.806233,8.15796923 919.745205,8.38689231 931.684176,8.33889231 C937.346608,8.67304615 943.162566,8.39796923 948.897246,8.49396923 C951.823288,8.54196923 954.776422,8.34258462 957.792773,8.34443077 C968.548684,8.35181538 979.304596,8.32412308 990.060507,8.3112 C992.45372,8.30750769 994.810809,8.29089231 997.19499,8.20227692 C999.127623,8.13212308 1001.23184,8.09889231 1003.12835,8.17643077 C1009.08881,8.42196923 1015.0312,8.30566154 1020.98262,8.24843077 C1025.35362,8.20781538 1029.73365,8.17273846 1034.11368,8.14135385 C1043.65944,8.06935385 1053.16005,7.89950769 1062.66968,7.69458462 C1066.40851,7.61704615 1070.22862,7.64843077 1074.01261,7.64843077 C1083.17906,7.64843077 1092.34552,7.66873846 1101.51198,7.66689231 C1107.0841,7.66689231 1112.62913,7.66689231 1118.21028,7.54504615 C1123.72822,7.4232 1129.34549,7.50258462 1134.92665,7.49335385 C1150.45995,7.46750769 1165.95713,7.13889231 1181.5085,7.23489231 C1185.45505,7.26073846 1189.41965,7.11489231 1193.38426,7.09273846 C1200.13944,7.05396923 1206.91268,7.0392 1213.6769,7.03181538 C1221.23584,7.02443077 1228.82187,7.1352 1236.33565,7.00966154 C1242.7025,6.90443077 1249.04226,6.90258462 1255.40911,6.88966154 C1257.99197,6.88412308 1260.58387,6.88043077 1263.14867,7.00781538 C1277.02027,6.85273846 1287.37882,6.9192 1297.70124,6.86381538 C1317.19915,6.75489231 1336.71513,6.63489231 1356.22207,6.61827692 C1361.13493,6.61458462 1366.12004,6.33212308 1371.01483,6.64596923 C1375.9006,6.43735385 1380.93989,6.49827692 1385.81663,6.33396923 C1391.14492,6.15489231 1396.46417,6.04596923 1401.81955,6.03489231 C1418.15661,6.00350769 1434.50271,6.06073846 1450.81268,5.95550769 C1461.31572,5.88904615 1471.89101,5.95550769 1482.3489,5.67489231 C1490.67548,5.80781538 1496.03085,5.74135385 1501.41333,5.72843077 C1507.14801,5.71550769 1512.84656,5.51981538 1518.58124,5.5992 C1520.8119,5.62873846 1522.91612,5.54196923 1525.04743,5.42935385 C1529.09332,5.21889231 1533.14823,5.03058462 1537.21218,4.84412308 C1540.7162,4.68350769 1544.22926,4.54504615 1547.81456,4.80166154 C1556.44819,4.61704615 1561.72229,4.6872 1566.7074,4.3752 C1568.62197,4.25704615 1570.56363,4.2792 1572.60463,4.30135385 C1578.52896,4.36596923 1584.4533,4.48781538 1590.44084,4.30135385 C1594.36029,4.1832 1598.37908,4.19612308 1602.36175,4.1832 C1607.72616,4.16473846 1613.0996,4.17581538 1618.47304,4.18504615 C1621.65195,4.19243077 1624.6683,4.10196923 1627.5221,3.78073846 C1626.87186,3.47981538 1625.74299,3.57581538 1624.88505,3.57396923 C1618.5182,3.5592 1612.14232,3.48535385 1605.85675,3.27858462 C1604.67369,3.23981538 1603.03908,3.2712 1602.40691,3.1272 C1600.06788,2.57335385 1596.78963,2.60473846 1593.79134,2.44043077 C1593.24948,2.40904615 1592.7889,2.31489231 1592.31026,2.25766154 C1591.362,2.03612308 1591.98514,1.66135385 1589.88092,1.45827692 C1583.13477,1.78873846 1575.91901,1.31981538 1568.62197,1.34566154 C1567.466,1.07796923 1568.03495,0.819507692 1569.35348,0.808430769 C1573.16456,0.782584615 1576.78598,0.544430769 1580.54288,0.4872 C1587.42449,0.948738462 1591.66906,0.834276923 1595.78719,0.789969231 C1600.63683,0.740123077 1605.34198,0.830584615 1609.96585,1.10012308 C1612.68418,1.26073846 1615.43863,1.32904615 1618.23824,1.31981538 C1625.18307,1.29212308 1632.11887,1.33458462 1639.09983,1.15181538 C1643.53404,1.03550769 1648.2121,1.18689231 1652.70953,1.32535385 C1658.03782,1.49150769 1663.37513,1.54689231 1668.7576,1.53212308 C1672.94798,1.5192 1677.12933,1.5432 1681.32874,1.55058462 C1683.91161,1.55427692 1686.45835,1.52289231 1689.03218,1.41212308 C1693.99923,1.19612308 1699.0024,1.34566154 1703.81591,1.5912 C1710.70656,1.94012308 1717.69655,1.96412308 1724.55107,1.77396923 C1730.03288,1.62073846 1735.29795,1.74073846 1740.55399,1.91427692 C1745.43976,2.07489231 1750.34358,2.17458462 1755.25644,2.25950769 C1756.88202,2.2872 1758.47148,2.31489231 1759.30233,2.66750769 C1759.2662,3.07735385 1756.50272,2.96658462 1756.24985,3.37089231 C1756.62012,3.42443077 1757.06264,3.55181538 1757.50516,3.55181538 C1760.29574,3.5592 1763.14953,3.62196923 1765.83174,3.5112 C1771.60254,3.2712 1777.34625,3.44104615 1783.10802,3.42627692 C1785.86247,3.42073846 1788.55371,3.56473846 1791.39847,3.50196923 C1793.89103,3.44658462 1796.47389,3.6072 1799.05675,3.89704615 C1798.43362,4.36596923 1796.84416,4.68535385 1795.55273,5.01581538 C1794.24324,5.34996923 1792.21126,5.42196923 1790.1251,5.41643077 C1785.56445,5.40350769 1781.01283,5.4072 1775.48587,5.40350769 C1780.07361,5.88166154 1784.08337,5.80043077 1788.06604,5.70996923 C1795.36308,5.53827692 1802.61496,5.31489231 1809.92104,5.17273846 C1813.27154,5.10627692 1816.69428,5.09889231 1820.03575,5.2632 C1821.98644,5.3592 1823.96423,5.3832 1826.24004,5.25396923 C1825.62593,4.83673846 1823.17853,4.71489231 1822.91663,4.33458462 C1821.51683,4.10935385 1819.52098,4.4712 1818.40114,4.04473846 C1821.42652,3.35612308 1825.30082,4.14258462 1828.68744,3.76043077 C1829.02158,3.59427692 1829.4641,3.37458462 1829.91565,3.15858462 C1829.45507,3.10504615 1829.12996,3.0312 1828.85,3.04043077 C1826.72771,3.10873846 1824.70477,3.25643077 1822.48315,3.02750769 C1821.02013,2.87427692 1819.40358,3.08843077 1817.87734,3.15304615 C1816.54979,3.20843077 1815.53831,3.10873846 1815.03258,2.83366154 C1815.41188,2.47181538 1816.92909,2.44227692 1818.25664,2.42750769 C1824.37062,2.3592 1830.44848,2.10258462 1836.67987,2.38135385 C1840.29226,2.54566154 1844.1485,2.38689231 1847.89636,2.60104615 C1850.40697,2.7432 1852.98081,2.44966154 1855.13018,2.14504615 C1857.81239,1.77581538 1860.60296,1.47858462 1863.73672,1.31981538 C1866.40989,1.57643077 1865.67838,1.7832 1864.98299,1.97889231 C1862.48141,2.68043077 1858.89611,3.14012308 1855.6901,3.69027692 C1854.01937,3.98012308 1852.35767,4.25889231 1851.10236,4.62073846 C1851.77065,5.02873846 1853.44139,4.96043077 1854.62445,4.92535385 C1858.50777,4.8072 1861.93052,4.97335385 1865.2178,5.52166154 C1863.25807,6.31366154 1858.76967,6.40043077 1855.78944,6.89335385 C1850.40697,6.67735385 1850.72306,6.32104615 1850.43407,6.0312 C1849.64837,5.85396923 1848.81752,5.75796923 1847.74283,5.76166154 C1847.45384,5.80781538 1846.91198,5.84658462 1846.86682,5.90196923 C1846.26175,6.7992 1842.73063,7.23673846 1839.86781,7.7832 C1835.47874,7.92166154 1832.932,8.6952 1829.27445,9.02935385 C1828.37135,9.44658462 1829.61763,9.67550769 1830.7465,9.95796923 C1834.13313,10.0982769 1837.1856,9.84535385 1840.46385,9.53889231 C1839.50657,9.37827692 1838.82021,9.26012308 1837.9442,9.11058462 C1840.73478,8.18196923 1846.02694,8.35550769 1849.72062,7.84596923 C1850.71403,8.48473846 1850.61469,8.50689231 1844.28396,9.13643077 C1844.44652,9.40596923 1846.17144,9.50012308 1846.16241,9.80104615 C1846.16241,10.0816615 1846.50558,10.3659692 1846.65008,10.5819692 C1847.76992,11.0545846 1850.61469,11.1302769 1851.03011,11.6859692 C1850.64178,12.1235077 1848.92589,12.3930462 1847.00229,12.6293538 C1845.41283,12.8213538 1843.07381,12.8342769 1842.55904,13.3955077 C1846.21659,13.5912 1849.79287,13.5007385 1853.19755,13.3475077 C1858.29103,13.1204308 1863.02327,13.4435077 1867.86388,13.6115077 C1868.15287,13.6225846 1868.39671,13.7222769 1868.75795,13.7998154 C1869.40818,14.2059692 1868.33349,14.5050462 1866.74404,14.6970462 C1861.51509,15.3321231 1855.85266,15.4392 1850.01864,15.1272 C1849.28713,15.0884308 1848.50143,14.9979692 1847.96861,14.8890462 C1842.39648,13.7038154 1835.7587,13.8035077 1829.26542,14.3795077 C1825.1202,14.7524308 1820.95691,14.8779692 1816.62203,14.9961231 C1811.51049,15.1345846 1806.33573,15.2065846 1801.35966,15.5333538 C1796.22102,15.8730462 1790.82952,15.9505846 1785.4922,16.0687385 C1779.17954,16.2108923 1772.82172,16.3235077 1766.45487,16.3678154 C1753.12513,16.4656615 1739.77732,16.4804308 1726.46564,16.5912 C1716.12516,16.6779692 1705.7937,16.8182769 1695.43515,16.8441231 C1692.85229,16.8515077 1690.30555,16.9567385 1687.73172,17.0158154 C1683.5594,17.1062769 1679.39611,17.1339692 1675.21476,17.0250462 C1673.02023,16.9678154 1670.80764,16.9622769 1668.77567,17.1764308 C1664.2692,17.6490462 1659.49181,17.6139692 1654.7415,17.4404308 C1651.37294,17.3167385 1648.03148,17.2853538 1644.65389,17.2761231 C1637.69099,17.2539692 1630.67391,17.2816615 1623.72908,17.1708923 C1617.38029,17.0675077 1610.95926,17.1450462 1604.70981,16.9567385 C1599.50796,16.7998154 1594.4506,16.8533538 1589.321,16.9087385 C1573.41742,16.4785846 1561.74938,16.7315077 1550.05425,16.9992 C1542.15213,17.1838154 1534.23195,17.3001231 1526.30274,17.4219692 C1504.6103,17.7542769 1482.89076,17.4958154 1461.18929,17.5493538 C1451.64353,17.5715077 1442.07068,17.5050462 1432.56104,17.6361231 C1422.80757,17.7690462 1413.06313,17.7007385 1403.31869,17.8299692 C1391.20813,17.9924308 1379.03436,17.9019692 1366.93283,18.0552 C1356.60137,18.1862769 1346.24282,18.1899692 1335.91137,18.2545846 C1330.73661,18.2878154 1325.62507,18.4336615 1320.42322,18.4152 C1314.04734,18.3930462 1307.6534,18.3616615 1301.3317,18.4724308 C1286.42153,18.7327385 1271.47524,18.5592 1256.59217,18.8158154 C1253.04299,18.8785846 1249.43962,18.8416615 1245.87238,18.8287385 C1234.11403,18.7881231 1222.37374,18.9727385 1210.64248,19.0595077 C1204.91683,19.1019692 1199.18215,19.3419692 1193.42941,19.1259692 C1183.74819,19.4361231 1173.94053,19.1758154 1164.22318,19.3807385 C1160.51145,19.4601231 1156.7094,19.3493538 1152.95251,19.3308923 C1150.75798,19.3179692 1148.56344,19.3068923 1146.37794,19.3087385 C1141.20319,19.3161231 1136.05552,19.3272 1130.88076,19.3142769 C1124.33329,19.2976615 1117.76776,19.4453538 1111.21126,19.4767385 C1102.65891,19.5155077 1094.09753,19.4601231 1085.56325,19.5450462 C1077.46245,19.6225846 1069.37068,19.5302769 1061.25182,19.6465846 C1051.94086,19.7832 1042.53057,19.7130462 1033.16543,19.6668923 C1022.80688,19.6152 1012.48446,19.6428923 1002.14397,19.8108923 C996.19255,19.9087385 990.195972,19.8552 984.217455,19.8939692 C976.477895,19.9456615 968.738335,20.0268923 960.989744,20.0785846 C956.221381,20.1099692 951.434955,20.1081231 946.648529,20.1192 C939.324395,20.1376615 931.955106,20.0712 924.685157,20.1505846 C910.994174,20.2982769 897.258035,20.1801231 883.576082,20.4293538 C876.640281,20.5530462 869.641262,20.5161231 862.669336,20.5364308 C852.726214,20.5622769 842.76503,20.5788923 832.821908,20.5825846 C825.723549,20.5862769 818.616158,20.6545846 811.490706,20.5862769 C802.577117,20.4995077 793.600311,20.7081231 784.650598,20.7708923 C775.737009,20.8336615 766.805358,20.8908923 757.882738,20.9167385 C747.533222,20.9499692 737.165643,20.9462769 726.816126,20.9555077 C718.083157,20.9148923 712.926461,20.8225846 707.769765,21.0367385 C691.053399,21.1105846 679.114428,21.1530462 667.175456,21.1881231 C665.992396,21.1918154 664.782244,21.1641231 663.626277,21.1087385 C657.765163,20.8336615 651.759553,20.9130462 645.835223,20.8059692 C644.868907,20.7912 643.604568,20.7690462 642.936274,20.8724308 C639.360002,21.4262769 635.323148,21.2878154 631.42176,21.2065846 C629.209167,21.1622769 627.113977,21.1752 624.928477,21.2195077 C621.568948,21.2859692 618.164264,21.3136615 614.786673,21.2878154 C607.245795,21.2268923 599.695886,21.4576615 592.155007,21.2490462 C590.990009,21.2176615 589.743733,21.2619692 588.822571,21.0607385 C588.72323,20.8355077 589.545051,20.7838154 590.303654,20.7727385 C592.895549,20.7376615 595.478412,20.7247385 598.070307,20.7025846 C611.183307,20.1247385 620.340733,20.3148923 629.434942,20.3038154 C632.017805,20.3019692 634.600669,20.3222769 637.075161,20.1044308 C638.962638,19.9419692 640.994611,19.9992 642.981429,19.9955077 C644.552822,19.9918154 646.196462,20.0582769 647.514987,19.8072 C654.414665,19.7942769 661.314343,19.7795077 668.21402,19.7665846 C662.443217,19.6410462 656.681444,19.6355077 650.919671,19.6318154 C649.72758,19.6299692 648.517427,19.6373538 647.569173,19.8219692 C645.753944,19.6004308 643.740033,19.5745846 641.780307,19.6521231 C635.684388,19.9032 629.498159,19.7868923 623.366115,19.8256615 C614.840859,19.8773538 606.297541,19.8681231 597.772284,19.8145846 C591.99245,19.7776615 586.320987,20.0158154 580.550183,19.9973538 C577.624142,20.0028923 575.808912,19.9401231 574.038838,20.1192 C573.813063,20.2761231 573.578257,20.4275077 573.352482,20.5825846 C575.646354,20.9555077 578.960728,20.5253538 581.092042,20.9887385 C580.739834,21.0958154 580.559214,21.2047385 580.34247,21.2065846 C569.631714,21.3395077 558.957081,21.6422769 548.192139,21.4004308 C547.587063,21.3856615 547.090358,21.3284308 546.9278,21.0976615 C548.571441,20.7764308 550.820158,20.9352 552.825038,20.9130462 C555.001507,20.8872 557.187007,20.9093538 559.408631,20.7838154 C557.069604,20.7801231 554.730577,20.7690462 552.39155,20.7690462 C550.007369,20.7690462 547.605125,20.7616615 545.220943,20.7875077 C542.547769,20.8152 540.28099,21.0588923 538.447699,21.4502769 C533.769645,21.4742769 529.227056,21.6256615 524.738653,21.4521231 C524.043267,21.2767385 523.42916,21.1272 522.589277,20.9148923 C515.030337,20.9481231 507.299808,20.9832 499.460907,21.0182769 C500.662029,21.2472 503.560978,20.9130462 503.271986,21.5462769 C502.242453,21.7179692 501.023269,21.6939692 499.831178,21.6995077 C496.850951,21.7124308 493.870723,21.7678154 490.908558,21.7899692 C486.573682,21.8232 482.193651,21.7050462 477.849744,21.6238154 C476.296413,21.5961231 475.781647,21.0810462 473.550992,21.2601231 C470.841694,21.8232 470.841694,21.8232 466.840965,21.9247385 C464.673527,21.9801231 462.497058,22.0816615 460.32962,22.0705846 C456.030868,22.0502769 451.732116,21.9672 447.58689,21.9136615 C446.936659,21.6219692 448.03844,21.6053538 448.544175,21.5056615 C448.661578,21.4059692 448.444835,21.3616615 447.912006,21.3616615 C441.346475,21.3579692 434.780944,21.3505846 427.601305,21.3450462 C431.249826,21.9136615 435.629857,21.2232 438.555899,21.8582769 C437.860512,22.1573538 436.794855,22.1333538 435.864663,22.1333538 C430.120952,22.1259692 424.386272,22.1905846 418.633531,22.1721231 C413.901291,22.1573538 409.114865,22.3105846 404.337471,22.2902769 C399.758758,22.2718154 395.143921,22.1481231 390.655518,22.1776615 C385.706534,22.2072 380.721427,22.2644308 375.763412,22.2792 C364.014092,22.3124308 352.255741,22.2995077 340.515451,22.2995077 C339.13371,22.2995077 337.688751,22.3216615 336.487629,22.0595077 C335.909646,21.9468923 336.49666,21.7752 336.297978,21.5832 C329.768571,21.6662769 330.771011,22.0558154 328.973844,22.2145846 C317.685104,22.5432 305.80935,22.4767385 294.936036,22.4158154 C292.633133,22.2145846 293.048558,21.8822769 291.69391,21.6348923 C286.889422,21.4041231 281.552106,21.5795077 276.115449,21.5148923 C276.928238,21.7401231 278.752498,21.6367385 278.77056,22.0225846 C278.689281,22.2330462 277.731996,22.3179692 276.774711,22.3585846 C275.609713,22.4047385 274.39956,22.4176615 273.2165,22.4232 C265.485971,22.4601231 257.791566,22.5838154 250.033944,22.5801231 C242.493066,22.5782769 234.907033,22.5967385 227.357124,22.6225846 C225.442554,22.6281231 223.329302,22.6853538 221.974653,22.2736615 C222.561667,21.8176615 225.532864,21.8915077 225.731545,21.4927385 C227.619023,21.3875077 228.937547,21.4632 230.301227,21.5388923 C232.044209,21.6367385 233.841376,21.6939692 235.629512,21.6219692 C242.131827,21.3561231 248.579955,21.4004308 255.163548,21.5850462 C260.040283,21.7216615 265.070546,21.6182769 270.019529,21.6219692 C267.942401,20.9296615 263.174037,21.5684308 260.654391,20.9813538 C261.033692,20.8890462 261.19625,20.8262769 261.277529,20.8299692 C264.420314,20.9868923 267.517945,20.6841231 270.705885,20.8225846 C274.616304,20.9942769 278.608002,20.9610462 282.572608,20.8133538 C286.311438,20.6748923 290.113486,20.6804308 293.897472,20.7155077 C298.06979,20.7561231 302.224046,20.8041231 306.242837,20.4902769 C316.547199,20.5604308 324.494472,20.5567385 332.468838,20.4570462 C337.417821,20.3942769 342.41196,20.4662769 347.388036,20.4995077 C351.415858,20.5253538 355.34434,20.4644308 359.119295,20.1542769 C361.62991,19.9493538 364.239867,19.9512 366.732421,20.1099692 C369.649431,20.2945846 372.620627,20.3278154 375.600855,20.3315077 C391.730206,20.3573538 407.859557,20.4072 423.979878,20.3573538 C431.331105,20.3352 438.691363,20.3222769 446.051622,20.1838154 C453.962771,20.0361231 461.982291,20.0767385 469.938595,20.1173538 C476.341568,20.1505846 482.627139,19.9308923 489.021081,19.9235077 C488.957864,19.6133538 486.853643,19.7462769 486.889767,19.4527385 C487.070387,19.1868923 488.090889,19.1555077 489.084298,19.1555077 C493.870723,19.1536615 498.657149,19.1296615 503.434544,19.1739692 C507.624924,19.2164308 511.770149,19.1702769 515.942467,19.1001231 C519.455523,19.0410462 523.040827,19.0318154 526.544852,19.0982769 C531.132596,19.1850462 535.63003,19.1352 540.208742,19.0853538 C547.37935,19.0078154 554.432555,18.7419692 561.612193,18.6976615 C567.753267,18.6607385 573.867249,18.4890462 579.999292,18.3912 C590.104972,18.2305846 600.147435,17.8355077 610.352456,18.0736615 C619.392479,17.9684308 623.519642,17.6693538 627.908704,17.7542769 C626.743706,17.5770462 625.542584,17.6176615 624.350493,17.6268923 C621.171584,17.6508923 618.064923,17.6324308 614.886014,17.4773538 C611.436175,17.3056615 607.796685,17.2576615 604.256536,17.4958154 C603.145724,17.5715077 601.908479,17.6416615 600.761543,17.6195077 C595.026863,17.5032 589.319276,17.7616615 583.593627,17.6361231 C581.426189,17.5899692 579.123286,17.5567385 577.037127,17.6545846 C569.342722,18.0164308 561.548976,17.8465846 553.84554,17.8188923 C546.223383,17.7930462 538.754753,18.0293538 531.204844,18.0976615 C529.913412,18.1068923 528.667135,18.2952 527.520199,18.3912 C523.06792,18.3118154 518.714982,18.2361231 514.073052,18.1530462 C508.77186,18.9672 502.973963,18.5979692 497.311531,18.2527385 C492.823128,18.5610462 488.506314,18.9376615 483.882446,18.9007385 C481.073808,18.8767385 478.328387,18.9155077 475.555872,18.9468923 C469.198054,19.0244308 462.840236,19.1684308 456.500479,19.1315077 C449.149252,19.0853538 441.816087,19.1444308 434.47389,19.1407385 C427.899328,19.1352 421.36089,19.0687385 414.921793,18.7604308 C408.636223,18.9764308 405.412159,18.8952 402.034568,18.7512 C399.532983,18.6459692 396.86884,18.6884308 394.285977,18.6847385 C387.133431,18.6699692 379.971855,18.6625846 372.82834,18.6662769 C370.850553,18.6699692 368.872766,18.7308923 366.885947,18.7622769 C365.504206,18.7844308 364.041185,18.8748923 362.749753,18.8121231 C358.685807,18.6182769 354.919883,18.8675077 351.018495,19.0004308 C346.710712,19.1462769 342.285526,19.2773538 337.977743,19.2182769 C333.010697,19.1462769 328.106869,19.3345846 323.20304,19.2404308 C319.635798,19.1721231 316.113711,19.1499692 312.555501,19.1610462 C309.168879,19.1721231 305.782257,19.0816615 302.404666,19.1038154 C298.629711,19.1296615 294.872819,19.1352 291.106895,19.0539692 C282.825476,19.2404308 278.093236,19.2256615 273.315841,19.2127385 C270.931659,19.2053538 268.56554,19.2256615 266.163296,19.1795077 C263.8333,19.1333538 261.422025,19.0632 259.110091,19.2552 C257.150366,19.4176615 255.172579,19.3050462 253.194791,19.2736615 C248.218715,19.1942769 243.305855,19.2256615 238.356872,19.4379692 C232.306107,19.6964308 226.119878,19.6705846 220.03299,19.4379692 C218.03714,19.3604308 216.140632,19.3364308 214.135752,19.4028923 C204.048134,19.2035077 198.665663,19.2293538 193.301254,19.1721231 C189.724981,19.1352 186.16677,19.0558154 182.608559,18.9838154 C176.106245,18.8508923 169.585869,18.8324308 163.056462,18.7899692 C154.729888,18.7345846 146.394282,18.6256615 138.058677,18.6256615 C128.115555,18.6256615 118.154371,18.5702769 108.238342,18.7973538 C105.899315,18.8508923 103.497071,18.8305846 101.12192,18.8084308 C94.5744512,18.7493538 88.0179511,18.6921231 81.4795131,18.5924308 C77.126575,18.5278154 72.8097609,18.3672 68.3936059,18.4096615 C66.3796947,18.4299692 64.4470625,18.3192 62.758267,18.0699692 C59.1639323,17.5438154 55.090955,17.4533538 50.8734818,17.5419692 C42.7726821,17.3813538 39.3950912,17.3499692 36.0626552,17.5548923 C34.093899,17.6730462 32.1070808,17.6508923 30.1744485,17.5290462 C26.7878266,17.3167385 23.1122129,17.2816615 20.4300084,16.8976615 C19.1747005,16.5819692 20.3848534,16.3604308 20.3035745,16.1278154 C20.2403575,15.9339692 19.4727232,15.7475077 20.5112873,15.4798154 C20.9989609,15.4225846 21.8298121,15.2619692 22.7329113,15.2435077 C28.0702274,15.1308923 33.4797915,14.9518154 38.6635808,15.3690462 C40.9845457,15.5555077 43.2784177,15.6053538 45.6716305,15.5776615 C49.8258867,15.5259692 54.0072359,15.6385846 58.1524612,15.4539692 C63.9413269,15.1161231 63.2278786,14.9167385 62.3879964,14.7413538 C61.1055955,14.4681231 59.461955,14.2908923 57.6376947,14.2798154 C51.0902256,14.2465846 44.5156635,14.1653538 38.0223804,14.2668923 C34.7080064,14.3204308 31.7548721,14.3315077 28.7836758,14.0398154 C27.3929031,13.9050462 25.5957357,13.9401231 24.7197295,13.6188923 C24.6113576,13.3475077 25.4873638,13.2201231 26.4265869,13.1942769 C29.650651,13.1056615 32.6760333,12.8065846 37.363118,12.9542769 C35.132463,12.7548923 34.2925808,12.6792 33.01018,12.5647385 C34.3828907,12.2841231 35.9723453,12.2527385 37.390211,12.2545846 C43.4138825,12.2748923 49.2388723,11.9905846 55.1361099,11.8244308 C56.120488,11.7948923 57.1138971,11.7653538 58.0982752,11.7653538 C64.4560935,11.7598154 70.8139117,11.7579692 77.162699,11.7561231 C77.7948684,11.9056615 78.4541308,12.0201231 79.4294779,11.8281231 C78.9779283,11.8004308 78.6257196,11.7708923 78.26448,11.7616615 C75.3655316,11.5013538 73.3154965,11.5752 71.3557712,11.5696615 Z" id="Fill-1"></path>
            <path d="M163.771268,20.4804923 L163.735211,20.5377231 L164.158873,20.5174154 L163.771268,20.4804923 Z M146.004507,20.8663385 C144.165634,20.8903385 142.326761,20.9124923 140.496901,20.9383385 C142.371831,21.0214154 144.273803,21.1395692 145.968451,20.8571077 C147.104225,20.8534154 148.294085,20.9383385 149.357746,20.7851077 C149.12338,20.6374154 148.528451,20.6392615 147.969577,20.6466462 C147.176338,20.6595692 146.473239,20.7241846 146.004507,20.8663385 Z M184.314366,20.4546462 C185.900845,21.1395692 188.80338,21.3057231 192.129577,21.3592615 C196.258028,21.4257231 200.359437,21.5531077 204.190423,21.6491077 C205.389296,21.9906462 204.920563,22.2158769 203.541408,22.2749538 C199.286761,22.4614154 195.059155,22.6589538 190.606197,22.6404923 C181.871549,22.6017231 173.118873,22.6368 164.375211,22.6552615 C163.00507,22.6571077 161.63493,22.7346462 160.255775,22.7715692 C158.272676,22.8269538 156.325634,22.8084923 154.378592,22.6829538 C148.979155,22.3340308 140.95662,22.2048 135.629296,22.2952615 C133.267606,22.3377231 130.833803,22.3321846 128.508169,22.2509538 C123.956056,22.0958769 119.467042,22.0829538 114.887887,22.2288 C108.451831,22.4318769 103.782535,21.9057231 100.303099,20.6558769 C101.32169,20.3180308 103.016338,20.1924923 104.774085,20.1223385 C108.082254,19.9931077 111.381408,19.8546462 114.797746,19.8675692 C123.541408,19.9081846 132.267042,19.9211077 141.010704,19.9709538 C148.690704,20.0152615 156.442817,20.2958769 164.276056,19.9358769 C166.628732,20.4804923 169.341972,20.5949538 172.839437,20.4749538 C176.499155,20.3475692 180.339155,20.4509538 184.314366,20.4546462 Z" id="Fill-3"></path>
            <path d="M152.32338,5.82941538 C153.837746,5.01895385 152.251268,4.61095385 149.384789,4.32295385 C153.089577,3.8688 154,3.89649231 159.065915,4.59803077 C163.086197,4.57587692 167.187606,4.38941538 171.388169,4.44110769 C175.138028,4.48910769 178.905915,4.38756923 182.592676,4.65341538 C184.03493,4.7568 185.747606,4.69772308 187.334085,4.70510769 C193.698028,4.73464615 200.061972,4.76049231 206.416901,4.79372308 C208.59831,4.80295385 210.788732,4.80295385 212.375211,5.14818462 C212.24,5.37341538 211.834366,5.51556923 210.905915,5.52110769 C208.526197,5.53033846 206.146479,5.53033846 203.766761,5.52295385 C192.859718,5.49895385 181.943662,5.47126154 169.864789,5.44356923 C175.741972,5.84233846 186.162254,6.04172308 191.471549,5.86818462 C196.014648,5.72418462 200.575775,5.82941538 205.127887,5.76295385 C206.72338,5.74264615 208.300845,5.84418462 209.580845,6.05649231 C209.950423,6.11926154 209.986479,6.26326154 210.175775,6.3648 C208.886761,6.59003077 207.453521,6.53649231 206.101408,6.53833846 C199.151549,6.54018462 192.210704,6.53095385 185.269859,6.53464615 C184.089014,6.53649231 182.908169,6.59187692 181.727324,6.61587692 C180.537465,6.63987692 179.275493,6.72849231 178.184789,6.67310769 C172.343662,6.36295385 166.295211,6.59187692 160.418028,6.34633846 C158.119437,6.25218462 155.667606,6.25587692 153.296901,6.28172308 C145.589859,6.35741538 137.891831,6.46264615 130.193803,6.56233846 C118.096901,6.71741538 105.981972,6.75064615 93.8670423,6.68972308 C87.115493,6.65649231 80.3549296,6.69710769 73.6123944,6.55495385 C71.6833803,6.51249231 69.6912676,6.62510769 67.7171831,6.64541538 C62.9126761,6.69710769 58.216338,6.51064615 53.5290141,6.33526154 C45.8490141,6.0528 38.1239437,6.02141538 30.3988732,6.18018462 C27.7307042,6.23556923 25.2788732,6.23003077 23.016338,5.85710769 C23.0704225,5.73895385 22.9712676,5.60787692 23.2056338,5.51187692 C23.7915493,5.26818462 24.9904225,5.17218462 26.1802817,5.16664615 C30.3538028,5.15556923 34.5543662,5.11126154 38.691831,5.19249231 C47.3814085,5.36418462 56.0349296,5.60787692 64.7064789,5.81833846 C65.2923944,5.83126154 65.896338,5.83126154 66.5002817,5.82572308 C77.623662,5.69464615 88.7109859,6.01772308 99.8433803,5.93095385 C102.99831,5.90695385 106.171268,5.89956923 109.353239,6.02695385 C111.255211,6.10264615 113.337465,6.11926154 115.248451,6.05649231 C123.559437,5.78141538 131.924507,5.95495385 140.253521,5.89956923 C144.210704,5.87556923 148.068732,5.58387692 152.32338,5.82941538" id="Fill-5"></path>
            <path d="M1920.38652,10.5065863 C1920.51379,10.7528745 1920.00468,10.9860623 1918.64098,11.1196868 C1911.54974,11.8192502 1905.25853,12.801783 1895.34898,12.5895559 C1894.56712,12.5738354 1893.54889,12.5607349 1892.96705,12.6183769 C1882.312,13.6559315 1869.71141,13.1528747 1857.52902,13.5694686 C1853.5652,14.418377 1847.54674,14.6646652 1840.16457,14.4209971 C1837.54627,14.3371543 1834.63704,14.4367176 1831.85509,14.4314774 C1829.45498,14.4288574 1827.05487,14.4000364 1825.63662,14.0358442 C1825.50934,13.6480713 1827.72762,13.5668486 1829.50953,13.5380276 C1835.45526,13.4463245 1841.43736,13.399163 1847.52855,13.3310407 C1843.80111,12.9982896 1838.50995,13.2917394 1835.58254,12.6602983 C1834.6734,12.3799489 1835.16434,12.1205602 1837.54627,11.7432676 C1843.56473,11.6410842 1850.63779,11.4183768 1857.69267,11.426237 C1867.76587,11.4367174 1877.58451,11.1720885 1887.4577,10.9860623 C1892.31247,10.8943593 1896.33084,10.6061496 1900.22193,10.1292937 C1907.87684,9.19130235 1912.71343,9.3275469 1920.38652,10.5065863" id="Fill-7" transform="translate(1873.018387, 12.011302) rotate(1.000000) translate(-1873.018387, -12.011302) "></path>
            <path d="M462.072563,5.12344615 C460.702423,4.97390769 459.728901,4.90375385 459.440451,4.68590769 C459.584676,4.60836923 459.611718,4.51236923 459.864113,4.46990769 C461.95538,4.10621538 464.479324,4.0176 467.111437,4.00652308 C470.491718,3.99175385 473.862986,3.98252308 477.243268,3.96775385 C480.803831,3.95113846 484.364394,3.9456 487.942986,3.87913846 C492.03538,3.80344615 496.22693,3.93452308 500.373408,3.94929231 C509.306366,3.98436923 518.23031,3.99913846 527.163268,4.03236923 C528.253972,4.03606154 529.50693,3.97144615 530.516507,4.22806154 C528.542423,4.44590769 526.460169,4.56775385 524.305803,4.58067692 C521.132845,4.59913846 518.032,4.70436923 514.886085,4.78929231 C511.532845,4.87975385 508.278761,5.04406154 504.682141,5.18621538 C502.23031,4.94436923 499.553127,4.68590769 496.488338,4.68036923 C493.684958,4.67667692 490.854535,4.62498462 489.502423,5.18621538 C487.438197,5.28036923 486.753127,4.91667692 484.887211,4.85575385 C481.335662,5.25267692 477.153127,5.05513846 473.168901,4.89267692 C469.274817,4.73575385 465.714254,4.77083077 462.072563,5.12344615" id="Fill-9"></path>
            <path d="M149.523606,1.44018462 C149.33431,1.61003077 148.928676,1.75218462 148.063324,1.78726154 C145.53938,1.88695385 143.006423,2.01433846 140.455437,2.06049231 C132.748394,2.21003077 125.041352,2.11587692 117.352338,2.01618462 C116.559099,2.00695385 115.61262,1.89803077 115.01769,1.95710769 C110.961352,2.35403077 106.787831,2.01803077 102.695437,2.06787692 C99.6216338,2.10849231 96.8543099,1.88141538 94.2221972,1.58603077 C93.9517746,1.55649231 93.8976901,1.44941538 93.6272676,1.32941538 C96.8362817,1.07649231 100.144451,1.04141538 103.49769,1.03403077 C109.248676,1.02110769 115.044732,1.06910769 120.741634,0.936184615 C125.50107,0.823569231 130.224451,0.770030769 134.974873,0.823569231 C138.923042,0.867876923 142.871211,0.954646154 146.810366,1.03587692 C148.027268,1.06172308 149.063887,1.18172308 149.523606,1.44018462" id="Fill-11"></path>
            <path d="M827.538704,3.70190769 C828.32293,3.26252308 830.378141,3.18867692 832.271099,3.1296 C834.416451,3.06129231 836.633915,3.04098462 838.80631,3.05575385 C848.532507,3.1296 858.294761,3.07052308 867.966873,3.35483077 C869.075606,3.38621538 870.283493,3.36590769 871.067718,3.54129231 C870.932507,3.8256 869.995042,3.81636923 869.273915,3.82190769 C860.935887,3.89944615 852.597859,3.97698462 844.250817,3.86436923 C841.85307,3.83483077 839.509408,3.83298462 837.165746,3.97513846 C834.849127,4.11729231 832.442366,4.09329231 830.062648,4.02867692 C829.062085,4.00098462 828.133634,3.93636923 827.538704,3.70190769" id="Fill-13"></path>
            <path d="M65.1752113,1.44295385 C62.164507,1.88233846 58.8202817,2.21464615 54.9532394,1.83803077 C52.1588732,1.56664615 49.2653521,1.48910769 46.2907042,1.49095385 C43.8659155,1.4928 41.6664789,1.34695385 39.6383099,1.23987692 C38.5746479,0.826338462 39.223662,0.5808 40.9002817,0.547569231 C43.6405634,0.494030769 46.4619718,0.457107692 49.1661972,0.527261538 C52.348169,0.610338462 55.4039437,0.674953846 58.5588732,0.492184615 C60.1002817,0.405415385 61.7047887,0.523569231 63.1109859,0.697107692 C64.3278873,0.850338462 65.3194366,1.04049231 65.1752113,1.44295385" id="Fill-15"></path>
            <path d="M1787.02851,1.59618462 C1790.52597,0.514338462 1795.88935,0.654646154 1800.61273,0.726646154 C1804.25442,0.782030769 1808.56315,0.905723077 1810.45611,1.74941538 C1809.744,2.11495385 1808.44597,2.21649231 1807.01273,2.23310769 C1800.64879,2.30510769 1794.34794,2.13526154 1788.14625,1.87310769 C1787.84879,1.86203077 1787.65949,1.7568 1787.02851,1.59618462" id="Fill-17"></path>
            <path d="M1554.07031,0.185353846 C1555.64777,0.894276923 1560.11876,0.508430769 1562.75989,1.06227692 C1561.3627,1.47212308 1559.37961,1.51273846 1557.51369,1.51458462 C1552.95256,1.51458462 1548.37341,1.48689231 1543.83932,1.43889231 C1541.46862,1.41489231 1539.11594,1.32996923 1536.77228,1.25981538 C1535.79876,1.22843077 1534.78918,1.18596923 1534.35651,0.864738462 C1540.44101,0.201969231 1547.10242,0.213046154 1554.07031,0.185353846" id="Fill-19"></path>
            <path d="M1884.76642,6.65593846 C1889.37262,6.91070769 1892.73487,6.3864 1896.0791,6.00793846 C1899.06276,5.66824615 1902.23572,5.45409231 1905.30051,5.17163077 C1906.20192,5.08670769 1907.15741,5.05347692 1907.97769,5.20116923 C1908.2391,5.53716923 1907.01318,5.66086154 1906.08473,5.77163077 C1901.45149,6.31993846 1896.77318,6.84978462 1892.07685,7.38147692 C1890.21093,7.59193846 1888.51628,7.82455385 1886.01037,7.62147692 C1884.82952,7.52732308 1883.0267,7.76178462 1881.51234,7.84116923 C1880.70107,7.88178462 1879.94389,7.87070769 1879.30389,7.61224615 C1880.94445,7.32424615 1882.67515,7.01963077 1884.76642,6.65593846" id="Fill-21"></path>
            <path d="M56.5135775,19.8142154 C59.6234366,19.1957538 62.9135775,19.3545231 65.9513239,19.3508308 C74.8482254,19.3360615 80.1034366,19.5354462 83.0330141,19.9545231 C81.9783662,20.2388308 80.355831,20.4012923 78.8775211,20.3292923 C75.7135775,20.1742154 72.5316056,20.3699077 69.4397746,20.2388308 C67.0510423,20.1372923 64.7614648,20.1003692 62.3817465,20.2388308 C60.2904789,20.3643692 58.5507606,20.2148308 56.5135775,19.8142154" id="Fill-23"></path>
            <path d="M152.169239,7.22935385 C154.603042,6.89335385 156.69431,6.86012308 157.965296,6.56843077 C171.387268,6.93212308 171.387268,6.93212308 174.091493,7.51366154 C171.982197,8.01950769 168.85431,7.89027692 166.456563,7.87550769 C161.886423,7.84596923 157.145014,7.77950769 152.169239,7.22935385" id="Fill-25"></path>
            <path d="M19.0267042,1.04363077 C22.4340282,0.439938462 26.3461408,0.316246154 30.5737465,0.419630769 C32.3134648,0.460246154 33.5844507,0.591323077 33.8638873,0.966092308 C33.8638873,1.20793846 33.2058592,1.36486154 32.331493,1.45901538 C28.1489577,1.89655385 23.9664225,1.81716923 19.8830423,1.3944 C19.4864225,1.35378462 19.3872676,1.19316923 19.0267042,1.04363077" id="Fill-27"></path>
            <path d="M595.720789,3.27193846 C595.098817,3.66516923 593.575437,3.58393846 592.656,3.71316923 C591.835718,3.82578462 591.051493,3.94393846 590.393465,4.03993846 C588.212056,4.08609231 587.454873,3.59501538 585.444732,3.60793846 C583.696,3.61901538 581.911211,3.54147692 580.532056,3.28855385 C580.261634,2.99132308 581.289239,2.91747692 582.208676,2.8824 C586.084732,2.7384 590.871211,2.8824 595.720789,3.27193846" id="Fill-29"></path>
            <path d="M407.745577,4.74941538 C414.668394,4.52233846 421.591211,4.30633846 429.099944,4.61649231 C427.666704,5.10018462 426.161352,4.9968 424.917408,5.00418462 C421.582197,5.02449231 418.237972,4.98572308 414.947831,5.19618462 C413.072901,5.31433846 411.035718,5.24603077 409.088676,5.1648 C408.232338,5.12972308 407.790648,5.00418462 407.745577,4.74941538" id="Fill-31"></path>
            <path d="M14.2249014,3.08436923 C9.67278873,3.60313846 7.04969014,3.69729231 2.43447887,3.50898462 C1.56912676,3.24498462 2.07391549,3.04929231 3.24574648,2.91083077 C5.53532394,2.63944615 8.1223662,2.55083077 10.6463099,2.49544615 C12.4220845,2.45483077 14.1527887,2.60990769 14.2249014,3.08436923" id="Fill-33"></path>
            <path d="M791.007324,3.5496 C796.415775,3.56806154 801.652958,3.22652308 806.790986,3.71575385 C806.60169,3.83390769 806.55662,3.96129231 806.367324,3.97052308 C801.68,4.21236923 796.974648,4.10713846 792.27831,3.97421538 C791.710423,3.96129231 791.19662,3.87821538 791.007324,3.5496" id="Fill-36"></path>
            <path d="M339.268282,5.43729231 C342.946028,4.77636923 347.110535,4.67113846 352.059268,4.94067692 C351.635606,5.32467692 350.662085,5.59606154 349.075606,5.62744615 C345.956732,5.68652308 342.801803,5.81021538 339.68293,5.59975385 C339.556732,5.59052308 339.502648,5.53144615 339.268282,5.43729231" id="Fill-38"></path>
            <path d="M49.8143099,4.03366154 C46.3709296,3.75489231 42.900507,3.47058462 39.0064225,3.15489231 C42.8644507,2.8152 47.1551549,2.78935385 49.4807887,3.04227692 C51.3106479,3.23981538 51.4098028,3.47981538 49.8143099,4.03366154" id="Fill-40"></path>
            <path d="M95.9231549,4.33735385 C99.4116056,4.1232 108.22738,4.12504615 111.842028,4.34473846 C111.932169,4.47766154 111.679775,4.6032 111.093859,4.62166154 C106.415549,4.78043077 101.710197,4.77858462 97.0048451,4.68627692 C96.0854085,4.66966154 95.7609014,4.52381538 95.9231549,4.33735385" id="Fill-42"></path>
            <path d="M289.049014,2.70756923 C294.592676,2.44726154 300.046197,2.62449231 305.310423,2.5968 C306.238873,2.92541538 305.499718,3.02695385 304.436056,3.08603077 C304.057465,3.10633846 303.633803,3.1248 303.255211,3.11187692 C299.505352,2.98633846 295.791549,3.02510769 292.050704,3.15987692 C290.590423,3.21341538 290.392113,3.15803077 289.049014,2.70756923" id="Fill-44"></path>
            <path d="M351.192113,3.02492308 C355.032113,2.26615385 358.917183,2.65569231 361.981972,2.22923077 C362.405634,2.44153846 362.766197,2.62061538 363.243944,2.86061538 C359.557183,3.39046154 355.942535,3.15784615 351.192113,3.02492308" id="Fill-46"></path>
            <path d="M125.901296,4.28603077 C122.061296,5.1408 118.383549,4.38941538 114.976225,4.50203077 C118.266366,3.99064615 121.664676,3.81710769 125.901296,4.28603077" id="Fill-48"></path>
            <path d="M286.377239,2.8248 C280.346817,3.28818462 275.055549,3.2808 272.504563,2.80633846 C272.729915,2.74910769 272.937239,2.65310769 273.207662,2.64387692 C277.354141,2.51464615 281.509634,2.59956923 285.656113,2.65864615 C285.917521,2.66418462 286.142873,2.76756923 286.377239,2.8248" id="Fill-50"></path>
            <path d="M1876.01645,4.17341538 C1874.94377,3.98326154 1874.87166,3.78756923 1875.52969,3.61218462 C1877.21532,3.16172308 1879.16237,2.78141538 1882.3173,2.76295385 C1882.47054,2.9088 1882.88518,3.06203077 1882.66885,3.12110769 C1880.92011,3.60110769 1878.8649,4.01464615 1876.01645,4.17341538" id="Fill-52"></path>
            <path d="M28.7754366,4.04621538 C26.1974085,4.21421538 23.7545915,4.40990769 21.347831,3.9816 C21.564169,3.44436923 23.4390986,3.39821538 25.1427606,3.40006154 C26.900507,3.40375385 28.5681127,3.52190769 28.7754366,4.04621538" id="Fill-54"></path>
            <path d="M423.101972,19.8053538 C418.180282,20.4588923 414.457465,19.6539692 410.725634,19.9179692 C410.374085,19.5838154 410.878873,19.4638154 411.771268,19.5044308 C415.205634,19.6558154 418.811268,19.4619692 423.101972,19.8053538" id="Fill-56"></path>
            <path d="M686.698141,3.85421538 C688.942648,3.33175385 689.970254,3.33175385 696.676732,3.7896 C696.784901,3.93175385 696.325183,4.02221538 695.81138,4.03329231 C692.755606,4.1016 689.726873,4.09975385 686.698141,3.85421538" id="Fill-58"></path>
            <path d="M393.815211,4.74406154 C396.537465,4.34713846 398.818028,4.43944615 401.305915,4.86406154 C397.141408,5.26836923 396.952113,5.26467692 393.815211,4.74406154" id="Fill-60"></path>
            <path d="M138.344338,4.08775385 C141.030535,3.55790769 143.464338,3.82375385 145.85307,4.08775385 C146.078423,4.43113846 145.104901,4.49390769 144.158423,4.50867692 C142.031099,4.53821538 139.858704,4.5696 138.344338,4.08775385" id="Fill-62"></path>
            <path d="M1766.0338,2.76443077 C1768.31437,2.24935385 1768.89127,2.23643077 1773.95718,2.60381538 C1769.50423,2.94904615 1769.50423,2.94904615 1766.0338,2.76443077" id="Fill-64"></path>
            <path d="M566.046423,3.92916923 C568.417127,3.74270769 570.769803,3.74086154 573.807549,3.94763077 C571.58107,4.43316923 569.426704,4.34086154 567.362479,4.2984 C566.46107,4.27993846 566.055437,4.14516923 566.046423,3.92916923" id="Fill-66"></path>
            <path d="M1302.61792,1.55649231 C1300.42749,1.98664615 1300.02186,1.98664615 1294.77566,1.61003077 C1294.62242,1.38664615 1295.39763,1.31095385 1296.16383,1.32941538 C1298.26411,1.38295385 1300.32834,1.47341538 1302.61792,1.55649231" id="Fill-68"></path>
            <path d="M323.353014,6.99046154 C323.686535,6.76892308 324.524845,6.68030769 325.552451,6.66184615 C326.78738,6.64153846 327.860056,6.71169231 328.50907,6.95169231 C325.840901,7.47046154 325.534423,7.47415385 323.353014,6.99046154" id="Fill-70"></path>
            <path d="M744.017803,2.88350769 C741.665127,3.40596923 739.763155,3.16412308 737.455549,2.88166154 C739.86231,2.36658462 741.755268,2.61027692 744.017803,2.88350769" id="Fill-72"></path>
            <path d="M439.317408,4.70695385 C441.57093,4.3728 443.29262,4.35987692 444.969239,4.60172308 C445.185577,4.82695385 444.888113,4.95433846 443.950648,4.98572308 C442.445296,5.03372308 440.921915,5.07987692 439.317408,4.70695385" id="Fill-74"></path>
            <path d="M433.964845,19.9630154 C432.198085,20.2011692 430.440338,20.2288615 428.520338,20.0147077 C430.864,19.4867077 432.333296,19.4737846 433.964845,19.9630154" id="Fill-76"></path>
            <path d="M1739.22051,0.397292308 C1741.98783,0.3696 1743.34896,0.592984615 1744.28642,0.978830769 C1741.04135,1.27975385 1740.41938,1.21329231 1739.22051,0.397292308" id="Fill-81"></path>
            <path d="M354.053183,5.03335385 C356.568113,4.62535385 358.154592,4.61612308 359.912338,4.96135385 C358.21769,5.46166154 356.586141,5.2752 354.053183,5.03335385" id="Fill-83"></path>
            <path d="M1693.10265,0.1512 C1694.80631,-0.0924923077 1696.32969,-0.0315692308 1697.77194,0.265661538 C1694.82434,0.729046154 1693.91392,0.7032 1693.10265,0.1512" id="Fill-85"></path>
            <path d="M774.982085,1.6296 C772.277859,2.19452308 772.277859,2.19452308 768.96969,1.71452308 C770.655324,1.34529231 772.476169,1.50221538 774.982085,1.6296" id="Fill-87"></path>
            <path d="M229.483944,1.88104615 C232.656901,1.85150769 232.656901,1.85150769 233.278873,2.32043077 C230.935211,2.45150769 230.935211,2.45150769 229.483944,1.88104615" id="Fill-89"></path>
            <path d="M650.536338,3.80916923 C652.564507,3.35132308 654.322254,3.62455385 657.378028,3.81101538 C654.313239,3.99563077 652.555493,4.2744 650.536338,3.80916923" id="Fill-91"></path>
            <path d="M220.742986,5.23532308 C222.888338,4.85316923 224.285521,5.03778462 225.754817,5.27963077 C225.250028,5.53624615 224.474817,5.54916923 223.717634,5.55655385 C222.71707,5.56578462 221.779606,5.53624615 220.742986,5.23532308" id="Fill-93"></path>
            <path d="M771.363831,3.82541538 C774.311437,3.6648 774.311437,3.6648 775.230873,4.13741538 C773.572282,4.37926154 772.409465,4.29433846 771.363831,3.82541538" id="Fill-95"></path>
            <path d="M165.408225,1.81255385 C167.643718,1.51347692 169.076958,1.59101538 170.618366,1.84578462 C168.319775,2.09132308 168.319775,2.09132308 165.408225,1.81255385" id="Fill-97"></path>
            <path d="M1354.43177,1.14812308 C1352.21431,1.38443077 1350.77206,1.21273846 1348.38332,1.04843077 C1351.06051,0.760430769 1352.62896,0.736430769 1354.43177,1.14812308" id="Fill-99"></path>
            <path d="M333.357746,6.95981538 C334.502535,6.7032 335.674366,6.62012308 337.179718,6.87304615 C335.124507,7.24781538 335.124507,7.24781538 333.357746,6.95981538" id="Fill-101"></path>
            <path d="M435.641465,4.8576 C433.856676,5.09390769 432.504563,5.01636923 431.323718,4.68036923 C433.414986,4.43113846 433.414986,4.43113846 435.641465,4.8576" id="Fill-103"></path>
            <path d="M262.692732,20.3254154 C261.214423,20.5044923 260.051606,20.5192615 258.879775,20.1832615 C260.556394,19.9617231 261.683155,19.9931077 262.692732,20.3254154" id="Fill-105"></path>
            <path d="M628.388732,3.68381538 C626.189296,4.19335385 625.125634,4.00504615 623.710423,3.79458462 C625.062535,3.62104615 626.24338,3.7152 628.388732,3.68381538" id="Fill-107"></path>
            <path d="M317.485746,7.03366154 C317.539831,7.17766154 317.179268,7.28289231 316.548282,7.27735385 C316.061521,7.27181538 315.412507,7.20904615 315.142085,7.12966154 C314.799549,7.02627692 315.142085,6.90258462 315.718986,6.85458462 C316.584338,6.78443077 317.179268,6.86381538 317.485746,7.03366154" id="Fill-109"></path>
            <path d="M382.252845,4.74498462 C382.865803,4.77452308 383.379606,4.84652308 383.307493,4.97944615 C383.23538,5.11421538 382.631437,5.15298462 382.045521,5.14190769 C381.396507,5.12898462 380.963831,5.03667692 381.017915,4.9056 C381.090028,4.77267692 381.639887,4.73390769 382.252845,4.74498462" id="Fill-111"></path>
            <path d="M333.089127,5.46701538 C333.287437,5.20486154 334.161803,5.14393846 335.189408,5.20670769 C335.76631,5.24178462 335.937577,5.39870769 335.52293,5.49655385 C334.720676,5.68116923 333.864338,5.6424 333.089127,5.46701538" id="Fill-113"></path>
            <path d="M1663.67437,0.228738462 C1664.90028,0.0755076923 1665.61239,0.119815385 1666.43268,0.228738462 C1665.45014,0.420738462 1664.68394,0.413353846 1663.67437,0.228738462" id="Fill-115"></path>
            <path d="M586.605746,20.8860923 C586.740958,20.9064 586.876169,20.9248615 587.002366,20.9451692 C586.81307,20.9913231 586.641803,21.0374769 586.425465,21.0762462 C586.407437,21.0799385 586.182085,21.0393231 586.046873,21.0208615 C586.227155,20.9747077 586.416451,20.9285538 586.605746,20.8860923" id="Fill-117"></path>
            <path d="M403.947042,19.7529231 C404.154366,19.7990769 404.541972,19.8470769 404.587042,19.9043077 C404.641127,19.9929231 404.262535,20.0316923 403.793803,20.0003077 C403.631549,19.9873846 403.433239,19.956 403.379155,19.9227692 C403.225915,19.8286154 403.424225,19.7695385 403.947042,19.7529231" id="Fill-119"></path>
            <path d="M312.600113,6.73883077 C312.338704,6.69636923 311.915042,6.66498462 311.84293,6.61144615 C311.716732,6.53021538 312.050254,6.47667692 312.491944,6.49513846 C312.663211,6.50252308 312.852507,6.53021538 312.942648,6.55790769 C313.195042,6.64467692 313.068845,6.7056 312.600113,6.73883077" id="Fill-121"></path>
            <path d="M750.677408,4.0752 C750.488113,4.12689231 750.307831,4.22473846 750.064451,4.23396923 C749.406423,4.26166154 748.901634,4.18966154 749.054873,4.04196923 C749.117972,3.98843077 749.631775,3.91827692 749.920225,3.92196923 C750.181634,3.92750769 750.425014,4.01981538 750.677408,4.0752" id="Fill-123"></path>
            <path d="M782.274479,1.57181538 C780.606873,1.90412308 779.786592,1.88012308 778.858141,1.73427692 C779.480113,1.42966154 780.471662,1.58658462 782.274479,1.57181538" id="Fill-125"></path>
            <path d="M302.715268,6.52172308 C303.012732,6.54941538 303.42738,6.55864615 303.58062,6.60295385 C303.824,6.6768 303.607662,6.76172308 303.156958,6.76726154 C302.841465,6.7728 302.516958,6.7248 302.192451,6.69895385 C302.363718,6.64172308 302.534986,6.5808 302.715268,6.52172308" id="Fill-127"></path>
            <path d="M1364.14085,1.04806154 C1364.56451,1.03883077 1364.86197,1.08498462 1364.72676,1.15883077 C1364.63662,1.20683077 1364.24901,1.23821538 1363.95155,1.26036923 C1363.85239,1.26775385 1363.67211,1.22344615 1363.5369,1.20129231 C1363.73521,1.15144615 1363.93352,1.09975385 1364.14085,1.04806154" id="Fill-129"></path>
            <path d="M1671.21825,0.258461538 C1671.06501,0.276923077 1670.91177,0.312 1670.75854,0.312 C1670.6053,0.308307692 1670.4791,0.269538462 1670.34389,0.247384615 C1670.65938,0.169846154 1670.93882,0.173538462 1671.21825,0.258461538" id="Fill-131"></path>
            <polygon id="Fill-133" points="357.300958 1.70252308 357.066592 1.78190769 356.922366 1.69513846"></polygon>
            <path d="M270.637746,2.10184615 C270.376338,2.07230769 270.105915,2.04276923 269.844507,2.01138462 C269.96169,1.98738462 270.132958,1.93938462 270.20507,1.94492308 C270.493521,1.96338462 270.745915,2.00030769 271.016338,2.02984615 C270.890141,2.05384615 270.763944,2.07784615 270.637746,2.10184615" id="Fill-135"></path>
            <path d="M672.939042,3.26824615 L673.344676,3.30701538 C673.15538,3.33655385 672.95707,3.36609231 672.767775,3.39378462 C672.704676,3.36793846 672.542423,3.33655385 672.578479,3.31993846 C672.623549,3.29778462 672.812845,3.28486154 672.939042,3.26824615" id="Fill-137"></path>
            <polygon id="Fill-139" points="370.127099 4.96393846 369.982873 4.87532308 370.370479 4.8864"></polygon>
            <path d="M329.241915,5.03427692 C329.09769,5.04535385 328.935437,5.0712 328.818254,5.06381538 C328.358535,5.03796923 328.313465,4.98996923 328.70107,4.94012308 C328.800225,4.9272 329.043606,4.94012308 329.151775,4.95673846 C329.232901,4.96781538 329.214873,5.00658462 329.241915,5.03427692" id="Fill-141"></path>
            <path d="M582.965859,19.9973538 C582.803606,20.0896615 583.019944,20.2539692 582.163606,20.2115077 C581.97431,20.2022769 581.920225,20.0712 581.803042,19.9973538 L581.73093,20.0084308 C582.163606,20.0102769 582.605296,20.0102769 583.037972,20.0102769 L582.965859,19.9973538 Z" id="Fill-143"></path>
            <path d="M86.6936338,19.9233231 C86.6846197,19.9528615 86.711662,19.9953231 86.6485634,20.0064 C86.5133521,20.0248615 86.288,20.0377846 86.1618028,20.0267077 C85.6389859,19.9750154 85.6660282,19.9214769 86.2249014,19.8900923 C86.3510986,19.8845538 86.5313803,19.9104 86.6936338,19.9233231" id="Fill-145"></path>
            <path d="M819.70907,18.3548308 C824.053859,18.1056 827.902873,18.1776 831.688789,18.3049846 C832.031324,18.6169846 831.093859,18.6852923 830.435831,18.6649846 C828.434704,18.6059077 826.559775,18.7499077 824.630761,18.7609846 C823.008225,18.7702154 821.160338,18.7923692 819.70907,18.3548308" id="Fill-147"></path>
            <path d="M835.699155,18.4314462 C837.970704,17.9846769 837.970704,17.9846769 841.36,18.2911385 C839.476056,18.5865231 837.745352,18.5865231 835.699155,18.4314462" id="Fill-149"></path>
            <path d="M854.81893,17.8770462 C855.26062,17.8918154 855.810479,17.9490462 855.819493,18.0838154 C855.828507,18.2259692 855.206535,18.2776615 854.629634,18.2776615 C854.052732,18.2758154 853.430761,18.2259692 853.448789,18.0838154 C853.466817,17.9490462 853.989634,17.8825846 854.81893,17.8770462" id="Fill-151"></path>
            <path d="M809.37893,18.8298462 C809.234704,18.8187692 808.98231,18.8095385 808.98231,18.7966154 C808.964282,18.7652308 809.072451,18.7301538 809.126535,18.6987692 C809.270761,18.7098462 809.414986,18.7172308 809.559211,18.7301538 C809.496113,18.7615385 809.433014,18.7966154 809.37893,18.8298462" id="Fill-153"></path>
        </g>
    </g>
</svg>