<?xml version="1.0" encoding="UTF-8"?>
<svg width="1920px" height="93px" viewBox="0 0 1920 93" version="1.1" xmlns="http://www.w3.org/2000/svg" xmlns:xlink="http://www.w3.org/1999/xlink">
    <!-- Generator: Sketch 49.1 (51147) - http://www.bohemiancoding.com/sketch -->
    <title>tear1</title>
    <desc>Created with Sketch.</desc>
    <defs></defs>
    <g id="tear1" stroke="none" stroke-width="1" fill="none" fill-rule="evenodd">
        <path d="M-4.79661264,-0.0044524756 L-4.79661264,67.3348775 C-5.04214817,67.5583236 -4.99667863,67.8052904 -4.99667863,68.0404969 L-4.99667863,68.810798 C-4.99667863,69.0313041 -4.91483345,69.2400498 -4.79661264,69.4487955 C-4.51470147,69.8398263 -3.55074716,70.3219995 -3.55074716,70.4513631 C1.86012847,70.1661752 2.30572999,70.1397145 2.57854725,70.1661752 C4.89446265,70.2622179 6.0099821,70.4964443 5.92510562,70.8688546 C9.48082389,71.1187614 9.68088988,71.2216642 9.96280105,71.3275072 C10.2356183,71.4235498 10.3568704,71.7057975 10.3265574,72.1742504 C11.8998036,72.6182026 12.0180244,72.7211054 12.1817148,72.8269483 C12.5818467,72.7740269 12.3090295,72.485899 12.3454051,72.1742504 C11.854334,71.612695 11.9452731,71.3921889 11.9816488,71.248125 C12.4272503,70.7806521 12.6273163,70.7130303 12.7091615,70.6483485 C13.1456691,70.2573178 13.2366082,70.1279542 13.4730498,69.9956506 C14.4006285,70.374921 14.5188493,70.4396028 14.5188493,70.5454457 C17.0196741,70.048572 17.0196741,70.0221113 17.1833645,69.9956506 C21.4211259,70.3631607 21.7030371,70.4013817 21.9031031,70.4660635 C23.3217528,69.9456692 23.5581944,69.8515866 23.9219508,69.8398263 C28.1960878,70.0750327 28.1142427,70.3102392 28.1597122,70.374921 C27.8323315,70.9746975 26.8683772,71.1187614 27.1411944,71.3010464 C28.477999,70.7541914 28.7599102,70.7012699 28.9599762,70.6630489 C31.7881817,70.048572 32.5520701,70.010351 33.1613619,70.0632724 C35.9804736,70.557206 35.744032,70.6336481 35.4984965,70.7012699 C38.1539178,70.230857 38.3630777,70.192636 38.5176741,70.1661752 C40.1727655,70.6748092 39.5725675,70.7924125 39.0814965,70.9335363 C38.3176081,71.248125 38.035697,71.3392675 37.835631,71.4568707 C39.2906564,71.0011582 39.727164,70.8688546 40.1727655,70.7541914 C42.8736563,70.3484603 42.9191259,70.2573178 42.9191259,70.1661752 C45.1380396,70.5836667 45.1380396,70.6336481 45.2198848,70.6748092 C45.8200827,70.9335363 46.1474635,71.1187614 46.4657503,71.3010464 C47.5933949,71.8743622 47.8389305,72.0301865 48.2026868,72.121329 C47.4751741,71.6009347 47.4387985,71.5597735 47.4387985,71.5215525 C46.793131,71.1305217 46.7476614,71.0011582 46.6294406,70.8688546 C46.0656183,70.3484603 45.9837731,70.3866813 45.9473975,70.2690781 C50.6307604,69.8927477 50.7035117,69.8515866 50.7853568,69.8251259 C51.667466,69.3694134 51.7947807,69.319432 51.8311563,69.2400498 C52.1494431,69.6575413 52.1221614,69.7486838 52.1494431,69.8398263 C53.0497401,69.2929713 52.8860497,69.175368 53.3225574,69.137147 C57.9695447,69.501717 57.6785396,69.5134773 57.3966284,69.5810992 C55.0594939,69.9309688 54.0864457,69.9956506 54.1773848,70.1544149 C57.8422299,69.6693016 57.9695447,69.5928595 58.2059863,69.5663988 C58.503054,69.6448009 58.6121809,69.8359062 58.533367,70.1397145 C63.1621665,70.557206 63.00757,70.5836667 63.00757,70.6218878 C64.6171919,70.1397145 64.7808822,70.1014935 64.899103,70.0867931 C64.5353467,70.595427 64.5353467,70.6336481 64.498971,70.6865695 C63.6896132,71.1952035 63.6896132,71.2745857 63.5713924,71.3539679 C63.1621665,71.8596618 63.1348848,71.9008229 63.0894152,71.9537444 C63.5713924,71.6273954 63.7350827,71.4950918 63.9351487,71.4068893 C65.7539304,70.8570942 65.7903061,70.8570942 65.9539964,70.8453339 C66.9997959,71.3657282 66.6360396,71.4568707 66.6360396,71.4950918 C69.9462223,71.3128067 71.7619727,71.1961835 72.0832908,71.1452221 C78.9400979,71.3010464 78.8946284,71.3804286 78.9764736,71.4451104 C83.6598365,71.8361411 83.7416817,71.8743622 83.8235269,71.939044 C86.4061969,71.5480132 86.5244177,71.4451104 86.6881081,71.4451104 C91.5260675,71.1305217 91.7625091,71.0805404 91.9261994,71.0129185 C96.645938,70.595427 96.9278492,70.557206 97.2097604,70.5454457 C102.538791,70.921776 102.611542,70.9599971 102.738857,71.0129185 C102.456946,70.5042845 102.338725,70.4807639 102.338725,70.4396028 C105.439748,69.9192085 105.639814,69.8780473 105.83988,69.8927477 C108.42255,70.3866813 108.504395,70.4278424 108.549864,70.4660635 C108.868151,69.8927477 108.786306,69.7222231 108.949996,69.6428409 C111.732732,69.1489073 111.814578,69.137147 111.896423,69.1224466 C116.252405,68.7314158 116.497941,68.6931948 116.816227,68.6931948 C116.734382,69.175368 116.616161,69.2253494 116.452471,69.2782709 C116.852603,69.7222231 116.816227,69.7869048 116.770758,69.8251259 C117.943872,69.3047316 118.107562,69.2665105 118.189408,69.2253494 C119.91725,68.7314158 119.91725,68.7049551 119.96272,68.6784944 C120.878173,68.8529392 121.348025,69.0489446 121.372276,69.2665105 C121.29043,69.6193202 121.3359,69.6987024 121.208585,69.8016052 C121.154022,69.9054881 121.141897,70.1397145 121.17221,70.5042845 C121.535966,69.9456692 121.617811,69.8780473 121.617811,69.8016052 C121.817877,69.3047316 121.772408,69.2929713 121.772408,69.2665105 C122.054319,68.6931948 122.017943,68.6402733 122.054319,68.6020523 C128.192707,68.3668458 128.429149,68.3139244 128.674684,68.2610029 C131.211885,68.772577 131.175509,68.772577 131.139133,68.7960976 C132.548689,68.2757033 132.585065,68.2492426 132.66691,68.2110215 C137.022892,67.8052904 136.941047,67.7406086 136.859202,67.6759268 C140.41492,67.2966564 140.569517,67.2319746 140.778677,67.2055139 C142.506519,67.7935301 142.388298,67.8699722 142.342829,67.9493543 C142.870276,67.4407204 142.870276,67.3760386 142.906651,67.3231171 C147.79008,66.9438467 147.79008,66.9585471 147.871925,66.9320864 C149.20873,67.4407204 149.245105,67.4524807 149.363326,67.4936418 C149.527017,67.1408321 149.408796,67.0085285 149.326951,66.8791649 C151.58224,67.3642783 151.464019,67.3995592 151.41855,67.4524807 C150.700131,67.8846726 150.536441,67.9611147 150.336375,68.0404969 C151.991466,67.5465633 152.073311,67.5318629 152.109687,67.5201026 C153.355552,67.0085285 153.519243,66.9320864 153.764778,66.9056257 C156.783956,67.3760386 156.783956,67.4524807 156.74758,67.5201026 C156.711204,68.0404969 156.711204,68.1051786 156.783956,68.1845608 C157.111336,68.5373705 157.229557,68.6402733 157.356872,68.7314158 C156.993116,68.1728005 156.993116,68.0669576 157.029491,68.0140361 C158.684583,67.4142596 159.412095,67.1937536 159.975918,66.9320864 C161.430943,66.408752 161.585539,66.370531 161.74923,66.3176095 C162.394897,66.7645018 162.431273,66.8527042 162.558588,66.9438467 C162.95872,67.3642783 162.95872,67.4289601 162.95872,67.5054022 C162.922344,67.1408321 162.840499,67.0232289 162.840499,66.9056257 C162.876875,66.4499132 162.922344,66.408752 162.95872,66.370531 C164.732032,66.5145949 164.932098,66.6851196 165.059413,66.8791649 C164.732032,66.408752 164.577435,66.2793885 164.577435,66.1382646 C169.533616,65.7707545 169.651836,65.7442938 169.779151,65.7325334 C171.470618,65.8383764 170.943171,66.0706427 170.70673,66.3323099 C170.506664,66.5145949 170.261128,66.6968799 170.261128,66.8938654 C170.906796,66.5675164 171.106862,66.370531 171.552463,66.2411674 C175.862976,65.9677399 175.944821,65.8883577 175.990291,65.823676 C179.655136,66.2029464 179.45507,66.2911488 179.218628,66.370531 C178.209204,66.9320864 178.045514,67.0496896 177.799979,67.1672929 C177.481692,67.3495779 176.836024,67.5201026 176.954245,67.7523689 C177.08156,68.1728005 177.117935,68.2610029 177.117935,68.3668458 C177.481692,67.7788297 177.599913,67.6230054 177.763603,67.4936418 C178.090984,67.2055139 178.891248,66.9967682 179.418694,66.7498014 C180.218958,66.3176095 180.419024,66.1764856 180.66456,66.0324217 C182.847098,65.5120274 183.010788,65.5120274 183.165385,65.4708663 C186.075435,65.9148185 186.075435,65.9412792 186.029966,65.9942006 C185.384298,66.4616735 185.266078,66.5028346 185.138763,66.5410557 C184.57494,67.0879107 184.502189,67.1026111 184.383968,67.1290718 C187.403146,66.6321982 187.566836,66.552816 187.730527,66.4763739 C188.330725,66.1235642 188.448946,66.0324217 188.658105,65.9412792 C195.751354,65.8501367 195.878669,65.823676 195.99689,65.823676 C199.943646,65.3944242 200.034585,65.3944242 200.152806,65.3797238 C205.518212,65.0416145 205.881968,65.1180566 206.000189,65.0416145 C206.054753,65.1356971 206.082034,65.3356225 206.082034,65.6413909 C206.527636,65.0798355 206.600387,65.0151537 206.800453,64.9622323 C209.192151,65.4179448 209.101212,65.4826266 209.146682,65.5384881 C209.146682,65.9677399 209.146682,66.0206614 209.146682,66.0706427 C210.11973,65.6531513 210.192481,65.5767092 210.319796,65.5384881 C211.201905,65.861897 211.401971,65.9795002 211.683882,66.0853431 C212.011263,65.7207731 211.847572,65.6002298 211.683882,65.4826266 C211.44744,64.9240112 211.520192,64.8975505 211.647506,64.8593295 C213.748199,65.3268023 213.820951,65.353263 213.86642,65.3944242 C214.994065,65.9265788 215.112286,66.0588824 215.357821,66.1500249 C215.876174,65.6649116 215.921643,65.6413909 215.958019,65.6002298 C215.958019,65.4434255 215.985301,65.205279 216.039864,64.8857902 C218.140557,65.3797238 218.140557,65.4061845 218.176933,65.4326452 C219.104512,65.9795002 219.104512,66.005961 219.231826,66.0324217 C218.70438,65.497327 218.70438,65.4591059 218.668004,65.4179448 C218.340623,64.8975505 218.295154,64.8857902 218.295154,64.8710898 C222.014562,65.2503602 221.814496,65.315042 221.687182,65.3944242 C220.195781,65.9148185 220.03209,65.9530395 219.913869,66.005961 C218.540689,66.5145949 218.222402,66.591037 218.176933,66.6586589 C220.195781,66.1118039 220.477692,66.0206614 220.805072,65.9412792 C221.775089,65.7139129 222.487446,65.535548 222.942141,65.4061845 C223.460494,65.7707545 223.751499,65.9530395 223.951565,66.1500249 C223.98794,65.7825148 224.024316,65.6002298 224.024316,65.4179448 C224.751829,64.9240112 224.879143,64.8710898 225.03374,64.8446291 C226.416014,64.5065198 226.688831,64.4153773 226.888897,64.3124744 C228.343923,63.8802826 228.462143,63.8156008 228.625834,63.7244583 C229.598882,64.2183919 229.635258,64.2713133 229.635258,64.3242348 C229.917169,63.9185036 229.962638,63.8038405 230.080859,63.7097579 C230.43249,63.4314302 230.620431,63.2540454 230.644682,63.1776033 C231.372194,63.7891401 231.490415,63.8685222 231.654105,63.9596647 C231.654105,63.4627911 231.654105,63.4363304 231.608636,63.3981093 C232.82722,63.9067433 232.863595,63.9067433 232.899971,63.9185036 C235.764552,63.42457 235.846397,63.3716486 235.964618,63.3451879 C238.383598,62.8483142 238.465443,62.8247936 238.592758,62.8100932 C241.812001,62.3926017 241.812001,62.3426203 241.857471,62.3161596 C242.866895,62.7983328 242.94874,62.8630146 243.030585,62.9041757 C246.940966,62.4602235 247.104656,62.4073021 247.341098,62.3808414 C249.396321,62.9159361 249.605481,62.9659174 249.723702,63.06 C247.022811,63.5157125 246.777275,63.568634 246.495364,63.6186154 C252.142682,63.2922664 252.670128,63.2805061 253.07026,63.1893636 C253.270326,63.6979976 253.352171,63.7744397 253.388547,63.8420615 C254.079684,63.5157125 254.11606,63.4098696 254.161529,63.2922664 C256.86242,63.8420615 256.416819,63.9714251 255.980311,64.115489 C258.963113,63.6568364 259.035864,63.6333158 259.208649,63.6186154 C261.582159,64.1301894 261.172933,64.2448526 261.054712,64.3124744 C260.70005,64.8181683 260.70005,64.8857902 260.736425,64.9357716 C265.092407,64.5182801 265.174253,64.4947594 265.256098,64.480059 C266.138207,64.8857902 265.901765,64.9622323 265.692605,65.0416145 C266.783874,65.5120274 266.583808,65.5767092 266.501963,65.6413909 C268.120679,66.188246 268.2389,66.226467 268.311651,66.2676281 C269.893991,65.823676 269.893991,65.7825148 269.893991,65.7442938 C269.121009,65.2356598 268.920943,65.1592177 269.084633,65.1445173 C274.040813,65.497327 274.168128,65.5120274 274.249973,65.5237877 C272.913169,66.0206614 272.794948,66.0324217 272.667633,66.044182 C276.705329,65.6531513 277.069085,65.5502484 277.469217,65.497327 C283.52576,65.7707545 283.653075,65.7825148 283.771296,65.7825148 C285.017161,66.3587707 285.135382,66.408752 285.180852,66.4763739 C285.344542,65.8883577 285.262697,65.7589942 285.580984,65.7707545 C289.982435,66.2147067 289.90059,66.226467 289.700524,66.2529277 C290.382567,66.6968799 290.418943,66.7498014 290.464412,66.8027228 C293.365369,66.408752 293.565435,66.3587707 293.729126,66.2911488 C294.656704,66.6204378 294.774925,66.8409439 295.102306,67.0496896 C296.11173,66.6057374 296.229951,66.5263553 296.393641,66.5145949 C298.730775,66.9585471 299.012687,66.9967682 299.294598,67.0232289 C298.130577,66.552816 297.966887,66.5028346 297.848666,66.4381528 C298.612555,65.9030581 298.730775,65.9148185 298.894466,65.9030581 C303.532359,65.5237877 303.368669,65.4061845 303.450514,65.353263 C306.23325,64.8975505 306.515161,64.8710898 306.797072,64.8710898 C307.970187,65.4179448 308.088407,65.4444055 308.170253,65.497327 C308.215722,65.1592177 308.288473,64.9622323 308.288473,64.7799473 C309.134207,65.2885813 309.02508,65.3268023 308.97961,65.353263 C312.844522,64.9122509 312.971836,64.8857902 313.135527,64.8710898 C318.337242,64.480059 318.209928,64.4535983 318.137176,64.4153773 C323.739024,64.0625676 323.93909,63.9714251 323.98456,63.8685222 C329.268121,64.1537101 329.222651,64.1919311 329.222651,64.259553 C328.777049,64.768187 328.740674,64.806408 328.740674,64.8593295 C331.286968,65.1827383 331.441565,65.2621205 331.6871,65.353263 C331.123278,64.8710898 331.123278,64.7946477 331.123278,64.7152655 C334.26977,64.2183919 334.506212,64.1801708 334.669902,64.115489 C337.616329,64.624123 337.652704,64.6888048 337.652704,64.7799473 C338.543907,64.3506955 338.543907,64.2713133 338.462062,64.2183919 C338.789443,63.6862372 338.907664,63.6333158 338.953133,63.5921546 C340.080778,63.1246818 340.517286,63.0717603 340.917417,63.0188389 C345.882692,62.6542689 346.128227,62.5513661 346.328293,62.4984446 C349.356565,62.9806178 349.720321,63.06 349.756697,63.204064 C350.402364,62.7189507 350.566055,62.3279199 351.211722,62.5102049 C351.893765,62.9923782 352.093831,63.0982211 352.302991,63.2158243 C352.02108,62.5631264 351.81192,62.3926017 351.775544,62.2367774 C354.2309,62.4190624 354.149055,62.6425086 354.2309,62.7571717 C354.840192,63.2687458 354.712877,63.2922664 354.55828,63.3069668 C357.377392,62.9041757 357.668397,62.8894753 357.868463,62.8247936 C361.660623,63.2687458 362.224445,63.3716486 362.588202,63.5039522 C361.778844,63.1099814 361.615154,62.9806178 361.496933,62.8483142 C360.969486,62.2367774 360.687575,62.1074139 360.569354,61.9515896 C365.325468,61.5046973 365.689225,61.5193977 366.089357,61.4694163 C368.799341,61.1812884 368.999407,60.9578423 369.317694,60.8814002 C371.382011,60.3580658 371.136476,60.2140018 370.809095,60.2140018 C374.364813,59.7318286 375.046857,59.6818472 375.328768,59.6171654 C377.875062,59.1467525 377.993283,59.0820707 378.229725,59.0820707 C378.438884,59.3290375 378.766265,59.6171654 379.157303,59.8376715 C380.494108,60.293384 380.730549,60.3727662 380.976085,60.4521484 C380.457732,60.0464172 380.294042,59.9552747 380.093976,59.8758926 C378.957237,59.4466408 378.920862,59.1467525 379.002707,58.8615647 C383.513285,59.2261347 383.840666,59.2496553 384.077108,59.3437379 C388.278494,59.7612294 388.360339,59.7729897 388.524029,59.7994505 C389.324293,59.4848618 388.64225,59.3937193 388.196648,59.2496553 C386.423336,58.8468643 385.904983,58.8057032 385.377537,58.7557218 C384.004357,58.2353275 384.249892,58.1941664 384.449958,58.1412449 C387.514605,58.5851971 387.796516,58.6645793 388.078428,58.7674821 C387.43276,58.4411331 387.150849,58.2735485 386.868938,58.0912635 C393.843966,58.2353275 394.289567,58.3117696 394.571478,58.2853089 C392.834542,57.8678174 392.270719,57.7913753 392.070653,57.6090903 C393.243768,57.3591834 394.253192,57.0093138 395.335367,56.7211859 C398.445483,56.9416919 398.881991,57.0592952 399.291217,57.1915988 C400.418862,57.6208506 400.782618,57.6855324 401.310065,57.7237534 C400.418862,58.3235299 399.891415,58.5352157 399.373062,58.7028003 C398.527329,58.9909282 397.59975,59.2261347 396.672171,59.4731015 C397.999882,59.2261347 398.845615,59.0673703 399.609504,58.8615647 C400.337016,58.6645793 401.028153,58.4675939 401.746572,58.2735485 C406.029803,58.7410214 406.548156,58.7410214 406.993758,58.7821825 C411.831717,59.1467525 412.441009,59.2114343 412.968455,59.2643558 C410.904138,58.7292611 410.585851,58.6116578 410.222095,58.5205153 C408.848915,58.000121 409.540052,57.9471996 409.694648,57.9354392 C410.622227,57.8031356 410.467631,57.5561688 410.985983,57.3591834 C415.705722,57.2033591 415.869412,57.0592952 416.151324,56.9034709 C416.596925,57.4121049 416.596925,57.5150077 416.633301,57.6473113 C417.278968,57.123977 417.360813,57.0093138 417.524504,56.9034709 C418.93406,56.4477584 418.93406,56.3419155 419.179595,56.2390126 C425.063354,55.9773455 425.308889,55.9126637 425.508955,55.8715025 C428.455382,56.1331697 428.691823,56.2654734 429.101049,56.3301551 C434.830212,56.1478701 435.348565,56.0420272 435.876011,55.9891058 C440.313839,55.5480937 440.795816,55.3511082 441.114103,55.195284 C445.033577,54.7630921 445.315488,54.8189536 445.76109,54.7777925 C445.997532,55.0776807 445.270019,55.2070443 444.587976,55.3658087 C446.606823,54.9600775 447.13427,54.8806953 447.616247,54.7630921 C449.953382,55.1041415 449.38956,55.41579 449.38956,55.7303787 C449.789691,55.3011269 449.998851,54.9600775 450.71727,54.868935 C453.054405,55.3128872 453.34541,55.4422508 453.618227,55.5333933 C453.34541,55.0247593 453.054405,54.9071561 452.690648,54.8042532 C450.599049,54.4779043 451.563004,54.1633156 451.726694,54.0986338 C456.528278,54.542586 456.410057,54.7630921 456.364587,54.9747779 C456.282742,55.3393479 456.364587,55.7039179 456.282742,56.068488 C456.082676,56.471279 456.082676,56.5771219 456.082676,56.6829648 C456.082676,56.8770102 455.964455,57.0739956 456.082676,57.2680409 C456.482808,57.7384538 456.446433,57.9089785 456.610123,58.0236417 C456.71925,57.9805205 456.758657,57.5336282 456.728344,56.6829648 C456.728344,56.5771219 456.701062,56.3507357 456.646499,56.0038062 C456.92841,55.6245358 456.846565,55.4422508 456.846565,55.3128872 C456.846565,55.1041415 456.92841,54.9218565 456.973879,54.724871 C457.173945,54.178016 457.25579,54.0986338 457.292166,54.0074913 C459.51108,53.5782395 459.274638,53.4988574 458.983633,53.4606363 C460.274968,53.0549052 460.638724,52.9667027 461.002481,52.8873206 C463.748841,52.3522259 463.703372,52.2228623 464.030752,52.2346226 C467.21362,52.6403538 467.377311,52.6668145 467.495532,52.7050356 C468.350359,52.9255416 468.268514,53.3694938 468.268514,53.6811424 C468.268514,54.0751132 468.223044,54.1515553 468.268514,54.2162371 C469.79629,54.6484289 470.323737,54.8806953 470.569273,54.8806953 C470.041826,54.7131107 469.596224,54.504365 469.068778,54.3338403 C468.514049,54.1633156 468.750491,53.8663675 468.832336,53.6429213 C469.032402,53.0313845 469.114247,52.8726202 469.114247,52.7314963 C468.914181,52.2875441 468.750491,52.1699409 468.668646,52.0787984 C471.651448,51.5054826 471.21494,51.3349579 471.415006,51.2055944 C477.498831,51.0350697 478.108123,51.008609 478.626476,51.008609 C483.509905,51.4143401 482.59142,51.5966251 482.300415,51.6083854 C485.046775,52.0258769 484.846709,52.0905587 484.683019,52.1287797 C482.500481,52.6668145 481.736592,52.940242 480.890859,53.1872088 C479.190298,53.669382 478.872011,53.7869853 478.508255,53.9016484 C477.989902,54.1133342 477.498831,54.32208 476.935009,54.5161253 C476.334811,54.7395714 475.770988,54.9747779 475.161697,55.195284 C477.180544,54.5690468 477.662521,54.32208 478.271813,54.1250946 C478.953856,53.8928282 479.554054,53.669382 480.363412,53.4723966 C483.309839,52.6903352 484.201042,52.3404655 485.246841,52.0640979 C487.993202,51.5584041 488.229643,51.4790219 488.511554,51.4643215 C490.976004,51.8053708 491.703516,51.8553522 492.385559,51.9347344 C494.722694,52.2228623 495.286516,52.7697173 495.286516,53.1489878 C495.659367,53.669382 495.895808,53.7340638 496.095874,53.7987456 C495.659367,53.0049238 495.577521,52.7167959 495.732118,52.4551287 C496.095874,51.9994162 496.259565,51.9347344 496.29594,51.8700526 C496.541476,51.4408008 496.34141,51.1644332 496.423255,50.9174664 C497.469054,51.2585158 497.632745,51.3614186 497.914656,51.4408008 C499.969879,51.8818129 500.451856,51.9994162 500.979303,52.0640979 C500.497326,51.9729554 499.451526,51.7524494 498.760389,51.4643215 C497.432679,50.7881029 497.023453,50.6175782 496.950702,50.4088325 C499.888034,50.8263239 499.851658,50.9703879 499.806189,51.1262122 C500.979303,50.5146754 501.015679,50.3970722 501.097524,50.2677086 C502.025103,50.8380843 502.470704,51.04683 502.870836,51.2438154 C502.998151,50.9968486 502.71624,50.7998632 502.388859,50.6175782 C501.50675,50.1618657 500.815613,49.95312 500.897458,49.8737378 C505.535351,50.0824835 505.417131,50.3706114 505.417131,50.6440389 C505.617197,50.0325021 505.780887,49.9413596 505.780887,49.8502171 C507.108598,49.2886617 507.354133,49.2092795 507.636044,49.1563581 C509.291136,48.8564698 510.136869,48.7006455 510.737067,48.4918998 C513.119671,47.8921233 513.728963,47.8274416 514.329161,47.7627598 C516.184318,48.2596334 516.138849,48.4125176 516.220694,48.5565816 C516.675389,48.3625363 516.548075,48.0361873 516.548075,47.7862804 C518.803364,48.3243152 518.485077,48.4918998 518.239542,48.6477241 C517.721189,49.0387548 517.557499,49.118137 517.475653,49.1945791 C517.111897,49.5209281 516.593544,49.8208163 515.984252,50.0971839 C515.620496,50.2677086 515.174894,50.4470535 514.892983,50.6322786 C514.611072,50.8263239 514.283691,51.0203693 513.883559,51.193834 C514.492851,50.9821482 515.293115,50.8263239 515.784186,50.5911175 C516.184318,50.3970722 516.675389,50.2265475 516.993676,50.0325021 C517.311963,49.8355167 517.512029,49.6385313 517.83941,49.444486 C518.157697,49.262201 518.321387,49.0534552 518.648768,48.8711702 C519.16712,48.5830423 519.812788,48.3360755 520.467549,48.0744083 C522.395458,47.6451566 522.559148,47.5804748 522.677369,47.5275533 C523.701949,47.6843576 524.23849,47.8970235 524.286991,48.1655508 C525.623795,47.6451566 525.787486,47.5275533 525.823861,47.4217104 C525.951176,47.5922351 526.669595,47.8539023 527.033351,48.1126294 C526.433153,47.515793 526.269463,47.3834894 526.305839,47.2658861 C529.052199,47.8009808 529.37958,47.880363 529.697867,47.9303444 C528.206466,47.4099501 528.12462,47.333508 528.0064,47.2658861 C533.008049,47.0836011 533.362712,46.9277768 533.853783,46.9160165 C535.263339,47.2276651 534.863207,47.3981898 534.735892,47.515793 C541.510854,47.6333962 542.047394,47.6716173 542.565747,47.6569169 C541.801859,48.0479476 541.238037,48.1008691 541.156191,48.244933 C547.449176,48.4918998 547.003575,48.6741848 546.721663,48.8564698 C550.959425,48.609503 550.913955,48.4918998 550.959425,48.3625363 C554.224138,48.8946909 554.260514,48.9093913 554.342359,48.9740731 C560.271587,49.1945791 560.635344,49.2886617 560.917255,49.4180253 C562.654191,49.7061532 563.017948,49.8208163 563.41808,49.95312 C562.608722,49.4944674 562.326811,49.300422 561.844834,49.1563581 C561.399232,49.0005338 560.717189,48.8182488 560.671719,48.5977427 C562.408656,49.1063767 562.608722,49.1828188 562.817882,49.262201 C563.74546,48.7271063 563.699991,48.609503 563.74546,48.5183605 C564.309283,48.7388666 564.79126,49.0269945 565.518773,49.2239799 C568.74711,48.9887735 569.065397,48.7653273 569.229087,48.6741848 C573.139468,48.1802513 573.221313,48.0361873 573.385004,47.9979662 C574.030671,48.3478359 574.148892,48.5565816 574.476273,48.7653273 C574.430803,48.5565816 574.394427,48.3478359 574.312582,48.1420302 C577.859207,47.6833776 578.141118,47.5657744 578.341184,47.554014 C579.878054,46.9777582 580.323656,46.8219339 580.923854,46.7307914 C581.28761,47.186504 580.923854,47.2276651 580.560097,47.2805865 C585.279836,47.554014 585.679968,47.6716173 586.089194,47.6716173 C586.771237,48.1802513 586.853082,48.2978545 587.053148,48.4007573 C587.416905,47.9979662 587.298684,47.8392019 587.380529,47.7098383 C588.471798,47.2012044 588.671864,47.1629833 588.953775,47.1482829 C589.108372,47.6451566 589.108372,47.7627598 589.317531,47.8127412 C592.582245,48.571282 593.109691,48.9887735 593.346133,49.444486 C593.628044,49.9648803 593.628044,50.0560228 593.755359,50.1089442 C593.391603,49.2475006 593.027846,48.8946909 593.191537,48.5448213 C593.346133,48.2184723 593.064222,47.880363 592.864156,47.554014 C594.073646,48.0861687 594.155491,48.1126294 594.273712,48.1802513 C599.311737,48.244933 599.439052,48.427218 599.557273,48.5977427 C599.675493,48.7917881 599.802808,48.9887735 599.921029,49.1828188 C600.048344,49.3798042 600.284785,49.5620892 600.648542,49.7179135 C600.36663,49.3386431 600.24841,49.1063767 600.20294,48.8946909 C600.20294,48.7006455 600.166564,48.5183605 600.121095,48.3360755 C603.103897,48.9476123 603.513123,49.2092795 603.840504,49.444486 C604.358856,49.9001985 604.568016,49.991341 604.568016,50.0707232 C604.358856,49.7443742 604.358856,49.6385313 604.277011,49.5356285 C604.076945,49.262201 603.958724,48.9887735 603.549498,48.7388666 C603.276681,48.5301209 602.903831,48.3243152 602.421854,48.1420302 C607.823636,48.2596334 608.760308,48.427218 609.560572,48.6741848 C611.706734,48.1126294 612.061397,47.8921233 612.388778,47.6716173 C611.379354,47.9979662 611.179288,48.1008691 610.933752,48.2037719 C608.632993,47.7627598 608.878529,47.7098383 609.124064,47.6716173 C611.497575,47.4099501 611.78858,47.2805865 612.143242,47.1629833 C612.625219,47.7627598 612.752534,47.8392019 612.870755,47.9185841 C614.11662,47.371729 614.243935,47.2805865 614.407625,47.2012044 C616.017247,47.4863922 616.299158,47.5922351 616.499224,47.7362991 C616.826605,47.371729 616.862981,47.2805865 616.944826,47.186504 C620.818831,46.9777582 621.018897,46.860155 621.337184,46.7454918 C626.984501,46.9924586 626.748059,47.371729 626.748059,47.6333962 C626.138767,48.3096148 625.693166,48.4654391 625.293034,48.6477241 C627.393727,48.1420302 627.639262,48.0214869 627.839328,47.8656626 C628.039394,47.4863922 628.039394,47.3981898 628.039394,47.2805865 L628.039394,46.7307914 C628.039394,46.5367461 628.157615,46.3397607 628.557747,46.1839364 C632.231686,46.7454918 632.231686,47.0836011 632.713663,47.3452683 C633.07742,47.0836011 632.922823,46.6925704 632.922823,46.4044425 C633.886778,45.7782053 633.932247,45.6900028 634.004998,45.5841599 C634.050468,46.1045542 633.768557,46.3779817 633.768557,46.6543493 C633.768557,46.9777582 633.359331,47.2805865 633.24111,47.6039954 C632.922823,48.0744083 632.795509,48.1920116 632.677288,48.2978545 C632.149841,48.7917881 631.904306,48.9623127 631.995245,49.0534552 C633.159265,48.3243152 633.604866,48.1126294 633.804932,47.8921233 C634.086844,47.5804748 634.332379,47.2541258 634.4506,46.9277768 C634.4506,46.2486182 634.496069,46.0780935 634.4506,45.9105089 C634.414224,45.7282239 634.332379,45.5194782 634.414224,45.3254328 C639.570471,45.4665567 639.652316,45.5959203 639.734161,45.7135235 C639.852382,45.8840482 640.097917,46.131015 639.934227,46.3280004 C638.688361,46.7307914 638.288229,46.8219339 637.924473,46.9542376 C641.389252,46.1045542 640.861806,45.6635421 640.261608,45.2195899 C639.979696,44.566892 639.697785,44.3434458 639.370405,44.1758612 C638.324605,43.6143058 638.124539,43.5231633 638.042694,43.4320208 C640.743585,43.8877333 640.980026,43.9406548 641.107341,44.020037 C640.707209,43.6672273 639.934227,43.367339 639.61594,43.002769 C644.417524,42.5058954 644.817656,42.4294533 645.181412,42.3353707 C646.554592,42.7028808 646.709189,42.8322443 646.791034,42.9763083 C647.072945,42.5176557 646.791034,42.31185 646.872879,42.1148646 C650.183062,42.129565 649.982996,42.4529739 650.064841,42.6911205 C651.592618,42.3882921 652.074595,42.1413254 652.683887,41.9590403 C656.839803,41.6856128 657.039869,41.58271 657.276311,41.5415489 C657.276311,42.0766436 657.003493,42.2324679 656.958024,42.3882921 C657.276311,42.1413254 657.967448,41.9061189 658.53127,41.7238339 C659.940826,42.0766436 660.422803,42.2177675 660.95025,42.3765318 C662.441651,42.9233868 662.48712,43.0409901 662.605341,43.1585933 C663.414699,43.875973 663.778455,44.1111795 664.060366,44.3699066 C663.614765,43.837752 663.569295,43.7848305 663.53292,43.7201487 C663.132788,43.1968143 663.005473,43.1203722 662.932722,43.0409901 C662.732656,42.5852775 662.769031,42.5058954 662.769031,42.4412136 C663.8603,42.6764201 664.624189,43.1703536 664.824255,43.1703536 C664.424123,42.7528622 664.060366,42.6617196 663.8603,42.494135 C664.578719,41.9855011 664.787879,41.9590403 664.824255,41.8796582 C665.424453,42.3236104 665.715458,42.494135 665.797303,42.6764201 C666.397501,42.2060071 666.597567,42.0501828 666.961323,42.0766436 C668.052592,42.7293415 666.924948,42.9910087 666.197435,43.329118 C667.4433,43.0409901 667.888902,42.9233868 668.370879,42.8057836 C670.426102,42.3353707 670.880798,42.2589286 671.317305,42.1677861 C671.153615,42.5588168 670.835328,42.7293415 670.880798,42.8734055 C671.353681,42.7028808 671.717437,42.494135 672.208509,42.31185 C676.118889,42.8587051 676.364425,43.002769 676.719087,43.1438929 C676.200734,42.7411018 675.836978,42.5588168 675.473222,42.3765318 C674.627488,42.0119618 674.345577,41.9325796 674.181887,41.8414371 C676.764557,42.2706889 676.928247,42.4029925 677.210158,42.5058954 C678.665184,43.1203722 678.81978,43.2614961 679.065316,43.367339 C679.101691,43.2614961 678.86525,42.7793229 679.183536,42.7411018 C681.684361,42.4529739 681.684361,42.2853893 681.484295,42.1530857 C682.284559,42.4529739 682.011742,42.8734055 682.530095,42.8440047 C683.257608,43.549624 683.384922,43.8612726 683.539519,44.1611608 C683.621364,44.3316855 683.785054,44.5139705 683.857805,44.6991956 C683.82143,44.1611608 683.657739,43.8612726 683.621364,43.549624 C683.584988,43.3026573 683.621364,43.0556905 683.621364,42.8057836 C685.876653,42.5058954 686.886077,42.3353707 687.895501,42.2706889 C688.059191,42.7675626 688.177412,42.8322443 688.259257,42.8587051 C689.268681,43.329118 689.468747,43.4584815 689.550592,43.5878451 C689.714283,43.0792111 689.714283,42.8969261 690.032569,42.8851658 C695.161534,42.5441164 695.31613,42.5441164 695.443445,42.5323561 C695.3616,42.9763083 694.997844,43.1438929 694.997844,43.2232751 C696.325554,42.6617196 696.489245,42.6117383 696.652935,42.5441164 C697.216757,43.1056718 696.52562,43.3026573 696.607465,43.4320208 C698.662689,43.1056718 698.626313,42.9763083 698.626313,42.8440047 C700.36325,43.0292297 700.399625,43.2614961 700.445095,43.367339 C701.290828,42.5970379 701.445425,42.3353707 701.445425,42.0766436 C701.445425,42.2853893 701.645491,42.4529739 701.936496,42.6352589 C702.700384,43.1968143 702.136562,43.329118 701.854651,43.511403 C703.828029,43.002769 703.94625,42.9910087 704.028095,42.9498476 C704.237255,43.2497358 704.237255,43.4584815 704.519166,43.511403 C705.283054,43.5760848 704.755607,43.9024337 704.355476,44.0729584 C706.010567,43.5378637 706.492544,43.3408783 706.974521,43.2761965 C707.092742,43.6407665 706.974521,43.875973 707.374653,43.8612726 C710.812151,44.3434458 710.766681,44.4639892 710.766681,44.5139705 C711.130437,45.3107324 711.084968,45.6635421 711.448724,45.9898911 C712.385397,45.440096 712.821904,45.3489535 713.149285,45.2695713 C716.741379,44.9050013 717.02329,44.8520798 717.259732,44.8285592 C717.787179,45.3254328 717.377953,45.4283357 716.977821,45.5312385 C720.65176,45.5694595 720.488069,45.8575874 720.488069,46.1192546 C720.769981,45.8958085 721.015516,45.6341413 721.533869,45.4665567 C725.326029,45.1019867 725.60794,45.0108442 725.889851,44.931462 C728.718057,45.3636539 728.999968,45.4018749 729.281879,45.440096 C731.300727,45.804666 731.173412,46.0545729 731.255257,46.2897793 C732.301057,46.7719526 731.98277,46.8748554 732.028239,47.0306797 C733.110415,46.4309032 733.474171,46.1192546 733.837927,46.0927939 C734.247153,46.7043307 734.283529,46.8748554 734.283529,47.0453801 C734.601816,46.8219339 734.965572,46.6131882 735.292953,46.3926821 C738.193909,46.8748554 737.957468,46.9160165 737.793778,46.9777582 C737.793778,47.3041072 737.875623,47.4481711 737.957468,47.5922351 C738.639511,47.2805865 738.803201,47.1747436 739.003267,47.0571404 C739.73078,46.6278886 740.012691,46.5102854 740.294602,46.4309032 C744.486894,46.8101736 744.041293,46.9777582 743.604785,47.1629833 C743.159184,47.3452683 742.831803,47.5657744 742.395295,47.7480594 C743.804851,47.2805865 744.368673,47.0571404 744.977965,46.8483947 C749.770455,46.7954732 750.261526,46.9924586 750.579813,47.186504 C748.961097,47.6451566 748.924722,47.6716173 748.961097,47.7862804 C751.261856,47.2658861 751.189105,47.1218222 751.307326,46.9659979 C753.844526,47.5393136 753.517146,47.554014 753.444394,47.6333962 C756.509041,48.0744083 756.145285,48.6624245 756.790953,48.6477241 C757.036488,48.2684537 757.072864,48.1655508 757.109239,48.062648 C763.329473,48.3860569 763.329473,48.4801395 763.365849,48.571282 C765.666607,48.2831541 765.666607,48.1537905 765.666607,48.0214869 C765.702983,47.8009808 766.194054,47.554014 766.757876,47.4364108 C770.14081,47.8392019 770.259031,47.8392019 770.340876,47.9597452 C771.959592,48.4389784 771.632211,48.571282 771.432146,48.7006455 C775.387996,48.6624245 775.906349,48.0214869 776.433795,48.2831541 C779.262001,48.8946909 778.570864,49.0534552 778.007041,49.1710585 C780.471491,48.7006455 780.953468,48.4654391 781.3536,48.4654391 C781.035313,48.8946909 780.953468,49.0005338 780.871623,49.1063767 C782.317554,48.5448213 782.608559,48.4125176 782.926846,48.2831541 C786.082432,48.609503 786.68263,48.7653273 787.128232,48.9093913 C786.600785,48.3478359 786.237029,48.2184723 786.600785,48.1273298 C791.038612,48.4007573 790.874922,48.4918998 790.756701,48.571282 C792.329948,49.2239799 792.329948,49.3798042 792.411793,49.5209281 C795.712882,49.3651038 795.394595,49.1828188 795.230904,49.0122941 C797.449818,49.6532317 797.613508,49.809056 797.89542,49.95312 C798.659308,49.3533435 798.613838,49.3268828 798.822998,49.262201 C800.068864,48.7271063 800.114333,48.609503 800.232554,48.5977427 C800.914597,48.8564698 801.205602,49.0122941 801.360199,49.1710585 C802.496937,49.7061532 802.697003,49.7179135 802.897069,49.7708349 C803.757959,49.9001985 804.079277,49.6346112 803.861024,48.9740731 C804.634006,48.4389784 804.43394,48.3860569 804.38847,48.3243152 C807.416742,48.6242034 808.262475,48.7124059 809.062739,48.7800277 C808.344321,49.1945791 808.298851,49.3121823 808.135161,49.4062649 C808.708077,49.7825953 808.18063,49.9001985 807.653184,49.9795807 C810.281323,49.6385313 810.917897,49.5503289 811.408968,49.3651038 C814.919217,49.7972957 815.119283,49.8502171 815.319349,49.8619775 C814.755526,49.7326139 814.228079,49.5209281 813.746102,49.3386431 C813.18228,48.8946909 813.418722,48.8300091 813.627882,48.7917881 C816.210552,48.2831541 816.410618,48.2684537 816.647059,48.2596334 C821.530488,48.5301209 821.648709,48.609503 821.730554,48.6741848 C824.922516,49.0652156 825.122582,49.1445977 825.158958,49.2357402 C826.368447,49.0122941 825.686404,48.8946909 825.922846,48.6741848 C828.550986,49.1298973 828.832897,49.1710585 828.987493,49.262201 C830.006011,49.7708349 830.324298,49.8619775 830.569833,49.9648803 C829.915072,50.4352932 829.360343,50.6028778 828.714676,50.7469418 C826.332072,51.3614186 825.88647,51.6348462 825.240803,51.7259887 C828.069008,51.1262122 828.714676,50.9821482 829.360343,50.8527847 C830.969965,50.4470535 831.206407,50.3706114 831.415567,50.2912292 C834.070988,50.8939458 834.234678,50.9968486 834.316524,51.1262122 C833.47079,51.6730672 832.506836,51.7906704 831.770229,51.8435919 C834.962191,51.5054826 835.171351,51.4643215 835.244102,51.3349579 C838.063214,51.0350697 837.663082,50.9174664 837.299326,50.8145636 C835.571483,50.355911 835.207727,50.3323904 834.880346,50.2794689 C834.716656,49.7708349 834.643904,49.7061532 834.480214,49.6532317 C832.861498,49.2739613 832.906968,49.1563581 832.661432,49.079916 C830.606209,48.6624245 830.242453,48.5183605 829.878696,48.4801395 C834.116458,48.2184723 834.070988,48.1273298 834.234678,48.0361873 C837.663082,47.5010926 837.908618,47.3834894 838.272374,47.3452683 C840.927795,46.9160165 841.173331,46.860155 841.418866,46.8101736 C842.382821,46.7572522 842.382821,47.0983015 842.300975,47.3981898 C842.21913,47.8392019 842.182755,47.9303444 842.300975,47.9715055 C842.864798,47.4217104 842.992112,47.2012044 843.192178,46.9924586 C843.674156,47.2658861 843.719625,47.6716173 844.119757,47.6833776 C844.237978,47.4628715 844.119757,47.2276651 844.074288,47.007159 C844.237978,46.4456036 843.837846,46.3544611 843.874222,46.2603785 C846.093135,45.7135235 846.420516,45.6635421 846.702427,45.6106207 C851.2221,45.9604903 851.622232,45.9898911 851.585856,46.0780935 C853.80477,46.495585 854.004836,46.5867275 854.241277,46.6925704 C856.423815,47.2012044 856.660257,47.3188076 856.951262,47.4628715 C856.951262,47.4481711 856.578412,47.1482829 856.096435,46.9013161 C858.115282,47.3834894 858.315348,47.4364108 858.515414,47.4863922 C859.370242,47.9185841 858.879171,48.0744083 858.642729,48.1420302 C857.915216,48.3478359 857.105859,48.5301209 856.34197,48.7124059 C855.050635,49.0652156 854.650503,49.1710585 854.605034,49.2739613 C855.814524,48.9740731 856.34197,48.8564698 856.787572,48.7124059 C858.879171,48.1126294 859.288397,47.9715055 859.934064,47.9979662 C861.498216,47.6186958 861.907442,47.554014 862.271199,47.4863922 C864.290046,47.0718408 864.571958,47.0189193 864.772024,46.9395372 C866.754496,47.3981898 867.109158,47.4863922 867.436539,47.6039954 C867.436539,47.1629833 867.309224,47.0983015 867.227379,47.0306797 C866.954562,46.8219339 867.109158,46.5367461 867.227379,46.3015396 C867.954892,46.9160165 868.282272,47.0718408 868.400493,47.2658861 C868.600559,47.5010926 868.891564,47.7098383 868.891564,47.9450448 L868.891564,47.0453801 C868.891564,46.8366343 868.891564,46.6278886 869.209851,46.4309032 C869.573607,46.7043307 869.691828,46.9777582 869.855519,47.2658861 C870.901318,46.8483947 870.983163,46.7837129 871.101384,46.7190311 C875.621057,47.2012044 876.021189,47.2923469 876.3031,47.3834894 C875.375521,46.9659979 874.811699,46.8219339 874.811699,46.6543493 C878.003661,46.2603785 878.121881,46.1721761 878.121881,46.1045542 C879.131305,46.6543493 879.613282,46.8101736 880.140729,46.9395372 C879.613282,46.6396489 879.458686,46.495585 879.131305,46.3926821 C881.959511,47.0571404 882.114107,47.3041072 882.441488,47.5275533 C882.441488,47.2012044 882.523333,46.8866157 882.523333,46.5749672 C883.569133,47.1747436 883.450912,47.3188076 883.450912,47.4217104 C884.333021,47.0189193 885.187848,45.9487299 886.142709,46.0663332 C886.315493,46.5749672 886.433714,46.6925704 886.433714,46.8101736 C886.433714,46.6131882 886.388244,46.4191429 886.506465,46.2221575 C888.734473,46.67787 888.852694,46.8219339 889.05276,46.9659979 C888.689003,46.6278886 888.443468,46.495585 888.207026,46.3779817 C892.317473,46.1045542 891.917341,45.9604903 891.398988,45.8575874 C896.155102,45.9487299 896.600704,46.131015 897.164526,46.2103971 C896.718925,45.6635421 896.682549,45.6106207 896.600704,45.5576992 C895.955036,45.113747 895.873191,45.0872863 896.109633,45.0226045 C899.501661,45.1784288 899.419815,45.4136352 899.501661,45.5694595 C900.065483,46.1457154 900.029107,46.2368579 900.029107,46.3397607 C900.065483,46.5602667 900.311018,46.8483947 900.747526,47.0189193 C900.511084,46.8866157 900.511084,46.5867275 900.674775,46.4456036 C902.484463,45.9751907 902.802749,45.9604903 902.566308,45.8840482 C901.156752,45.3254328 900.829371,45.2695713 900.911216,45.1931292 C904.50331,45.6753024 904.585156,45.7782053 904.785222,45.9105089 C904.903442,45.3107324 904.867067,45.2195899 904.903442,45.1402077 C906.240247,45.7399842 906.440313,45.8311267 906.640379,45.8958085 C907.286046,45.6341413 906.522158,45.4136352 906.676755,45.2695713 C908.259095,45.7135235 908.213625,45.8575874 908.29547,46.0016514 C912.687828,45.6635421 912.851518,45.6341413 912.978833,45.5959203 C912.978833,46.0663332 912.733298,46.1839364 912.405917,46.2897793 C910.959985,46.7043307 910.232473,46.8366343 910.068782,46.9924586 C911.078206,46.7307914 911.687498,46.6131882 912.25132,46.4838246 C914.306544,45.9751907 914.833991,45.8458271 915.470564,45.7929057 C918.180549,46.2103971 918.135079,46.2750789 918.098704,46.3397607 C922.854818,46.5867275 922.654752,46.6925704 922.536531,46.8101736 C921.890864,47.371729 921.690798,47.5393136 921.399793,47.6833776 C923.018508,47.3834894 923.336795,47.2276651 923.655082,47.0453801 C924.591754,46.4573639 924.62813,46.3015396 924.79182,46.2603785 C926.083156,46.6661097 926.410536,46.7719526 926.810668,46.7719526 C927.128955,46.4309032 927.292645,46.3280004 927.329021,46.2221575 C928.702201,46.2486182 929.311493,46.495585 929.993536,46.7454918 C930.966584,47.2129647 930.966584,47.2923469 931.039336,47.3834894 C931.530407,47.8127412 931.730473,47.9038837 931.812318,47.9979662 C931.730473,47.698078 931.730473,47.5275533 931.685003,47.3570286 C931.412186,46.7837129 931.412186,46.67787 931.412186,46.6131882 C931.484937,46.2897793 931.330341,46.0281121 931.685003,46.0016514 C937.177724,46.3133 937.014034,46.5367461 937.014034,46.6925704 C937.014034,46.8748554 936.932188,47.0836011 937.059503,47.2658861 C937.37779,46.7954732 937.414166,46.6014279 937.54148,46.4309032 C940.442437,46.0780935 940.487907,45.9898911 940.442437,45.9105089 C945.362242,45.5459389 945.280397,45.5047778 945.280397,45.3636539 C948.072227,45.8722878 948.508734,46.0663332 948.872491,46.0398725 C948.508734,45.4665567 948.508734,45.3489535 948.345044,45.2460506 C949.763694,45.5047778 949.472688,45.7135235 949.436313,45.8958085 C951.418785,45.5459389 951.173249,45.3871745 951.091404,45.3254328 C951.373315,45.0226045 951.891668,44.8520798 952.219049,44.7638774 C953.792295,44.3699066 953.91961,44.2817042 953.955985,44.1876216 C954.601653,44.6580345 954.556183,44.7109559 954.647122,44.7374167 C957.057008,44.931462 955.974833,45.1019867 954.965409,45.3254328 C958.839414,45.6488417 958.957635,45.7546846 959.075856,45.7782053 C959.003105,45.478317 958.957635,45.3636539 958.957635,45.2460506 C960.121655,45.1519681 959.839744,44.8285592 960.012529,44.5139705 C964.568577,44.931462 964.841394,44.931462 964.932333,44.9579227 C965.286996,45.440096 965.41431,45.5312385 965.532531,45.6341413 C965.732597,45.8311267 965.850818,46.0398725 966.059978,46.2368579 C966.78749,46.6925704 966.905711,46.7719526 967.023932,46.8101736 C967.105777,46.6278886 966.742021,46.4309032 966.46011,46.2750789 C966.132729,46.0927939 965.932663,45.8575874 965.768973,45.6488417 C965.568907,45.1402077 965.487062,45.0490652 965.532531,44.9461624 C968.187952,45.3636539 968.724493,45.4665567 969.161001,45.4930174 C967.715069,45.0872863 966.987556,45.0637656 966.423734,44.9461624 C964.759549,44.5022102 964.759549,44.422828 964.759549,44.3316855 C967.069402,44.566892 967.023932,44.7638774 967.223998,44.8785405 C967.987886,44.7638774 967.869666,44.5139705 967.869666,44.2934645 C970.779716,43.7701301 971.179848,43.6143058 971.425384,43.6407665 C971.261694,44.3699066 970.779716,44.6198134 970.734247,44.8785405 C971.498135,44.4875098 971.707295,44.3699066 971.952831,44.240543 C973.516983,43.8495123 973.280541,43.6789876 973.644298,43.6143058 C976.663475,44.1758612 976.545254,44.2817042 976.699851,44.3434458 C980.219194,44.0847187 981.019457,43.9406548 981.101303,43.7436694 C986.985062,43.3790994 987.276067,43.2761965 987.594353,43.2115148 C992.514158,42.8587051 992.714224,42.7940233 992.677848,42.7028808 C998.043254,42.4529739 998.361541,42.3236104 998.770767,42.2589286 C999.49828,42.7411018 999.898412,42.8587051 1000.18032,42.9910087 C1001.14428,43.4202605 1001.38981,43.5760848 1001.7081,43.5760848 C1001.07153,43.1321326 1000.98968,42.9763083 1000.87146,42.8175439 C1005.50026,43.2379755 1004.41808,43.4584815 1003.0449,43.4584815 C1008.04655,42.9910087 1008.32847,43.0292297 1008.69222,43.0939115 C1009.85624,43.4849423 1009.81987,43.6290062 1009.78349,43.7583698 C1009.73802,43.9553552 1009.65618,44.202322 1009.78349,44.384607 C1010.22,43.8612726 1010.30184,43.7201487 1010.42916,43.5760848 C1011.27489,42.9233868 1011.43858,42.7675626 1011.72049,42.6117383 C1015.63087,43.1056718 1014.86699,43.2614961 1014.41229,43.367339 C1014.98521,43.7848305 1014.94883,43.8612726 1014.86699,43.9406548 C1014.82152,44.3199252 1014.73967,44.3993074 1014.73967,44.4757495 C1015.42171,43.9788758 1015.51265,43.837752 1015.74909,43.7201487 C1018.00438,43.5378637 1017.80432,43.3555787 1017.56788,43.1968143 C1017.07681,42.7528622 1016.95858,42.6764201 1017.00405,42.5705771 C1019.54125,42.1942468 1019.37756,42.0766436 1019.09565,42.0119618 C1021.31457,42.494135 1021.19635,42.5176557 1021.19635,42.5323561 C1023.13335,42.4529739 1023.77902,42.1530857 1024.29737,42.0354824 C1024.58837,42.5705771 1023.89724,42.7793229 1023.94271,42.9233868 C1024.98851,42.6499593 1025.43411,42.494135 1025.91608,42.3500711 C1027.16195,42.6352589 1027.57118,42.8175439 1027.81671,42.9498476 C1028.17137,42.5588168 1028.05315,42.4412136 1028.08953,42.3765318 C1030.02653,42.7293415 1030.11747,42.8175439 1030.19022,42.8969261 C1033.57316,43.3144176 1033.57316,43.5378637 1033.57316,43.7701301 C1033.57316,44.202322 1033.46403,44.4639892 1033.57316,44.5139705 C1034.1006,43.875973 1034.18245,43.6672273 1034.27339,43.4731819 C1034.38251,43.2232751 1034.74627,42.9910087 1034.70989,42.7293415 C1035.51016,43.2379755 1035.80116,43.4584815 1036.23767,43.4967026 C1036.08307,43.0145293 1035.96485,42.8734055 1036.0376,42.8175439 C1038.93856,43.329118 1039.14772,43.3937998 1039.31141,43.4202605 C1039.14772,44.0729584 1038.98403,44.240543 1038.82943,44.422828 C1041.40301,44.0053366 1041.5667,43.9024337 1041.52123,43.8230516 C1042.93988,44.4110677 1042.85804,44.5022102 1042.85804,44.6198134 C1043.57645,44.1611608 1043.57645,44.1229398 1043.70377,44.0847187 C1044.74957,44.4375284 1044.74957,44.5404313 1044.83141,44.6462742 C1047.65962,45.1019867 1047.53231,45.2695713 1047.25039,45.4136352 C1048.54173,45.9604903 1048.30529,46.1045542 1048.05975,46.2486182 C1047.65962,46.4456036 1047.16855,46.6543493 1046.85026,46.8748554 C1047.61415,46.6014279 1048.10522,46.2368579 1048.95095,45.9751907 C1051.85191,45.6900028 1051.77007,45.5694595 1051.57,45.478317 C1052.41573,45.0226045 1053.10687,44.931462 1053.507,44.8138588 C1059.07248,44.6462742 1059.39076,44.566892 1059.71814,44.5022102 C1060.16374,43.9553552 1060.60935,43.9553552 1060.92763,43.9406548 C1062.81917,43.5878451 1063.02833,43.4731819 1063.34661,43.4202605 C1066.93871,43.8495123 1067.42068,43.875973 1067.74806,43.8612726 C1068.95755,44.4875098 1068.34826,44.9461624 1068.31189,45.440096 C1068.51195,45.2313502 1068.63017,45.0108442 1068.83024,44.8020984 C1069.92151,44.3199252 1069.52138,44.1376402 1069.52138,43.9141941 C1070.28526,43.4731819 1070.48533,43.3790994 1070.6854,43.2614961 C1071.01278,43.0792111 1071.33106,42.8851658 1071.69482,42.7146411 C1073.34991,43.2115148 1072.90431,43.2614961 1072.74062,43.2879569 C1072.50418,43.7201487 1072.74062,43.8230516 1072.86793,43.9406548 C1073.11347,43.4055601 1073.27716,43.3790994 1073.38629,43.329118 C1075.20507,42.9116265 1075.12322,42.8440047 1074.92316,42.7793229 C1080.65232,43.0145293 1080.57048,43.1321326 1080.60685,43.2379755 C1080.97061,43.0145293 1080.69779,42.6911205 1081.17977,42.4794346 C1085.97226,42.7940233 1086.25417,42.8440047 1086.54517,42.9116265 C1088.40033,43.6143058 1088.51855,43.875973 1089.00053,44.0847187 C1088.91868,43.511403 1088.83684,43.367339 1088.67315,43.2497358 C1087.70919,42.7293415 1086.90893,42.3236104 1087.59097,42.1677861 C1089.40975,42.6117383 1089.68257,42.6911205 1089.80989,42.7940233 C1089.36428,42.2177675 1089.16422,42.0884039 1089.11875,41.9590403 C1094.32956,41.9061189 1094.32956,42.1795464 1094.40231,42.4529739 C1094.49325,42.6911205 1094.72969,42.9351472 1094.72969,43.185054 C1094.77516,42.9910087 1095.0116,42.8057836 1095.04798,42.6117383 C1095.04798,42.4294533 1095.0116,42.2442282 1095.09345,42.0648833 C1095.73911,41.5680096 1095.93918,41.5150881 1096.09378,41.4768671 C1097.51243,41.8678978 1097.59427,42.0501828 1097.63065,42.1795464 C1097.91256,42.0119618 1097.79434,41.8032161 1097.94893,41.617991 C1101.25912,42.1148646 1101.50465,42.1148646 1101.46828,42.2060071 C1099.24936,42.8057836 1098.80376,42.8969261 1098.35816,43.002769 C1097.59427,43.1968143 1096.70307,43.3555787 1095.98465,43.549624 C1099.69496,43.1203722 1100.17694,42.9498476 1100.65892,42.7793229 C1102.26854,42.2324679 1102.55045,42.1148646 1103.04152,42.129565 C1103.5235,43.0409901 1102.91421,43.5878451 1102.43223,44.1111795 C1102.79599,43.8612726 1103.04152,43.731909 1103.20521,43.5760848 C1103.80541,43.1968143 1103.92363,43.0792111 1104.04185,42.9910087 C1106.70637,43.3144176 1106.75184,43.5760848 1107.11559,43.837752 C1107.96133,44.4757495 1108.12502,44.6697948 1108.44331,44.8285592 C1108.07955,44.1494005 1107.91586,43.9406548 1107.79764,43.7201487 C1107.67942,43.511403 1107.59757,43.2879569 1107.59757,43.0674508 C1107.87948,42.4412136 1108.03408,42.4412136 1108.32508,42.494135 C1110.21662,43.0674508 1110.46215,43.1703536 1110.62584,43.2879569 C1109.81649,43.8612726 1109.85286,43.9788758 1109.98018,44.0847187 C1112.71744,44.4757495 1112.88113,44.5815924 1113.11757,44.5933527 C1112.55375,44.0964791 1112.39006,44.0053366 1112.31731,43.9024337 C1111.83533,43.329118 1111.83533,43.2497358 1111.78986,43.1438929 C1115.4638,43.5613844 1115.78209,43.5613844 1115.98216,43.6554669 C1118.6012,44.1611608 1118.89221,44.2258426 1119.21049,44.2817042 C1118.72852,43.7583698 1118.4466,43.6025455 1117.83731,43.4967026 C1115.70024,42.9910087 1115.62749,42.8175439 1115.38196,42.6234986 C1118.64667,42.9116265 1118.40114,43.002769 1118.21016,43.1438929 C1119.70156,42.7146411 1119.98348,42.5852775 1120.38361,42.494135 C1120.21992,42.8587051 1120.21992,42.9763083 1120.26539,43.0674508 C1121.71132,42.6234986 1122.12054,42.5058954 1122.43883,42.4794346 C1122.43883,43.0292297 1122.56615,43.1438929 1122.6389,43.2614961 C1123.28456,42.7528622 1123.5301,42.6234986 1123.76654,42.4676743 C1126.99488,42.1148646 1126.9585,42.0237221 1127.32226,41.9855011 C1133.73346,42.1795464 1133.94262,42.2324679 1134.05175,42.3353707 C1137.85301,42.7411018 1137.85301,42.7293415 1137.88938,42.8057836 C1137.88938,43.1585933 1137.85301,43.6143058 1138.25314,43.549624 C1138.77149,42.9498476 1138.81696,42.8734055 1138.93518,42.7793229 C1140.35383,42.1530857 1140.75396,42.0119618 1141.23594,41.9590403 C1146.20121,42.4029925 1146.40128,42.4412136 1146.63772,42.4794346 C1144.01868,41.8796582 1144.01868,41.6591521 1144.46428,41.58271 C1147.4107,41.2151999 1148.0109,40.9417724 1148.42013,40.9946939 C1148.9021,41.5033278 1149.13855,41.6326914 1149.10217,41.7502946 C1151.68484,42.31185 1152.13044,42.4029925 1152.44873,42.5441164 C1153.74006,43.0556905 1154.10382,43.2232751 1154.66764,43.3144176 C1157.97783,43.7583698 1158.50527,43.837752 1158.98725,43.8112912 C1157.33216,43.4437811 1156.80471,43.3790994 1156.44095,43.2761965 C1154.26751,42.7411018 1153.82191,42.6352589 1153.42178,42.494135 C1152.61242,42.2177675 1151.68484,41.9855011 1151.19377,41.6473918 C1150.71179,40.9799934 1150.51173,40.744787 1150.95733,40.6418842 C1152.4942,41.071136 1152.73064,41.0858364 1153.01255,41.1505181 C1156.9684,41.4651068 1157.01387,41.58271 1157.13209,41.6062307 C1157.65044,41.4504064 1157.25031,41.0975967 1157.36853,40.8888509 C1160.84241,41.1887392 1160.59687,41.3328031 1160.39681,41.5150881 C1159.58745,42.3882921 1159.66929,42.8322443 1159.70567,43.2232751 C1159.70567,43.4320208 1159.75114,43.6407665 1159.75114,43.837752 C1159.75114,44.0435576 1160.03305,44.1876216 1160.15127,44.384607 C1160.36043,44.9197017 1160.44227,44.9843835 1160.46956,45.0637656 C1160.64234,44.5521916 1160.46956,44.384607 1160.39681,44.1876216 C1160.31496,44.0053366 1160.15127,43.837752 1160.07852,43.6554669 C1159.99667,43.4584815 1160.03305,43.2614961 1160.03305,43.0674508 C1159.99667,42.6352589 1160.23311,42.2060071 1160.67872,41.8149764 C1160.92425,41.617991 1161.16979,41.4239456 1161.60629,41.2828218 C1164.4345,41.4651068 1164.18896,41.617991 1164.18896,41.8032161 C1168.34488,42.0884039 1167.78106,42.2971496 1167.85381,42.4676743 C1169.67259,42.0354824 1169.79081,42.0354824 1169.83628,41.9061189 C1170.88208,41.7885157 1170.71839,41.3710242 1171.04577,41.3592639 C1171.04577,41.8296768 1171.08215,41.9178792 1171.12762,42.0237221 C1171.25493,42.3882921 1171.20946,42.4794346 1171.16399,42.5705771 C1170.96393,42.8734055 1170.48195,43.2614961 1169.83628,43.4967026 C1168.29941,44.0435576 1167.93566,44.202322 1167.53552,44.3316855 C1169.5089,43.7201487 1169.87266,43.5378637 1170.28188,43.367339 C1171.28221,42.9498476 1171.56412,42.8851658 1171.77328,42.8057836 C1172.5008,43.4584815 1172.78271,43.5760848 1173.01915,43.7054483 C1173.05553,43.2614961 1172.9464,43.1203722 1172.78271,42.9910087 C1172.33711,42.3882921 1172.61902,42.3236104 1172.78271,42.2706889 C1173.82851,41.6473918 1174.19226,41.4886274 1174.27411,41.3210428 C1174.22864,41.5680096 1173.91035,41.8414371 1174.07404,42.0884039 C1174.02857,42.4029925 1173.42838,42.4676743 1173.05553,42.6117383 C1176.04742,42.3236104 1176.49302,42.2060071 1176.89316,42.1031043 C1181.69474,42.494135 1182.09487,42.5176557 1182.5041,42.5176557 C1185.96888,42.7793229 1185.08677,42.9498476 1184.8867,43.185054 C1186.45085,42.7528622 1186.65092,42.6911205 1186.85099,42.6352589 C1188.38786,43.002769 1188.43333,43.2497358 1188.63339,43.4849423 C1189.60644,44.1376402 1189.76104,44.3052248 1190.08842,44.4492888 C1189.76104,44.020037 1189.67919,43.875973 1189.56097,43.731909 C1189.31543,43.3790994 1188.9153,43.0556905 1188.95168,42.7028808 C1191.37066,42.1530857 1191.94357,42.0237221 1192.54377,41.9443399 C1192.01633,42.5176557 1191.97995,42.5852775 1191.97995,42.6617196 C1191.49797,43.2232751 1191.53435,43.4055601 1191.29791,43.5613844 C1192.58924,43.0939115 1192.67109,42.9498476 1192.82568,42.8587051 C1192.70746,43.4202605 1192.78931,43.5378637 1192.78931,43.6554669 C1193.35313,43.3144176 1193.47135,43.1968143 1193.67142,43.0939115 C1194.31708,43.6789876 1194.23524,43.7583698 1194.11702,43.8230516 C1194.84453,43.4437811 1195.0446,43.2379755 1195.32651,43.0292297 C1195.57204,42.8440047 1195.72664,42.6234986 1196.01765,42.4412136 C1195.89033,42.7028808 1195.81758,43.0292297 1196.21771,43.2614961 C1196.58147,43.4849423 1196.89975,43.731909 1197.34536,43.9288945 C1198.0274,44.6198134 1198.0274,44.7374167 1198.15471,44.9050013 C1198.67307,44.605113 1198.71854,44.4875098 1198.71854,44.3699066 C1199.56427,44.893241 1200.12809,44.9696831 1200.61007,45.0637656 C1200.57369,44.8285592 1200.08262,44.6198134 1199.5188,44.4110677 C1198.75491,44.020037 1199.11867,43.8495123 1199.40058,43.837752 C1200.20994,43.549624 1200.8556,43.3144176 1201.4558,43.2115148 C1203.47465,43.511403 1203.47465,43.6554669 1203.43827,43.7965908 C1203.75656,43.2497358 1203.83841,43.1321326 1204.0021,43.0292297 C1205.00243,43.3408783 1204.96605,43.4584815 1204.88421,43.5760848 C1205.93001,43.0409901 1206.30286,42.8851658 1206.62114,42.9351472 C1207.46688,43.4437811 1207.59419,43.4967026 1207.71241,43.549624 C1207.99432,43.1968143 1207.91248,43.0792111 1207.94885,42.9616079 C1208.0307,42.5176557 1208.11254,42.4029925 1208.55815,42.3500711 C1211.78648,42.5176557 1210.97712,42.7028808 1210.8589,42.9351472 C1213.55979,42.5323561 1213.67802,42.494135 1213.84171,42.4529739 C1221.18049,42.4794346 1221.87163,42.3353707 1222.10807,42.2324679 C1227.67354,42.4676743 1227.67354,42.5705771 1227.55532,42.6234986 C1229.65601,43.0556905 1229.29226,43.185054 1229.16494,43.3555787 C1230.05615,42.9910087 1230.21984,42.8587051 1230.4199,42.7293415 C1230.82003,42.5323561 1231.47479,42.3500711 1231.99315,42.2060071 C1232.60244,42.6234986 1232.23868,42.7528622 1231.9113,42.8734055 C1235.58524,43.1321326 1235.73984,43.2497358 1235.90353,43.329118 C1236.95842,43.837752 1237.11302,43.9406548 1237.32218,44.020037 C1238.20429,44.3434458 1238.24066,44.5139705 1238.49529,44.5933527 C1237.72231,43.9406548 1237.35855,43.7848305 1237.19486,43.6025455 C1236.87658,43.329118 1236.59467,43.0792111 1236.59467,42.8057836 C1239.45925,43.2614961 1239.49562,43.3790994 1239.49562,43.4967026 C1241.99645,43.002769 1242.11467,43.0145293 1242.27836,42.9910087 C1243.12409,43.511403 1243.16047,43.693688 1243.36963,43.8612726 C1244.21536,43.9288945 1242.88765,42.9233868 1244.09714,42.9910087 C1249.01694,43.3555787 1248.85325,43.4202605 1248.81688,43.4967026 C1249.01694,43.9788758 1248.9351,44.0317973 1248.81688,44.0847187 C1251.43592,43.693688 1251.55415,43.6025455 1251.7633,43.6025455 C1251.88153,44.0964791 1251.4723,44.1611608 1251.15401,44.2552434 C1251.68146,44.7227163 1251.10854,44.893241 1250.63566,45.0637656 C1252.76363,44.566892 1253.12739,44.4492888 1253.49115,44.5404313 C1254.74611,45.0637656 1254.94617,45.1284474 1255.10986,45.2048895 C1254.81886,44.7374167 1254.4642,44.6462742 1254.9007,44.4875098 C1258.0472,44.9843835 1257.92897,45.075526 1257.97444,45.2048895 C1259.42038,44.7756377 1259.71138,44.6697948 1260.02967,44.5521916 C1259.73866,44.9050013 1259.50222,45.0637656 1259.34762,45.2313502 C1259.05662,45.6253211 1259.02024,45.7135235 1259.02024,45.7664449 C1259.384,45.2195899 1259.54769,45.075526 1259.73866,44.931462 C1263.53082,45.4136352 1263.53082,45.4518563 1263.94005,45.4283357 C1266.52272,45.8193664 1266.60456,45.9898911 1266.80463,46.0545729 C1268.21419,46.6014279 1267.93227,46.67787 1267.76858,46.8101736 C1272.00635,46.6661097 1271.3243,46.4838246 1271.44252,46.3280004 C1273.54322,46.7572522 1273.74328,46.8219339 1273.74328,46.9013161 C1273.77966,46.3397607 1273.94335,46.2750789 1274.10704,46.2221575 C1276.56239,46.7190311 1276.64424,46.8101736 1276.68971,46.8866157 C1277.13531,46.5867275 1277.24444,46.4573639 1277.4536,46.3397607 C1278.74493,45.7782053 1278.13564,45.478317 1278.66309,45.5047778 C1281.36398,46.0134117 1281.72773,46.131015 1282.20971,46.1956967 C1282.17334,45.5312385 1282.45525,45.4518563 1282.70078,45.3254328 C1285.07429,45.7782053 1284.99245,45.8722878 1285.15614,45.8722878 C1285.43805,45.5694595 1285.03792,45.4018749 1284.9197,45.2842717 C1285.15614,44.8403195 1284.55594,44.749177 1284.22856,44.7374167 C1288.58454,44.9843835 1288.46632,45.1519681 1288.38447,45.3489535 C1288.70276,44.9843835 1288.70276,44.8520798 1288.78461,44.7109559 C1288.91192,44.5139705 1288.91192,44.3052248 1288.98467,44.1111795 C1290.83983,44.5933527 1290.83983,44.7374167 1291.0399,44.8138588 C1293.02237,45.2989721 1292.94052,45.3754142 1292.89505,45.4518563 C1294.06817,44.7756377 1294.39555,44.6315738 1294.7593,44.4757495 C1295.85057,44.7638774 1295.88695,44.9050013 1295.8051,45.0226045 C1295.52319,45.6341413 1295.72326,45.7929057 1295.88695,45.9604903 C1296.29618,46.3926821 1296.36893,46.5485064 1296.53262,46.6131882 C1296.45077,46.0927939 1296.45077,45.9751907 1296.45077,45.8458271 C1297.82395,46.2486182 1297.77848,46.3926821 1297.77848,46.5220457 C1298.02402,46.0780935 1298.02402,45.9252093 1298.10586,45.7664449 C1298.26046,45.4283357 1298.30593,45.2695713 1298.42415,45.2313502 C1297.54204,44.6580345 1298.10586,44.5521916 1298.55146,44.5815924 C1298.62422,44.9696831 1298.38777,45.0373049 1298.42415,45.1666685 C1299.79733,44.7638774 1299.96102,44.5933527 1300.16109,44.4639892 C1301.80708,44.9050013 1301.80708,45.0373049 1302.06171,45.1284474 C1302.38,44.8520798 1302.34362,44.7227163 1302.46185,44.5933527 C1307.74541,44.2140823 1307.86363,44.1876216 1308.10916,44.1876216 C1314.44762,44.3316855 1314.96597,44.3199252 1315.44795,44.3316855 C1314.64768,45.0490652 1314.20208,45.3342531 1313.63826,45.5576992 C1314.55674,45.2048895 1315.01144,45.075526 1315.3661,44.931462 C1317.02119,45.1784288 1316.82113,45.4136352 1316.33915,45.6253211 C1317.18488,45.3754142 1317.38495,45.0872863 1317.71233,44.8403195 C1319.56749,45.4018749 1319.56749,45.4930174 1319.60386,45.5694595 C1319.76755,46.0663332 1319.72208,46.1721761 1319.80393,46.2750789 C1319.96762,46.1457154 1319.68571,45.7664449 1319.8494,45.4136352 C1322.3866,45.9252093 1322.66851,45.9751907 1323.06864,46.0134117 C1321.54087,45.5841599 1320.73151,45.4665567 1320.24953,45.2460506 C1320.4496,44.749177 1320.33138,44.605113 1320.49507,44.4757495 C1325.48762,44.8667802 1325.65131,44.931462 1325.69678,44.9961438 C1326.13329,45.4018749 1326.29698,45.4930174 1326.37883,45.5841599 C1326.01507,44.9843835 1325.93322,44.787398 1326.06054,44.6991956 C1331.26225,45.0637656 1331.26225,45.2195899 1331.42594,45.3254328 C1331.74423,44.9197017 1331.82608,44.8138588 1331.9443,44.7109559 C1334.29053,45.0637656 1333.68123,45.2048895 1333.39932,45.2842717 C1336.62766,45.8575874 1336.90957,45.8958085 1337.19148,45.9487299 C1337.63708,46.3779817 1337.67346,46.4838246 1337.67346,46.5867275 C1338.23728,46.2750789 1338.28275,46.1192546 1338.43735,46.0398725 C1340.21975,46.3662214 1340.41982,46.4720643 1340.53804,46.5749672 C1341.02002,47.1747436 1341.06549,47.371729 1341.14733,47.554014 C1341.22008,47.7215987 1341.22008,47.9038837 1341.22008,48.0861687 C1341.51109,47.7215987 1341.58384,47.515793 1341.66569,47.4863922 C1341.91122,47.1365226 1341.82938,46.9659979 1341.91122,46.8219339 C1341.98397,46.2486182 1341.78391,46.2103971 1341.74753,46.1721761 C1344.53027,46.6396489 1344.7758,46.7572522 1345.09409,46.8219339 C1345.17593,46.4573639 1344.89402,46.3662214 1344.89402,46.2897793 C1347.34938,46.495585 1347.27663,46.7719526 1347.27663,47.0189193 C1347.27663,47.515793 1347.27663,47.6569169 1347.44032,47.6833776 C1347.44032,47.4364108 1348.08599,47.2129647 1348.32243,46.9777582 C1351.55076,47.4364108 1351.05969,47.5393136 1350.62319,47.6569169 C1356.91617,48.0214869 1357.36177,48.1802513 1357.59821,48.3625363 C1356.75248,47.8539023 1356.67063,47.8009808 1356.67063,47.7362991 C1360.26273,47.2541258 1360.74471,47.2129647 1361.07209,47.3041072 C1366.99222,47.333508 1367.35598,47.4364108 1367.68336,47.5393136 C1372.36672,47.7745201 1372.76685,47.8274416 1372.8487,47.9303444 C1373.04876,48.1655508 1372.28488,48.427218 1372.00296,48.6242034 C1371.63921,48.8300091 1371.67558,49.079916 1371.67558,49.3121823 C1372.28488,48.753567 1372.44857,48.5448213 1372.72138,48.3625363 C1373.97634,48.8182488 1373.49437,49.0269945 1373.49437,49.2092795 C1374.62201,48.6888852 1374.74023,48.6359638 1374.86755,48.5830423 C1375.74966,48.9740731 1376.19526,49.3386431 1376.39532,49.6914528 C1376.19526,50.173626 1376.15888,50.2265475 1376.15888,50.2677086 C1376.11341,50.7881029 1376.19526,50.9821482 1376.44079,51.193834 C1376.96824,50.6175782 1376.96824,50.4617539 1377.00461,50.3059296 C1377.1683,49.95312 1377.60481,49.6796924 1377.85035,49.3386431 C1377.96857,49.1445977 1377.96857,48.935852 1378.16863,48.7388666 C1378.8234,48.2302326 1379.02346,48.1655508 1379.09621,48.0744083 C1382.6974,47.4628715 1383.01569,47.2805865 1383.37944,47.1218222 C1384.42524,46.6661097 1384.66169,46.5602667 1384.90722,46.5102854 C1385.2346,47.0189193 1384.98907,47.1629833 1384.87085,47.3041072 C1384.42524,47.8539023 1384.1888,48.1802513 1384.3434,48.2037719 C1385.2346,47.7215987 1385.55289,47.3981898 1385.88027,47.0836011 C1386.39862,46.6543493 1386.51684,46.5220457 1386.76238,46.4838246 C1387.41714,46.9395372 1387.61721,47.0306797 1387.61721,47.1100619 C1387.65358,46.7719526 1388.33562,46.5220457 1389.06314,46.2897793 C1392.29147,46.7190311 1392.16416,46.7719526 1391.97319,46.860155 C1391.40027,47.0836011 1391.00014,47.3570286 1390.60001,47.6039954 C1394.11026,47.2012044 1394.3467,47.1747436 1394.59223,47.1365226 C1394.99237,47.7627598 1394.71045,47.880363 1394.3467,48.0097266 C1396.03817,47.4863922 1396.08363,47.4364108 1396.20186,47.4099501 C1397.49319,47.7862804 1396.36555,47.8127412 1396.08363,48.0361873 C1395.71988,48.4801395 1395.3925,48.5448213 1395.19243,48.6624245 C1397.98426,48.2184723 1398.38439,48.0744083 1398.8209,47.9979662 C1401.24897,47.5010926 1401.56726,47.4099501 1401.88555,47.333508 C1402.8586,47.8656626 1402.54031,48.0214869 1402.49484,48.2037719 C1401.53089,48.7800277 1401.20351,48.8447095 1400.95797,48.9093913 C1402.69491,49.0534552 1402.29477,49.2886617 1401.93102,49.482707 C1401.56726,49.6796924 1401.12166,49.8502171 1400.63968,50.0178017 C1399.43019,50.3970722 1398.62084,50.8792454 1397.82057,51.3467182 C1398.90275,50.9968486 1399.2665,50.8527847 1399.58479,50.7087207 C1400.07586,50.4882147 1400.52146,50.2530082 1401.07619,50.0707232 C1401.73095,49.8619775 1402.37662,49.6003103 1402.64944,49.3268828 C1403.22235,48.8064885 1403.25873,48.6624245 1403.38604,48.5301209 C1404.23178,48.1008691 1403.91349,47.8921233 1403.62249,47.7745201 C1404.63191,48.1008691 1404.7956,48.2302326 1404.99567,48.3478359 C1405.2412,48.7800277 1404.7956,48.9623127 1404.7956,49.1298973 C1406.20516,48.6624245 1405.996,48.609503 1405.88687,48.5301209 C1408.78783,48.1008691 1409.10611,48.0361873 1409.39712,48.062648 C1409.51534,48.6477241 1409.55171,48.8064885 1409.51534,48.9740731 C1409.99731,48.4536788 1410.03369,48.3096148 1410.24285,48.1802513 C1412.33445,48.609503 1412.37992,48.7917881 1412.2526,48.9476123 C1419.43679,48.9240917 1419.51864,48.9623127 1419.68233,49.0005338 C1420.92819,49.482707 1420.28253,49.8884382 1420.11884,50.0178017 C1418.99119,50.4205928 1418.6729,50.4882147 1418.42737,50.6028778 C1422.10131,50.1618657 1422.46506,50.135405 1422.70151,50.1618657 C1422.94704,50.6322786 1422.70151,50.8792454 1422.29228,51.0350697 C1423.82915,50.68226 1424.03831,50.5911175 1424.23838,50.5264357 C1423.62908,50.8792454 1422.98342,51.0615304 1422.33775,51.2055944 C1424.83857,50.8145636 1425.44787,50.720481 1426.21175,50.7087207 C1427.30302,50.902766 1426.97564,51.2967369 1427.13933,51.6613069 C1427.66678,51.229115 1427.82138,51.1262122 1427.98507,51.0350697 C1431.94092,51.6230858 1431.65901,51.8700526 1431.41347,52.0905587 C1431.29525,52.6403538 1431.2134,52.8079384 1431.09518,53.0166841 C1431.57716,52.5874323 1431.65901,52.3904469 1431.77723,52.1964016 C1431.94092,51.9994162 1432.2683,51.7642097 1432.74118,51.6230858 C1435.00556,51.9994162 1434.96919,52.0523376 1434.88734,52.1434801 C1436.49696,52.4962898 1436.54243,52.7167959 1436.57881,52.8608598 C1436.57881,52.6785748 1436.57881,52.4815894 1436.66066,52.2993044 C1438.07021,52.5345109 1438.03384,52.8343991 1438.15206,52.9520023 C1438.76135,53.4341756 1439.07963,53.5664792 1439.07963,53.669382 C1439.68893,53.448876 1439.7253,53.1989691 1439.7253,52.940242 C1441.18033,53.5664792 1441.01664,53.7223035 1440.81657,53.9016484 C1441.69868,53.3165724 1441.98059,53.1989691 1442.2625,53.0960663 C1445.12708,53.2783513 1445.00886,53.4988574 1444.84517,53.669382 C1446.38204,53.3312728 1446.46389,53.1989691 1446.54573,53.1342873 C1447.70975,52.5492113 1447.83707,52.4962898 1448.15536,52.4962898 C1451.94752,52.7432566 1451.86567,52.9255416 1451.94752,53.0813659 C1452.2658,53.0696056 1452.34765,52.5991926 1452.34765,52.4962898 C1453.60261,51.9611951 1453.55714,51.8965133 1453.48439,51.8288915 C1456.58541,52.2993044 1456.63088,52.3904469 1456.98554,52.4551287 C1458.40419,52.2346226 1458.44057,52.0405773 1458.32235,51.8965133 C1458.92254,52.246383 1459.04986,52.3522259 1459.08623,52.4433684 C1462.43279,52.8873206 1462.46917,52.9784631 1462.63286,53.0166841 C1463.85144,52.5727319 1464.05151,52.4815894 1464.2061,52.3904469 C1469.08953,52.940242 1469.2896,53.0813659 1469.53513,53.2401303 C1469.53513,52.8226388 1469.2896,52.5727319 1469.37144,52.3786866 C1473.93659,52.5345109 1472.88169,52.7050356 1472.99991,52.9667027 C1474.77323,52.4962898 1475.38252,52.3522259 1475.78265,52.428668 C1476.91029,51.9611951 1477.00123,51.9229741 1477.23768,51.8553522 C1479.90219,52.0905587 1479.65665,52.2993044 1479.62028,52.5080501 C1479.77488,53.122527 1479.62028,53.304812 1479.70212,53.4723966 C1481.63003,53.0166841 1482.15748,52.9667027 1482.43939,52.9255416 C1486.84084,53.4224153 1486.84084,53.5282582 1486.92269,53.6429213 C1488.16855,54.2956193 1488.65053,54.5572864 1488.65053,54.7395714 C1488.41409,54.178016 1488.16855,54.0751132 1488.05033,53.9428096 C1487.47742,53.487097 1487.45013,53.3430331 1487.52289,53.1989691 C1490.54206,53.2401303 1490.633,53.487097 1490.58753,53.7340638 C1491.2332,53.2401303 1491.35142,53.1489878 1491.71518,53.1725084 C1492.48816,53.6047003 1492.48816,53.8399067 1492.48816,54.0339521 C1492.88829,53.5664792 1492.97014,53.5135578 1493.05198,53.4606363 C1497.88994,53.8663675 1497.8081,53.9163488 1497.85357,53.9692703 C1498.21732,53.487097 1498.21732,53.3959545 1498.29007,53.3430331 C1500.51808,52.8343991 1500.67268,52.7697173 1500.95459,52.7844177 C1501.20012,52.9667027 1501.03643,53.1607481 1501.11828,53.3547934 C1502.37324,52.8608598 1502.48237,52.8608598 1502.69153,52.7697173 C1503.6191,53.2254299 1503.33719,53.3812541 1503.05528,53.5282582 C1505.14688,53.8781278 1505.14688,54.0074913 1504.99228,54.139795 C1503.65548,54.4926047 1503.45541,54.5572864 1503.20988,54.6601893 C1504.10108,55.3893293 1503.70095,55.5480937 1503.25535,55.7156783 C1502.24592,56.1596305 1502.17317,56.2272523 1502.04586,56.3036944 C1503.13713,55.924424 1503.45541,55.7568394 1503.7737,55.742139 C1505.67433,55.3511082 1506.23815,55.1570629 1506.60191,54.9336168 C1507.29304,54.3750014 1507.44764,54.2956193 1507.41126,54.2309375 C1509.10273,54.7777925 1509.50286,54.868935 1509.94846,54.9600775 C1510.6396,55.3893293 1510.67598,55.6392362 1510.75782,55.8597422 C1510.83967,56.0420272 1510.83967,56.2272523 1510.7942,56.4095373 C1511.0852,55.9891058 1511.12158,55.8068208 1511.12158,55.6392362 C1513.90431,56.106709 1513.94978,56.2772337 1513.94978,56.4477584 C1514.02254,56.2772337 1513.90431,56.0831884 1513.85885,55.9126637 C1515.75947,55.41579 1515.84132,55.41579 1515.91407,55.4040297 C1513.65878,55.195284 1513.57693,55.0247593 1513.50418,54.8571747 C1513.42234,54.6219682 1513.37687,54.3750014 1513.25865,54.139795 C1514.02254,54.5690468 1513.85885,54.6337285 1513.70425,54.6748897 C1516.88712,55.0776807 1517.13265,55.1688232 1517.16903,55.2599657 C1517.2054,54.7630921 1517.33272,54.68665 1517.41456,54.5808071 C1517.49641,54.9483172 1517.37819,55.05122 1517.33272,55.1570629 C1517.25087,55.5216329 1517.13265,55.6127754 1517.01443,55.7156783 C1518.21483,55.0394597 1518.34214,54.8571747 1518.42399,54.68665 C1518.86959,54.0986338 1518.86959,54.0221917 1518.90596,53.9428096 C1521.97061,53.4224153 1521.88877,53.3547934 1521.93424,53.2518906 C1523.1801,53.7487642 1523.26195,53.8781278 1523.29832,53.995731 C1523.74392,54.5690468 1523.58933,54.7630921 1523.42564,54.9747779 C1523.1801,55.233505 1522.7345,55.4834119 1522.5799,55.7568394 C1522.45259,55.9773455 1522.53443,56.2125519 1522.45259,56.433058 C1522.41621,56.615343 1522.41621,56.797628 1522.41621,56.9828531 C1522.41621,57.1651381 1522.37074,57.3327227 1522.45259,57.5150077 C1522.53443,57.5032474 1522.61628,57.2415802 1522.61628,56.9828531 L1522.61628,56.4477584 C1522.77997,55.5216329 1523.34379,55.1188419 1523.86214,54.724871 C1524.75335,54.178016 1525.03526,54.0868735 1525.31717,54.0221917 C1527.00864,54.4396832 1526.69035,54.7131107 1526.97226,54.7777925 C1534.59296,55.0012386 1535.44778,54.7895528 1536.24805,54.6601893 C1539.92199,54.3485407 1540.28574,54.2426978 1540.56765,54.1515553 C1541.08601,54.5955075 1540.68588,54.9747779 1540.2039,55.3128872 C1539.92199,55.5069325 1539.67645,55.7156783 1539.43092,55.924424 C1539.55823,55.8715025 1540.92232,55.6392362 1541.77714,55.3393479 C1543.26855,55.0394597 1543.43224,54.9218565 1543.66868,54.8042532 C1546.41504,55.2746661 1545.88759,55.6509965 1546.09675,55.7156783 C1545.5693,56.5242005 1545.05095,56.8770102 1544.72357,57.2827413 C1544.52351,57.5150077 1544.39619,57.7766749 1544.27797,58.0236417 C1544.24159,58.5058149 1544.15065,58.5851971 1544.15065,58.69104 C1544.27797,58.4822943 1544.64173,58.2588481 1544.84179,58.0648028 C1545.1237,57.8413567 1545.44199,57.635551 1545.68753,57.4121049 C1546.05128,57.0328344 1546.6151,56.6947252 1546.94248,56.3154547 C1547.10618,56.068488 1547.62453,55.8479819 1547.98828,55.6245358 C1548.39751,55.377569 1548.87039,55.1835236 1549.36146,54.9600775 C1548.95224,54.4632039 1549.19777,54.3867618 1549.316,54.32208 C1549.92529,54.8424743 1549.97076,54.9336168 1549.97076,55.05122 C1552.78987,55.41579 1552.62618,55.5216329 1552.46249,55.6127754 C1558.55541,55.9773455 1558.83732,56.0155665 1559.31929,56.0420272 C1557.6733,55.6010151 1557.2277,55.559854 1557.10038,55.4951722 C1559.08285,54.9747779 1559.52845,54.9336168 1559.84674,54.9483172 C1562.5931,55.4569512 1562.7477,55.5069325 1562.87501,55.5480937 C1563.80259,56.1713908 1563.31152,56.433058 1563.43884,56.7329462 C1567.231,57.2151195 1567.59475,57.3591834 1567.83119,57.4121049 C1571.62335,57.8295963 1571.82342,58.0530425 1572.11442,58.2470878 C1576.06118,58.69104 1576.37947,58.8321639 1576.74322,58.9644675 C1578.56201,59.4084197 1579.00761,59.5113225 1579.53505,59.564244 C1582.07225,60.0199565 1582.23594,60.0581776 1582.39054,60.0993387 C1580.58085,59.564244 1579.45321,59.3937193 1578.64385,59.0673703 C1577.38889,58.4822943 1577.27067,58.4411331 1577.55258,58.4029121 C1581.14468,58.7821825 1581.34474,58.8204036 1581.50843,58.8615647 C1582.56332,59.3025768 1582.76339,59.3937193 1582.91799,59.4731015 C1584.29117,60.0317168 1584.6913,60.0199565 1584.89137,60.0199565 C1585.78257,60.4256877 1585.70072,60.4903694 1585.70072,60.5550512 C1587.07087,60.7020552 1587.74382,60.984303 1587.71957,61.4017945 C1588.89269,60.8549394 1589.09275,60.802018 1589.29282,60.7520366 C1588.5653,61.2841912 1588.44708,61.3371127 1588.48346,61.4017945 C1589.6111,61.8604471 1589.37466,62.0162714 1589.1746,62.183856 C1588.84722,62.4190624 1588.72899,62.6807296 1588.52893,62.9276964 C1589.57473,62.2250171 1589.97486,61.9898106 1590.58415,61.8457467 C1592.1574,61.3900341 1592.32109,61.3371127 1592.43931,61.2724309 C1593.44873,61.6252406 1593.48511,61.8457467 1593.61242,62.0544924 C1593.68518,62.1985564 1593.81249,62.4337628 1593.68518,62.5895871 C1594.17625,62.2250171 1594.21262,62.0544924 1594.37631,62.0544924 C1595.5858,62.5778268 1595.98593,62.877715 1596.39516,62.9159361 C1597.84109,62.4190624 1597.92294,62.1720956 1598.32307,62.0956535 C1599.98725,62.4190624 1600.02363,62.6013474 1599.85994,62.7983328 C1599.6235,63.1099814 1599.05058,63.3834089 1598.60498,63.6862372 C1599.01421,63.5157125 1599.33249,63.3334275 1599.74172,63.1629029 C1600.91483,62.4984446 1600.83299,62.1985564 1601.23312,62.0162714 C1602.56083,62.4455231 1602.6063,62.4984446 1602.80637,62.5895871 C1603.60663,63.1776033 1603.73394,63.2540454 1603.85217,63.3216672 C1604.94343,63.6715368 1605.10712,63.8273611 1605.50726,63.8920429 C1604.49783,63.3569482 1604.37961,63.3334275 1604.29777,63.2805061 C1604.17045,62.8247936 1604.0977,62.7071903 1604.0977,62.5895871 C1604.90706,63.0070786 1605.17988,63.1482024 1605.17988,63.2540454 C1608.45368,63.6715368 1608.40821,63.750919 1608.45368,63.8685222 C1608.45368,64.2713133 1608.25362,64.4388979 1608.33546,64.5182801 C1608.97204,63.9714251 1609.06297,63.8920429 1609.13573,63.8538218 C1612.00031,64.1301894 1612.20037,64.2330923 1612.36406,64.3359951 C1615.1468,63.8920429 1615.47418,63.8273611 1615.95616,63.8538218 C1618.77527,64.5712015 1618.70252,64.8446291 1618.53883,65.0945359 C1619.05718,64.6888048 1619.22087,64.4300777 1619.38456,64.1684105 C1619.621,63.750919 1619.78469,63.6715368 1619.78469,63.5921546 C1622.33099,63.0982211 1622.48558,62.9923782 1622.96756,62.9541571 C1626.0413,63.3716486 1626.24137,63.3981093 1626.4869,63.42457 C1629.06957,63.9831854 1629.34239,64.2066315 1629.78799,64.3124744 C1629.30602,63.750919 1629.34239,63.6068551 1629.83346,63.6979976 C1631.04295,64.1007886 1631.16117,64.1801708 1631.24302,64.2448526 C1632.48888,63.6715368 1632.48888,63.6715368 1632.69804,63.6715368 C1638.01798,63.933204 1637.65422,64.0508072 1637.69969,64.1684105 C1638.49996,64.624123 1638.18167,64.7270258 1637.9816,64.8710898 C1643.74714,65.1180566 1643.41976,65.2621205 1643.01963,65.4061845 C1642.1739,65.7325334 1641.81014,65.8765974 1641.49185,66.0206614 C1643.50161,65.5120274 1643.50161,65.5120274 1643.54708,65.497327 C1644.59288,65.1445173 1644.87479,65.0151537 1644.87479,64.950472 C1645.32039,65.6149302 1645.47498,65.7707545 1645.6023,65.9265788 C1645.43861,65.2121392 1645.1567,64.8181683 1645.92059,64.662344 C1647.29377,64.950472 1647.41199,65.0651351 1647.5393,65.1974387 C1647.65752,65.3797238 1647.82121,65.5620088 1647.93943,65.7442938 C1648.1395,66.0588824 1648.22135,66.3969917 1648.66695,66.6968799 C1648.26681,66.0324217 1647.77574,65.6913723 1647.77574,65.315042 C1647.9849,64.7270258 1648.06675,64.6505837 1648.1395,64.5859019 C1651.24962,64.8328687 1651.00408,65.0533748 1650.76764,65.2768209 C1650.40388,65.5502484 1650.12197,65.7707545 1649.92191,65.9942006 C1649.75822,66.1617852 1649.67637,66.3587707 1649.51268,66.552816 C1650.40388,65.9265788 1650.64032,65.7707545 1650.76764,65.5884695 C1651.33146,64.8593295 1651.49515,64.5594412 1651.61337,64.259553 C1652.37726,64.7152655 1652.49548,64.8181683 1652.65917,64.9240112 C1657.5426,65.2503602 1657.78814,65.3415027 1658.06095,65.4444055 C1659.034,64.9769327 1659.15222,64.9769327 1659.39776,64.8857902 C1662.00468,64.8759899 1663.28389,65.2670207 1663.23539,66.0588824 C1663.23539,65.5884695 1663.43545,65.132757 1663.6719,64.6888048 C1664.68132,65.1974387 1664.83592,65.4444055 1665.28152,65.5502484 C1665.36336,65.353263 1665.20877,65.1062962 1665.04508,64.9122509 C1666.61832,65.3415027 1666.53648,65.4708663 1666.78201,65.5120274 C1668.42801,65.1062962 1668.39163,65.0151537 1668.27341,64.950472 C1669.96488,65.5120274 1670.21042,65.5884695 1670.57417,65.5884695 C1673.19322,65.9942006 1672.22017,66.1118039 1672.18379,66.3176095 C1677.14907,66.7880224 1677.06722,66.9438467 1677.14907,67.1143714 C1677.5492,67.6876872 1677.74927,67.8317511 1677.94933,67.8964329 C1678.03118,67.6994475 1677.5492,67.5318629 1677.46736,67.3495779 C1677.74927,66.8409439 1677.94933,66.7880224 1678.15849,66.7880224 C1681.09582,67.1290718 1681.42321,67.2202143 1681.85971,67.3642783 C1684.24232,67.9111333 1684.68792,67.9493543 1685.13352,67.9875754 C1686.9523,68.2492426 1686.49761,68.4168272 1686.01563,68.5226701 C1687.02505,69.0577648 1687.18874,69.0724652 1687.30696,69.1224466 C1688.56192,69.7633842 1688.88021,70.010351 1689.16212,70.2573178 C1689.40766,69.8016052 1689.60772,69.6193202 1689.9351,69.5546384 C1693.5181,69.9045081 1693.59995,70.0867931 1693.71817,70.230857 C1699.52918,70.048572 1699.85656,69.9574295 1699.89293,69.8780473 C1701.30249,70.2837785 1701.10242,70.3337599 1701.14789,70.4513631 C1705.65847,70.8188732 1705.6221,70.921776 1705.45841,71.0276189 C1707.92286,71.2598853 1708.6049,71.3392675 1708.8959,71.5362529 C1709.16872,72.2653929 1708.96865,72.4476779 1709.0505,72.6446633 C1712.0333,72.9827726 1711.59679,73.1121362 1711.4331,73.1650576 C1711.10572,73.6854519 1711.15119,73.7413135 1711.10572,73.7795345 C1713.32464,74.2087863 1713.00635,74.4057717 1712.88813,74.5880567 C1714.45228,74.9526267 1714.33406,75.07023 1714.45228,75.1995935 C1714.94335,75.655306 1715.06157,75.761149 1715.17979,75.8640518 C1717.36233,75.3701182 1717.39871,75.3171968 1717.48055,75.252515 C1717.72609,75.0819903 1718.17169,74.9114656 1718.28991,74.7174203 C1718.37176,74.9643871 1717.72609,75.1995935 1717.88069,75.4612607 C1719.37209,74.8997053 1719.54487,74.8350235 1719.66309,74.7703417 C1720.06322,75.0555296 1720.26329,75.1995935 1720.26329,75.3171968 C1720.62705,75.3171968 1720.90896,74.8497239 1721.10902,74.7703417 C1722.96418,75.0173085 1723.09149,75.1731328 1723.09149,75.3171968 C1723.37341,75.0173085 1723.40978,74.8732446 1723.528,74.7556413 C1726.19252,74.2617078 1726.11067,74.1294041 1726.11067,73.9735798 C1729.0571,74.5086745 1729.02072,74.8350235 1728.93888,75.1613725 C1728.77519,75.6023846 1728.73881,75.655306 1728.77519,75.7082275 C1729.18441,75.1202113 1729.30263,74.8350235 1729.33901,74.561596 C1729.33901,74.1058835 1729.30263,74.0118009 1729.42086,73.9735798 C1734.50435,74.0118009 1732.81288,74.599817 1732.9311,74.7703417 C1734.50435,75.0555296 1734.10422,75.3318972 1733.74046,75.5524032 C1734.50435,75.290736 1734.83173,75.0937506 1735.06817,74.887945 C1738.53295,74.6791992 1738.73302,74.5086745 1738.89671,74.3646106 C1742.08867,74.8732446 1742.45243,75.0173085 1742.81618,75.1613725 C1742.65249,74.6791992 1742.57065,74.599817 1742.4888,74.5086745 C1745.27154,74.743881 1745.50798,74.8997053 1745.79898,75.0437692 C1746.20821,74.599817 1746.36281,74.4439928 1746.89025,74.4704535 C1748.74541,74.7821021 1749.02732,74.8997053 1749.30014,75.0026081 C1752.85586,75.3701182 1753.05592,75.4612607 1753.21961,75.4612607 C1755.39306,75.9316736 1755.32031,75.9551943 1755.23846,76.0081157 C1754.34726,76.5432104 1753.21961,76.998923 1753.50153,77.0900655 C1754.67464,76.5167497 1754.99293,76.3197643 1755.484,76.1374793 C1762.97738,76.0992582 1763.3866,76.2286218 1763.86858,76.2815432 C1765.64189,76.5432104 1766.05112,76.7254954 1766.45125,76.8960201 C1773.06252,77.1282865 1773.18074,77.2752905 1773.27168,77.363493 C1773.58997,77.6663213 1773.27168,77.910348 1773.27168,78.2249366 C1773.22621,78.4719034 1773.06252,78.7071099 1772.86246,78.9540767 C1772.69877,79.2157439 1772.4987,79.4627106 1772.26226,79.7243778 C1772.89883,79.3862685 1773.18074,79.2304443 1773.47175,79.07462 C1773.79004,78.9040953 1773.95373,78.6953496 1774.15379,78.5130646 C1774.35386,78.3160791 1774.71761,78.1484945 1775.04499,77.9662095 C1776.24539,78.1720152 1775.80888,78.3543002 1775.60882,78.5130646 C1776.77284,78.0691124 1777.4185,77.8721269 1777.70951,77.910348 C1779.83748,78.3425399 1780.03755,78.4719034 1780.24671,78.6042071 C1780.32856,78.3807609 1779.83748,77.9515091 1780.44678,77.7692241 C1782.62931,78.2131763 1782.9476,78.2896184 1783.31136,78.3543002 C1785.04829,78.8776346 1785.00282,78.9687771 1784.92098,79.0599196 C1785.97587,78.7717917 1786.25778,78.565986 1786.57607,78.5248249 C1789.72256,78.8776346 1790.4137,78.9952378 1790.45008,79.1510621 C1790.53192,79.7126175 1790.77746,79.7890596 1790.97752,79.7625989 C1791.0139,79.3980289 1791.05027,79.2686653 1791.17759,79.112841 C1795.73364,79.4627106 1795.3335,79.6067746 1795.20619,79.6449956 C1794.92428,79.7243778 1793.47835,80.0125057 1793.91486,80.16833 C1797.78886,80.494679 1798.36178,80.7681065 1799.0802,80.9004101 C1798.16171,80.3241543 1798.31631,80.3388547 1798.51637,80.312394 C1802.02662,80.9004101 1802.42675,81.041534 1802.82689,81.2120587 C1802.9542,81.6030894 1802.9542,81.732453 1802.9542,81.8500562 C1802.67229,82.423372 1802.59044,82.6085971 1802.47222,82.7908821 C1802.10847,83.3377371 1802.14484,83.4024189 1802.063,83.4671006 C1802.59044,82.8026424 1802.71776,82.5791963 1802.82689,82.3733906 C1802.9542,81.9411987 1803.03605,81.8912174 1803.1088,81.7971348 C1805.53687,82.1764052 1806.10069,82.241087 1806.46445,82.3204691 C1805.09127,81.8647566 1804.8912,81.7853744 1804.64567,81.6942319 C1804.84573,81.003313 1805.40956,80.8857097 1805.90063,81.0562344 C1806.06432,81.3561227 1806.01885,81.5119469 1806.01885,81.6824716 C1808.40145,81.1209162 1808.80158,81.1973583 1809.00165,81.1062158 C1809.89285,81.6677712 1810.01107,81.8912174 1810.01107,82.1381841 C1810.01107,81.9029777 1810.04745,81.6677712 1810.04745,81.4325648 C1815.3401,81.7971348 1815.62202,81.8382959 1815.78571,81.8118352 C1816.42228,81.3825834 1816.30406,81.2649802 1816.34953,81.1326765 C1820.70551,81.6942319 1820.5782,81.876517 1820.66004,82.0323412 C1824.21576,82.5791963 1824.53405,82.6585784 1824.93418,82.7497209 C1824.17029,82.2822481 1823.88838,82.1381841 1823.64284,82.0088206 C1826.55289,82.5674359 1826.58927,82.8673242 1826.62564,83.0231485 C1828.08976,83.0643096 1828.04429,83.3759581 1828.04429,83.6905468 C1828.9264,83.2348343 1829.13556,83.1672124 1829.33563,83.1289914 C1829.85398,83.3759581 1829.85398,83.5464828 1829.9813,83.7023071 C1830.21774,83.2201339 1830.14499,83.0113881 1830.58149,83.0496092 C1831.67276,83.5200221 1831.63639,83.6905468 1831.70914,83.8581314 C1831.99105,83.4406399 1832.20021,83.3112764 1832.20021,83.2054335 C1833.84621,82.6967995 1834.09174,82.5938967 1834.4555,82.5674359 C1835.01932,83.117231 1834.4555,83.2348343 1834.0099,83.3759581 C1837.27461,83.7023071 1837.36555,83.7934496 1837.36555,83.8992925 C1837.36555,84.3932261 1837.32008,84.5490504 1837.23824,84.7078147 C1838.04759,84.2491621 1837.8839,83.990435 1838.36588,83.9639743 C1843.01287,84.3020836 1843.01287,84.4461475 1842.9674,84.5637508 C1843.61307,85.189988 1843.33115,85.3193515 1843.33115,85.4634155 C1843.57669,85.9338284 1843.61307,86.0102705 1843.64944,86.0896527 C1843.8586,85.9955701 1843.61307,85.6839215 1843.77676,85.372273 C1844.34058,84.9430212 1844.65887,84.8900997 1844.77709,84.7989572 C1844.4588,84.4196868 1843.97682,84.3432447 1843.97682,84.2227014 C1847.96905,84.5872714 1847.287,84.7724965 1847.04147,84.8371783 C1847.48707,85.2664301 1847.35976,85.3840333 1847.287,85.4751758 C1848.81478,84.9665418 1849.3786,84.9018601 1849.78783,84.9136204 C1851.27923,85.4487151 1851.31561,85.6074794 1851.43383,85.7515434 C1851.67936,86.1396341 1851.84305,86.5189045 1851.96127,86.9246356 C1851.87943,86.5571255 1851.79758,86.3748405 1851.79758,86.2072559 C1851.87943,85.6574608 1851.84305,85.4898762 1851.99765,85.372273 C1852.32503,85.7633037 1852.36141,85.8544462 1852.40688,85.9573491 C1852.40688,85.6574608 1852.36141,85.3987337 1852.93432,85.372273 C1859.26368,85.5280973 1859.67291,85.4751758 1859.90935,85.5280973 C1859.26368,85.9955701 1858.89993,86.0896527 1858.89993,86.1396341 C1862.32833,86.5189045 1862.08279,86.7394105 1862.01004,86.9510964 C1863.37413,86.3513199 1863.70151,86.2072559 1864.10164,86.0367312 C1865.5112,86.3513199 1865.47482,86.5453652 1865.5112,86.7276502 C1866.00227,86.3513199 1866.15687,86.2190162 1866.28418,86.1396341 C1869.3852,86.5571255 1869.34883,86.6218073 1869.3852,86.6894292 C1872.21341,87.1716024 1872.49532,87.3656477 1872.77723,87.5097117 C1875.47812,87.0392988 1876.07832,87.0657595 1876.4057,87.0010777 C1875.5145,87.5097117 1875.31443,87.6420153 1875.23259,87.7713789 C1877.56972,87.2892056 1878.02442,87.2362842 1878.42455,87.1980631 C1885.15404,87.118681 1885.28136,87.3921085 1885.44505,87.483251 C1892.25638,87.7184574 1893.14759,87.665536 1893.79325,87.665536 C1890.48307,87.2509846 1891.17421,87.1069206 1891.49249,87.0922202 C1893.82963,87.4597303 1893.71141,87.6420153 1893.95694,87.6420153 C1896.37592,87.8889821 1896.69421,88.0595068 1896.8579,88.2417918 C1896.97612,88.4093764 1896.97612,88.6063618 1897.02159,88.7739464 C1897.09434,88.9709319 1897.05797,89.1679173 1897.22166,89.3502023 C1897.22166,89.1385165 1897.18528,88.9062501 1897.22166,88.6975043 C1897.94917,88.1477092 1897.94917,87.9536639 1898.43115,87.9272032 C1904.72413,87.8772218 1904.9242,87.7596186 1905.20611,87.665536 C1906.77936,87.991885 1906.61566,88.0977279 1906.29738,88.1888704 C1906.17006,88.5681408 1905.65171,88.7239651 1905.48802,88.8268679 C1906.21553,89.0356136 1905.73356,89.5060266 1905.28795,89.9617391 C1905.76993,89.7000719 1905.85178,89.5707083 1906.05184,89.4266444 C1906.69751,88.7739464 1906.81573,88.6328226 1906.97942,88.4887586 C1908.71636,88.9973926 1908.63451,89.2061383 1908.71636,89.414884 C1912.50852,89.7794541 1912.79043,89.8970573 1913.11781,89.9999601 C1917.3101,90.3674702 1916.30068,90.3939309 1916.25521,90.5232945 C1919.32895,90.8084823 1919.61086,90.9143252 1919.92915,91.0054677 C1920.93857,91.4229592 1921.05679,91.6317049 1920.81126,91.6846264 C1921.73883,92.1403389 1921.7843,92.1932604 1921.90253,92.2432417 C1923.35755,92.7518757 1923.4394,92.7783364 1923.52124,92.8194976 C1923.35755,92.3343843 1923.56671,92.1520992 1923.83953,92.0727171 C1924.76711,92.4402272 1924.3306,93.3957534 1924.3306,92.8194976 C1924.3306,92.435327 1924.55373,61.4940103 1925,-0.0044524756 L-4.79661264,-0.0044524756 Z" fill="#27221D" transform="translate(960.000000, 46.497774) scale(1, -1) translate(-960.000000, -46.497774) "></path>
    </g>
</svg>